<?xml version="1.0" encoding="UTF-8" standalone="no"?>
<svg
   xmlns:dc="http://purl.org/dc/elements/1.1/"
   xmlns:cc="http://creativecommons.org/ns#"
   xmlns:rdf="http://www.w3.org/1999/02/22-rdf-syntax-ns#"
   xmlns:svg="http://www.w3.org/2000/svg"
   xmlns="http://www.w3.org/2000/svg"
   xmlns:xlink="http://www.w3.org/1999/xlink"
   xmlns:sodipodi="http://sodipodi.sourceforge.net/DTD/sodipodi-0.dtd"
   xmlns:inkscape="http://www.inkscape.org/namespaces/inkscape"
   width="172.42896mm"
   height="95.223541mm"
   viewBox="0 0 172.42896 95.223542"
   version="1.1"
   id="svg365"
   sodipodi:docname="logo-elite-1-white.svg"
   inkscape:version="1.0.1 (c497b03c, 2020-09-10)">
  <sodipodi:namedview
     pagecolor="#f9f9f9"
     bordercolor="#666666"
     borderopacity="1"
     objecttolerance="10"
     gridtolerance="10"
     guidetolerance="10"
     inkscape:pageopacity="0"
     inkscape:pageshadow="2"
     inkscape:window-width="1529"
     inkscape:window-height="773"
     id="namedview157"
     showgrid="false"
     inkscape:zoom="0.51180484"
     inkscape:cx="258.08321"
     inkscape:cy="328.37858"
     inkscape:window-x="227"
     inkscape:window-y="40"
     inkscape:window-maximized="0"
     inkscape:current-layer="svg365"
     inkscape:document-rotation="0" />
  <defs
     id="defs359">
    <linearGradient
       id="linearGradient2425"
       gradientUnits="userSpaceOnUse"
       x1="535.57202"
       y1="2108.0405"
       x2="536.46149"
       y2="1922.4279"
       gradientTransform="matrix(-0.37133598,0,0,0.37133598,218.6842,-569.91009)">
      <stop
         offset="0"
         style="stop-color:#58de9c;stop-opacity:1"
         id="stop2423" />
      <stop
         offset="1"
         style="stop-color:#06afdd;stop-opacity:1"
         id="stop2421" />
    </linearGradient>
    <linearGradient
       id="linearGradient1605">
      <stop
         style="stop-color:#00ffff;stop-opacity:1;"
         offset="0"
         id="stop1601" />
      <stop
         style="stop-color:#00ffff;stop-opacity:0;"
         offset="1"
         id="stop1603" />
    </linearGradient>
    <linearGradient
       id="SVGID_1_"
       gradientUnits="userSpaceOnUse"
       x1="1173.6298"
       y1="1753.3"
       x2="1135.0298"
       y2="2058.1001"
       gradientTransform="matrix(-0.26458333,0,0,0.26458333,424.20269,-343.4433)"
       xlink:href="#SVGID_16_-8">
      <stop
         offset="0"
         style="stop-color:#05C65C"
         id="stop1596" />
      <stop
         offset="1"
         style="stop-color:#D8AD38"
         id="stop1598" />
    </linearGradient>
    <linearGradient
       id="SVGID_15_"
       gradientUnits="userSpaceOnUse"
       x1="1351.7428"
       y1="2032.6375"
       x2="1383.7428"
       y2="2032.6375"
       gradientTransform="matrix(0.26458333,0,0,0.26458333,-274.8736,-378.00453)">
      <stop
         offset="0"
         style="stop-color:#55C683"
         id="stop282" />
      <stop
         offset="1"
         style="stop-color:#D8CD45"
         id="stop284" />
    </linearGradient>
    <linearGradient
       id="SVGID_16_"
       gradientUnits="userSpaceOnUse"
       x1="535.57202"
       y1="2108.0405"
       x2="536.46149"
       y2="1922.4279"
       gradientTransform="matrix(-0.26458333,0,0,0.26458333,160.7178,-378.00453)">
      <stop
         offset="0"
         style="stop-color:#05C65C"
         id="stop289" />
      <stop
         offset="1"
         style="stop-color:#D8AD38"
         id="stop291" />
    </linearGradient>
    <linearGradient
       id="SVGID_15_-9"
       gradientUnits="userSpaceOnUse"
       x1="1351.7428"
       y1="2032.6375"
       x2="1383.7428"
       y2="2032.6375"
       gradientTransform="matrix(0.26458333,0,0,0.26458333,-342.90932,-388.58787)">
      <stop
         offset="0"
         style="stop-color:#55C683"
         id="stop282-7" />
      <stop
         offset="1"
         style="stop-color:#D8CD45"
         id="stop284-3" />
    </linearGradient>
    <linearGradient
       id="SVGID_16_-5"
       gradientUnits="userSpaceOnUse"
       x1="535.57202"
       y1="2108.0405"
       x2="536.46149"
       y2="1922.4279"
       gradientTransform="matrix(-0.26458333,0,0,0.26458333,92.682086,-388.58787)">
      <stop
         offset="0"
         style="stop-color:#05C65C"
         id="stop289-4" />
      <stop
         offset="1"
         style="stop-color:#D8AD38"
         id="stop291-9" />
    </linearGradient>
    <linearGradient
       id="SVGID_16_-8"
       gradientUnits="userSpaceOnUse"
       x1="535.57202"
       y1="2108.0405"
       x2="536.46149"
       y2="1922.4279"
       gradientTransform="matrix(-0.37133598,0,0,0.37133598,218.6842,-569.91009)">
      <stop
         offset="0"
         style="stop-color:#05C65C"
         id="stop289-9" />
      <stop
         offset="1"
         style="stop-color:#D8AD38"
         id="stop291-1" />
    </linearGradient>
    <linearGradient
       id="SVGID_1_-7"
       gradientUnits="userSpaceOnUse"
       x1="1173.6298"
       y1="1753.3"
       x2="1135.0298"
       y2="2058.1001"
       gradientTransform="matrix(-0.26458333,0,0,0.26458333,424.20269,-343.4433)"
       spreadMethod="pad">
      <stop
         offset="0"
         style="stop-color:#05C65C"
         id="stop18" />
      <stop
         offset="1"
         style="stop-color:#D8AD38"
         id="stop20" />
    </linearGradient>
    <radialGradient
       xlink:href="#SVGID_16_-8"
       id="radialGradient1607"
       cx="113.67979"
       cy="127.007"
       fx="113.67979"
       fy="127.007"
       r="33.76615"
       gradientTransform="matrix(0.58832676,3.7851525,-1.8119105,0.28162526,250.82154,-466.06372)"
       gradientUnits="userSpaceOnUse" />
    <radialGradient
       inkscape:collect="always"
       xlink:href="#linearGradient2425"
       id="radialGradient2403"
       cx="87.57708"
       cy="6.5563493"
       fx="87.57708"
       fy="6.5563493"
       r="33.766151"
       gradientTransform="matrix(0.56144944,2.8687155,-1.1719345,0.22936826,46.09059,-252.73755)"
       gradientUnits="userSpaceOnUse" />
  </defs>
  <metadata
     id="metadata362">
    <rdf:RDF>
      <cc:Work
         rdf:about="">
        <dc:format>image/svg+xml</dc:format>
        <dc:type
           rdf:resource="http://purl.org/dc/dcmitype/StillImage" />
        <dc:title></dc:title>
      </cc:Work>
    </rdf:RDF>
  </metadata>
  <path
     class="st2"
     d="M 108.84958,39.34354 C 126.70895,54.9275 115.64937,77.73458 97.790001,80.645 l -0.23813,-22.25146 c 1.19063,-0.79375 2.2225,-1.905 2.963339,-3.30729 z M 86.995001,80.22167 v -20.0025 c -4.02167,-2.69875 -5.34459,-8.20209 -2.88396,-12.43542 l 13.57312,-23.495 C 102.92291,15.21354 95.435211,4.55083 87.577081,0 c 0,3.65125 -1.05833,6.13833 -3.14854,9.73667 -5.50333,9.55145 -11.059584,19.10291 -16.562917,28.65437 -7.725834,13.41438 -3.095625,30.69167 10.292287,38.44396 2.91042,1.66687 5.90021,2.77812 8.83709,3.38667 z M 116.46958,8.5725 l -3.51896,-2.03729 2.03729,-3.51896 3.51896,2.03729 z m -0.23813,4.68312 -4.02167,6.95855 -6.95853,-4.02167 4.02166,-6.95854 z m 8.59896,8.65188 -6.95854,-4.02167 4.02166,-6.95854 6.95855,4.02167 z m 0.71437,4.97417 -10.31875,-5.95313 -5.95312,10.31875 10.31875,5.95313 z m 3.09563,14.04937 3.01625,-5.21229 -5.21229,-3.01625 -3.01625,5.21229 z"
     id="path23"
     style="clip-rule:evenodd;fill:url(#radialGradient2403);fill-opacity:1.0;fill-rule:evenodd;stroke-width:0.2651125;stroke-miterlimit:4;stroke-dasharray:none" />
  <path
     class="st3"
     d="m 86.995001,59.90167 7.88458,-4.1275 h 3.36021 v 37.80895 h -11.24479 z"
     id="path25"
     style="fill:#fbfdff;stroke-width:0.264583;fill-opacity:1" />
  <path
     class="st3"
     d="m 103.08166,61.17167 v -2.64584 l 5.97959,-1.98437 v -7.51417 l 7.85812,-4.1275 h 3.36021 v 11.64167 h 9.0752 v 4.63021 h -9.0752 v 23.83895 c 0,0.74084 0.1852,1.4023 0.58208,1.95792 0.39687,0.55563 0.89958,0.82021 1.50812,0.82021 0.39688,0 0.82021,-0.13229 1.29646,-0.39688 0.47625,-0.26458 0.92604,-0.58208 1.34938,-0.92604 0.42333,-0.34396 0.79375,-0.71437 1.11125,-1.05833 0.3175,-0.34396 0.55562,-0.635 0.71437,-0.82021 L 130.6777,87.63 c -0.635,0.9525 -1.32292,1.85208 -2.06375,2.69875 -0.74083,0.82021 -1.61396,1.56104 -2.56646,2.14312 -0.9525,0.60855 -2.06375,1.0848 -3.33375,1.42875 -1.24354,0.34396 -2.69875,0.52917 -4.33916,0.52917 -1.56105,0 -2.93688,-0.21167 -4.07459,-0.66146 -1.13771,-0.44979 -2.11666,-1.05833 -2.88396,-1.85208 -0.76729,-0.79375 -1.34937,-1.74625 -1.74625,-2.8575 -0.39687,-1.11125 -0.58207,-2.32833 -0.58207,-3.67771 V 61.22458 h -6.00605 z"
     id="path27"
     style="fill:#fbfdff;stroke-width:0.264583;fill-opacity:1" />
  <path
     class="st3"
     d="m 153.53771,95.22354 c -2.61937,0 -5.10646,-0.47625 -7.40834,-1.45521 -2.30188,-0.97896 -4.33917,-2.30187 -6.0325,-3.94229 -1.71979,-1.64042 -3.06917,-3.57187 -4.07459,-5.74146 -1.00541,-2.16958 -1.50812,-4.49791 -1.50812,-6.93208 0,-2.91042 0.44979,-5.63563 1.37583,-8.12271 0.92604,-2.48708 2.2225,-4.65667 3.91584,-6.48229 1.69333,-1.82563 3.70416,-3.25438 6.05895,-4.28625 2.3548,-1.03188 4.97418,-1.53458 7.85814,-1.53458 2.59292,0 4.94771,0.42333 7.09083,1.21708 2.14313,0.82021 3.99521,1.93146 5.50334,3.36021 1.53458,1.42875 2.72519,3.09562 3.57186,5.02708 0.84667,1.93146 1.27,3.99521 1.27,6.19125 h -25.63812 c 0.10583,2.03729 0.39687,3.99521 0.92604,5.84729 0.52916,1.85209 1.21708,3.4925 2.09022,4.89479 0.87312,1.4023 1.87854,2.54 3.06916,3.36021 1.16417,0.82021 2.46063,1.24354 3.88938,1.24354 1.21708,0 2.43416,-0.21166 3.62479,-0.635 1.19062,-0.42333 2.30187,-1.00541 3.30729,-1.74625 1.00542,-0.74083 1.905,-1.5875 2.64583,-2.56645 0.74084,-0.97896 1.29646,-2.0373 1.64042,-3.175 l 5.71499,0.89958 c -0.58208,2.01083 -1.50812,3.88937 -2.77812,5.63562 -1.27,1.77271 -2.75166,3.3073 -4.44499,4.63021 -1.69334,1.32292 -3.54542,2.38125 -5.55625,3.12209 -2.0373,0.79375 -4.04813,1.19062 -6.11188,1.19062 z m 4.73604,-26.56417 c -0.10583,-1.08479 -0.34396,-2.0902 -0.71437,-2.98979 -0.37042,-0.89958 -0.84667,-1.69333 -1.42875,-2.32833 -0.58209,-0.635 -1.24354,-1.16417 -2.03729,-1.50813 -0.7673,-0.34395 -1.61396,-0.52916 -2.48709,-0.52916 -0.68791,0 -1.37583,0.18521 -2.06375,0.52916 -0.68791,0.34396 -1.29647,0.84667 -1.82563,1.48167 -0.55563,0.635 -1.00542,1.40229 -1.37584,2.32833 -0.37041,0.89959 -0.60854,1.905 -0.74083,3.01625 z"
     id="path29"
     style="fill:#fbfdff;stroke-width:0.264583;fill-opacity:1" />
  <g
     id="g41"
     transform="matrix(0.26458333,0,0,0.26458333,-37.491458,-463.89396)"
     style="fill:#fbfdff;fill-opacity:1">
    <rect
       x="332.29999"
       y="2075.6001"
       class="st4"
       width="103"
       height="30.299999"
       id="rect35"
       style="fill:#fbfdff;fill-opacity:1" />
    <g
       id="g39"
       style="fill:#fbfdff;fill-opacity:1">
      <path
         class="st3"
         d="m 368.9,2105.5 h -37 v -171.3 l 25.8,-13.6 h 11.1 v 184.9 z"
         id="path37"
         style="fill:#fbfdff;fill-opacity:1" />
    </g>
  </g>
  <circle
     class="st5"
     cx="41.714264"
     cy="89.808868"
     r="4.2333331"
     id="circle48"
     style="clip-rule:evenodd;fill:#fbfdff;fill-rule:evenodd;stroke-width:0.264583;fill-opacity:1" />
  <circle
     class="st5"
     cx="94.175858"
     cy="47.409962"
     r="4.2333331"
     id="circle48-9"
     style="clip-rule:evenodd;fill:#fbfdff;fill-rule:evenodd;stroke-width:0.264583;fill-opacity:1" />
  <path
     class="st3"
     d="m 19.417216,95.224427 c -2.61937,0 -5.10646,-0.47625 -7.40834,-1.45521 -2.3018807,-0.97896 -4.3391707,-2.30187 -6.0325006,-3.94229 -1.7197901,-1.64042 -3.06917,-3.57187 -4.07459,-5.74146 -1.00541004,-2.16958 -1.50812004,-4.49791 -1.50812004,-6.93208 0,-2.91042 0.44979,-5.63563 1.37583004,-8.12271 0.92604,-2.48708 2.2224999,-4.65667 3.9158399,-6.48229 1.6933301,-1.82563 3.70416,-3.25438 6.0589507,-4.28625 2.3548,-1.03188 4.97418,-1.53458 7.85814,-1.53458 2.59292,0 4.94771,0.42333 7.09083,1.21708 2.143129,0.82021 3.99521,1.93146 5.50334,3.36021 1.534581,1.42875 2.72519,3.09562 3.571859,5.02708 0.84667,1.93146 1.27,3.99521 1.27,6.19125 H 11.400336 c 0.10583,2.03729 0.39687,3.99521 0.92604,5.84729 0.52916,1.85209 1.21708,3.4925 2.09022,4.89479 0.87312,1.4023 1.87854,2.54 3.06916,3.36021 1.16417,0.82021 2.46063,1.24354 3.88938,1.24354 1.21708,0 2.43416,-0.21166 3.62479,-0.635 1.19062,-0.42333 2.30187,-1.00541 3.30729,-1.74625 1.005419,-0.74083 1.905,-1.5875 2.64583,-2.56645 0.740839,-0.97896 1.296459,-2.0373 1.64042,-3.175 l 5.714989,0.89958 c -0.58208,2.01083 -1.508119,3.88937 -2.778119,5.63562 -1.27,1.77271 -2.751659,3.3073 -4.44499,4.63021 -1.693341,1.32292 -3.545419,2.38125 -5.55625,3.12209 -2.0373,0.79375 -4.04813,1.19062 -6.11188,1.19062 z m 4.73604,-26.56417 c -0.10583,-1.08479 -0.34396,-2.0902 -0.71437,-2.98979 -0.37042,-0.89958 -0.84667,-1.69333 -1.42875,-2.32833 -0.58209,-0.635 -1.24354,-1.16417 -2.03729,-1.50813 -0.7673,-0.34395 -1.61396,-0.52916 -2.48709,-0.52916 -0.68791,0 -1.37583,0.18521 -2.06375,0.52916 -0.68791,0.34396 -1.29647,0.84667 -1.82563,1.48167 -0.55563,0.635 -1.00542,1.40229 -1.37584,2.32833 -0.37041,0.89959 -0.60854,1.905 -0.74083,3.01625 z"
     id="path29-5"
     style="fill:#fbfdff;stroke-width:0.264583;fill-opacity:1" />
</svg>
