<?xml version="1.0" encoding="UTF-8" standalone="no"?>
<svg
   xmlns:dc="http://purl.org/dc/elements/1.1/"
   xmlns:cc="http://creativecommons.org/ns#"
   xmlns:rdf="http://www.w3.org/1999/02/22-rdf-syntax-ns#"
   xmlns:svg="http://www.w3.org/2000/svg"
   xmlns="http://www.w3.org/2000/svg"
   xmlns:xlink="http://www.w3.org/1999/xlink"
   xmlns:sodipodi="http://sodipodi.sourceforge.net/DTD/sodipodi-0.dtd"
   xmlns:inkscape="http://www.inkscape.org/namespaces/inkscape"
   width="277.4566mm"
   height="109.62668mm"
   viewBox="0 0 277.45661 109.62669"
   version="1.1"
   id="svg365"
   sodipodi:docname="logo-dlite-2-white.svg"
   inkscape:version="1.0.1 (c497b03c, 2020-09-10)">
  <sodipodi:namedview
     pagecolor="#080808"
     bordercolor="#666666"
     borderopacity="1"
     objecttolerance="10"
     gridtolerance="10"
     guidetolerance="10"
     inkscape:pageopacity="0"
     inkscape:pageshadow="2"
     inkscape:window-width="2377"
     inkscape:window-height="724"
     id="namedview1736"
     showgrid="false"
     inkscape:zoom="0.16794594"
     inkscape:cx="599.13476"
     inkscape:cy="217.19764"
     inkscape:window-x="157"
     inkscape:window-y="155"
     inkscape:window-maximized="0"
     inkscape:current-layer="svg365" />
  <defs
     id="defs359">
    <linearGradient
       id="SVGID_15_"
       gradientUnits="userSpaceOnUse"
       x1="1351.7428"
       y1="2032.6375"
       x2="1383.7428"
       y2="2032.6375"
       gradientTransform="matrix(0.26458333,0,0,0.26458333,-274.8736,-378.00453)">
      <stop
         offset="0"
         style="stop-color:#55C683"
         id="stop282" />
      <stop
         offset="1"
         style="stop-color:#D8CD45"
         id="stop284" />
    </linearGradient>
    <linearGradient
       id="SVGID_16_"
       gradientUnits="userSpaceOnUse"
       x1="535.57202"
       y1="2108.0405"
       x2="536.46149"
       y2="1922.4279"
       gradientTransform="matrix(-0.26458333,0,0,0.26458333,160.7178,-378.00453)">
      <stop
         offset="0"
         style="stop-color:#05C65C"
         id="stop289" />
      <stop
         offset="1"
         style="stop-color:#D8AD38"
         id="stop291" />
    </linearGradient>
    <linearGradient
       id="SVGID_15_-9"
       gradientUnits="userSpaceOnUse"
       x1="1351.7428"
       y1="2032.6375"
       x2="1383.7428"
       y2="2032.6375"
       gradientTransform="matrix(0.26458333,0,0,0.26458333,-342.90932,-388.58787)">
      <stop
         offset="0"
         style="stop-color:#55C683"
         id="stop282-7" />
      <stop
         offset="1"
         style="stop-color:#D8CD45"
         id="stop284-3" />
    </linearGradient>
    <linearGradient
       id="SVGID_16_-5"
       gradientUnits="userSpaceOnUse"
       x1="535.57202"
       y1="2108.0405"
       x2="536.46149"
       y2="1922.4279"
       gradientTransform="matrix(-0.26458333,0,0,0.26458333,92.682086,-388.58787)">
      <stop
         offset="0"
         style="stop-color:#05C65C"
         id="stop289-4" />
      <stop
         offset="1"
         style="stop-color:#D8AD38"
         id="stop291-9" />
    </linearGradient>
    <linearGradient
       id="SVGID_16_-8"
       gradientUnits="userSpaceOnUse"
       x1="535.57202"
       y1="2108.0405"
       x2="536.46149"
       y2="1922.4279"
       gradientTransform="matrix(-0.37133598,0,0,0.37133598,228.07533,-713.78203)">
      <stop
         offset="0"
         style="stop-color:#05C65C"
         id="stop289-9" />
      <stop
         offset="1"
         style="stop-color:#D8AD38"
         id="stop291-1" />
    </linearGradient>
    <radialGradient
       inkscape:collect="always"
       xlink:href="#linearGradient1605"
       id="radialGradient1607"
       cx="113.67979"
       cy="127.007"
       fx="113.67979"
       fy="127.007"
       r="33.766151"
       gradientTransform="matrix(0.79975591,5.1454365,-2.4630633,0.38283396,253.79124,-633.55474)"
       gradientUnits="userSpaceOnUse" />
    <linearGradient
       inkscape:collect="always"
       id="linearGradient1605">
      <stop
         style="stop-color:#00ffff;stop-opacity:1;"
         offset="0"
         id="stop1601" />
      <stop
         style="stop-color:#00ffff;stop-opacity:0;"
         offset="1"
         id="stop1603" />
    </linearGradient>
  </defs>
  <metadata
     id="metadata362">
    <rdf:RDF>
      <cc:Work
         rdf:about="">
        <dc:format>image/svg+xml</dc:format>
        <dc:type
           rdf:resource="http://purl.org/dc/dcmitype/StillImage" />
        <dc:title></dc:title>
      </cc:Work>
    </rdf:RDF>
  </metadata>
  <path
     class="st3"
     d="m 192.04911,57.460229 7.88459,-4.1275 h 3.3602 v 37.80896 h -11.24479 z"
     id="path264"
     style="fill:#ffffff;stroke-width:0.264583" />
  <path
     class="st3"
     d="m 208.10932,58.730229 v -2.64583 l 5.97958,-1.98437 v -7.51417 l 7.85813,-4.1275 h 3.36021 v 11.64167 h 9.07521 v 4.6302 h -9.07521 v 23.83896 c 0,0.74084 0.18521,1.40229 0.58208,1.95792 0.39688,0.55562 0.89958,0.82021 1.50813,0.82021 0.39687,0 0.8202,-0.13229 1.29645,-0.39688 0.47625,-0.26458 0.92605,-0.58208 1.34938,-0.92604 0.42333,-0.34396 0.79375,-0.71437 1.11125,-1.05833 0.3175,-0.34396 0.55562,-0.635 0.71437,-0.82021 l 3.83646,3.04271 c -0.635,0.9525 -1.32291,1.85208 -2.06375,2.69875 -0.74083,0.82021 -1.61396,1.56104 -2.56646,2.14312 -0.9525,0.60854 -2.06375,1.08479 -3.33375,1.42875 -1.24354,0.34396 -2.69875,0.52917 -4.33916,0.52917 -1.56104,0 -2.93688,-0.21167 -4.07459,-0.66146 -1.1377,-0.44979 -2.11666,-1.05833 -2.88395,-1.85208 -0.7673,-0.79375 -1.34938,-1.74625 -1.74625,-2.8575 -0.39688,-1.11125 -0.58209,-2.32834 -0.58209,-3.67771 v -24.15646 h -6.00604 z"
     id="path266"
     style="fill:#ffffff;stroke-width:0.264583" />
  <path
     class="st3"
     d="m 258.56536,92.755649 c -2.61937,0 -5.10646,-0.47625 -7.40833,-1.45521 -2.30188,-0.97896 -4.33917,-2.30187 -6.0325,-3.94229 -1.71979,-1.64042 -3.06917,-3.57187 -4.07458,-5.74146 -1.00542,-2.16958 -1.50813,-4.49791 -1.50813,-6.93208 0,-2.91042 0.44979,-5.63563 1.37583,-8.12271 0.92605,-2.48708 2.2225,-4.65667 3.91584,-6.48229 1.69333,-1.82563 3.70416,-3.25438 6.05896,-4.28625 2.35479,-1.03188 4.97416,-1.53458 7.85812,-1.53458 2.59292,0 4.94771,0.42333 7.09083,1.21708 2.14313,0.82021 3.99521,1.93146 5.50334,3.36021 1.53458,1.42875 2.72521,3.09562 3.57187,5.02708 0.84667,1.93146 1.27,3.99521 1.27,6.19125 h -25.63812 c 0.10583,2.03729 0.39687,3.99521 0.92604,5.84729 0.52917,1.85209 1.21708,3.4925 2.09021,4.89479 0.87312,1.4023 1.87854,2.54 3.06916,3.36021 1.16417,0.82021 2.46063,1.24354 3.88938,1.24354 1.21708,0 2.43417,-0.21166 3.62479,-0.635 1.19063,-0.42333 2.30188,-1.00541 3.30729,-1.74625 1.00542,-0.74083 1.905,-1.5875 2.64584,-2.56645 0.74083,-0.97896 1.29645,-2.0373 1.64041,-3.175 l 5.715,0.89958 c -0.58208,2.01083 -1.50812,3.88937 -2.77812,5.63562 -1.27,1.77271 -2.75167,3.3073 -4.445,4.63021 -1.69334,1.32292 -3.54542,2.38125 -5.55625,3.12209 -2.01084,0.8202 -4.04813,1.19062 -6.11188,1.19062 z m 4.7625,-26.53771 c -0.10583,-1.08479 -0.34396,-2.09021 -0.71437,-2.98979 -0.37042,-0.89958 -0.84667,-1.69333 -1.42875,-2.32833 -0.58209,-0.635 -1.24354,-1.16417 -2.03729,-1.50813 -0.7673,-0.34396 -1.61396,-0.52916 -2.48709,-0.52916 -0.68791,0 -1.37583,0.1852 -2.06375,0.52916 -0.68791,0.34396 -1.29646,0.84667 -1.82562,1.48167 -0.55563,0.635 -1.00542,1.40229 -1.37584,2.32833 -0.37041,0.89959 -0.60854,1.905 -0.74083,3.01625 z"
     id="path268"
     style="fill:#ffffff;stroke-width:0.264583" />
  <g
     id="g272"
     transform="matrix(0.26458333,0,0,0.26458333,-215.40922,-466.44122)"
     style="fill:#ffffff">
    <path
       class="st3"
       d="m 1297,2099.9 c -4.5,3.1 -9.5,5.5 -14.8,7.3 -5.3,1.8 -10.6,2.6 -15.8,2.6 -7.7,0 -14.9,-1.7 -21.6,-5.1 -6.7,-3.4 -12.6,-8 -17.6,-13.8 -5,-5.8 -9,-12.4 -11.8,-20 -2.9,-7.5 -4.3,-15.4 -4.3,-23.6 0,-8.2 1.8,-16.2 5.3,-24 3.5,-7.8 8.3,-14.7 14.4,-20.8 6.1,-6.1 13.2,-10.9 21.4,-14.6 8.2,-3.7 16.9,-5.5 26.3,-5.5 3.6,0 7,0.3 10.1,0.8 3.1,0.6 6,1.3 8.6,2.3 v -49.8 l 25.8,-13.6 h 11.1 V 2107 h -37 v -7.1 z m 0,-76.1 c 0,-3.9 -0.6,-7.5 -1.9,-10.8 -1.2,-3.3 -2.9,-6.1 -4.9,-8.4 -2,-2.4 -4.3,-4.2 -6.9,-5.4 -2.6,-1.3 -5.1,-1.9 -7.7,-1.9 -3.3,0 -6.5,1.1 -9.6,3.3 -3,2.2 -5.7,5.2 -8,9.1 -2.3,3.9 -4.1,8.5 -5.4,13.8 -1.4,5.3 -2,11.1 -2,17.3 0,6.8 0.8,13.2 2.3,19.4 1.6,6.1 3.6,11.5 6.3,16.2 2.6,4.7 5.7,8.4 9.2,11.2 3.5,2.8 7.3,4.2 11.2,4.2 1.4,0 2.8,-0.2 4.4,-0.7 1.6,-0.4 3.2,-1.1 4.7,-1.9 1.6,-0.8 3,-1.7 4.4,-2.8 1.4,-1.1 2.6,-2.3 3.6,-3.6 v -59 z"
       id="path270"
       style="fill:#ffffff" />
  </g>
  <g
     id="g280"
     transform="matrix(0.26458333,0,0,0.26458333,-215.40922,-466.44122)"
     style="fill:#ffffff">
    <rect
       x="1401.7"
       y="2076"
       class="st4"
       width="103"
       height="30.299999"
       id="rect274"
       style="fill:#ffffff" />
    <g
       id="g278"
       style="fill:#ffffff">
      <path
         class="st3"
         d="m 1438.3,2105.9 h -37 v -171.3 l 25.8,-13.6 h 11.1 v 184.9 z"
         id="path276"
         style="fill:#ffffff" />
    </g>
  </g>
  <circle
     class="st18"
     cx="146.4614"
     cy="87.163292"
     r="4.2333331"
     id="circle287"
     style="clip-rule:evenodd;fill:#ffffff;fill-rule:evenodd;stroke-width:0.264583" />
  <circle
     class="st5"
     cx="199.48555"
     cy="44.333515"
     r="4.2333331"
     id="circle48-3"
     style="clip-rule:evenodd;fill:#ffffff;fill-rule:evenodd;stroke-width:0.264583" />
  <path
     class="st2"
     d="M 60.798283,53.482573 C 85.075844,74.666996 70.04174,105.67034 45.764185,109.62669 L 45.440476,79.378643 c 1.618512,-1.079004 3.021208,-2.589607 4.028285,-4.495847 z M 31.089746,109.05123 V 81.860353 C 25.622793,78.191742 23.824452,70.71065 27.169367,64.955972 L 45.620306,33.017487 C 52.741725,20.680885 42.563142,6.1862788 31.881009,0 c 0,4.9634128 -1.438666,8.3442838 -4.28004,13.235772 C 20.119884,26.219761 12.566861,39.203766 5.0857755,52.187771 -5.4165209,70.422922 0.87766393,93.909219 19.076838,104.44747 c 3.956349,2.26591 8.020588,3.77651 12.012908,4.60376 z m 40.066968,-97.397999 -4.783586,-2.7694392 2.76944,-4.783582 4.783581,2.769439 z m -0.32371,6.36611 -5.466951,9.45927 -9.459241,-5.466954 5.466936,-9.459255 z m 11.689198,11.761138 -9.459254,-5.466953 5.466936,-9.459256 9.459272,5.466953 z m 0.971097,6.761753 -14.027038,-8.092526 -8.092513,14.027034 14.027035,8.09253 z m 4.208118,19.098348 4.100209,-7.085452 -7.085446,-4.100211 -4.100212,7.085453 z"
     id="path23"
     style="clip-rule:evenodd;fill:url(#radialGradient1607);fill-opacity:1;fill-rule:evenodd;stroke-width:0.360233;stroke-miterlimit:4;stroke-dasharray:none" />
</svg>
