<svg xmlns="http://www.w3.org/2000/svg" xmlns:xlink="http://www.w3.org/1999/xlink" viewBox="0 0 369.38 259.76"><defs><style>.cls-1{fill:#fff;stroke:#000;stroke-width:4px;}.cls-1,.cls-4,.cls-8{stroke-miterlimit:10;}.cls-2{font-size:8px;}.cls-2,.cls-3,.cls-8{fill:#333;}.cls-2,.cls-3,.cls-7,.cls-9{font-family:Poppins-Regular, Poppins;}.cls-3{font-size:5px;}.cls-4{fill:none;stroke-width:0.25px;}.cls-4,.cls-8{stroke:#333;}.cls-5{fill-rule:evenodd;fill:url(#GradientFill_3);}.cls-6{fill:url(#GradientFill_3-2);}.cls-7{font-size:18px;}.cls-7,.cls-9{fill:#8cc63f;}.cls-9{font-size:16px;}</style><linearGradient id="GradientFill_3" x1="615.61" y1="56.41" x2="615.78" y2="19.9" gradientTransform="matrix(-1, 0, 0, 1, 708.77, 0)" gradientUnits="userSpaceOnUse"><stop offset="0" stop-color="#78c288"/><stop offset="1" stop-color="#d5cb5d"/></linearGradient><linearGradient id="GradientFill_3-2" x1="141.22" y1="41.34" x2="147.51" y2="41.34" gradientTransform="matrix(1, 0, 0, 1, 0, 0)" xlink:href="#GradientFill_3"/></defs><g id="Calque_2" data-name="Calque 2"><g id="Calque_1-2" data-name="Calque 1"><rect class="cls-1" x="56.81" y="-52.81" width="255.76" height="365.38" rx="12" transform="translate(54.81 314.57) rotate(-90)"/><text class="cls-2" transform="translate(265.67 53.82)">Component properties</text><text class="cls-3" transform="translate(269.58 70.34)"><tspan xml:space="preserve">Properties  Style  Data  Events  ...</tspan></text><rect class="cls-4" x="267.69" y="62.88" width="28" height="11"/><text class="cls-3" transform="translate(268.13 87.52)">Public name/anchor name</text><rect class="cls-4" x="267.61" y="97.88" width="88.16" height="11"/><text class="cls-3" transform="translate(266.22 127.23)">Type</text><rect class="cls-4" x="268.08" y="138.81" width="88.16" height="11"/><text class="cls-3" transform="translate(267 171)">Text</text><rect class="cls-4" x="268.5" y="180.09" width="87.32" height="48.44"/><path class="cls-5" d="M98.09,37.82c8.14,7.1,3.1,17.5-5,18.83l-.12-10.14A4.23,4.23,0,0,0,94.3,45l3.79-7.18Zm-10,18.64V47.34a4.3,4.3,0,0,1-1.32-5.68L93,31c2.39-4.15-1-9-4.61-11.08A8.21,8.21,0,0,1,87,24.31L79.39,37.38a12.85,12.85,0,0,0,4.7,17.52,13.48,13.48,0,0,0,4,1.56ZM101.57,23.8,100,22.87l.93-1.61,1.6.93-.92,1.61Zm-.11,2.13L99.63,29.1l-3.17-1.83,1.83-3.17,3.17,1.83Zm3.92,3.94L102.21,28,104,24.87l3.17,1.83-1.83,3.17Zm.32,2.27L101,29.42l-2.72,4.71L103,36.84l2.71-4.7Zm1.42,6.41,1.37-2.38-2.38-1.38-1.37,2.38Z"/><path d="M178.23,31l5.86-3.06h2.5V56h-8.36Z"/><path d="M190.18,31.94V30l4.44-1.48V22.91l5.83-3.06H203V28.5h6.75v3.44H203V49.66a2.51,2.51,0,0,0,.43,1.45,1.31,1.31,0,0,0,1.13.62,2.05,2.05,0,0,0,1-.29,6.75,6.75,0,0,0,1-.69,7.89,7.89,0,0,0,.83-.79c.25-.27.42-.48.53-.62l2.85,2.26a17,17,0,0,1-1.53,2,9.17,9.17,0,0,1-1.91,1.6,9.32,9.32,0,0,1-2.48,1.06,12,12,0,0,1-3.22.39,8.46,8.46,0,0,1-3-.49,6,6,0,0,1-2.15-1.39,5.53,5.53,0,0,1-1.29-2.12,8.26,8.26,0,0,1-.43-2.75v-18Z"/><path d="M227.69,57.24a13.93,13.93,0,0,1-5.51-1.09,14.36,14.36,0,0,1-4.49-2.93,13.89,13.89,0,0,1-3-4.27,12.26,12.26,0,0,1-1.11-5.15,17.45,17.45,0,0,1,1-6,14.37,14.37,0,0,1,2.9-4.82,13.36,13.36,0,0,1,4.5-3.19,15.64,15.64,0,0,1,11.12-.23,12.6,12.6,0,0,1,4.1,2.5,11.26,11.26,0,0,1,3.59,8.34H221.72a19.19,19.19,0,0,0,.69,4.35A14.27,14.27,0,0,0,224,48.36a8.48,8.48,0,0,0,2.27,2.5,4.87,4.87,0,0,0,2.89.92,7.93,7.93,0,0,0,2.71-.47A9.64,9.64,0,0,0,234.28,50a9.34,9.34,0,0,0,2-1.91,7.2,7.2,0,0,0,1.21-2.35l4.25.67a13.68,13.68,0,0,1-2.06,4.2,16.61,16.61,0,0,1-3.31,3.44,15.85,15.85,0,0,1-4.12,2.33A12.77,12.77,0,0,1,227.69,57.24Zm3.52-19.73a7.68,7.68,0,0,0-.52-2.22,6.1,6.1,0,0,0-1.07-1.73,4.41,4.41,0,0,0-1.5-1.12,4.46,4.46,0,0,0-1.86-.39,3.28,3.28,0,0,0-1.53.39,4.68,4.68,0,0,0-1.36,1.1,6.69,6.69,0,0,0-1,1.72,8.15,8.15,0,0,0-.55,2.25Z"/><path d="M130.45,54.57A11.48,11.48,0,0,1,127.53,56a9.8,9.8,0,0,1-3.11.52,9.26,9.26,0,0,1-4.24-1,11.32,11.32,0,0,1-3.47-2.72,13.19,13.19,0,0,1-3.18-8.58,11.2,11.2,0,0,1,1-4.71,13.35,13.35,0,0,1,2.83-4.08,13.91,13.91,0,0,1,4.21-2.87,12.35,12.35,0,0,1,5.16-1.09,11.35,11.35,0,0,1,2,.17,10.65,10.65,0,0,1,1.69.44V22.29l5.08-2.68h2.18V56h-7.26Zm0-15a6,6,0,0,0-.37-2.11,5.28,5.28,0,0,0-1-1.66,4.29,4.29,0,0,0-1.36-1.07,3.34,3.34,0,0,0-1.5-.38,3.15,3.15,0,0,0-1.88.65,5.66,5.66,0,0,0-1.57,1.79,10.42,10.42,0,0,0-1.07,2.7,13.55,13.55,0,0,0-.4,3.4,15.3,15.3,0,0,0,.46,3.81A13.42,13.42,0,0,0,123,49.92a7.46,7.46,0,0,0,1.82,2.2,3.47,3.47,0,0,0,2.21.82,3.22,3.22,0,0,0,.87-.13,4.46,4.46,0,0,0,.93-.36,6.68,6.68,0,0,0,.87-.55,4.9,4.9,0,0,0,.72-.72Z"/><rect x="151.05" y="49.87" width="20.26" height="5.95"/><path d="M158.25,55.74H151V22.05l5.08-2.68h2.19Z"/><circle class="cls-6" cx="144.36" cy="41.34" r="3.15"/><text class="cls-7" transform="translate(21.72 111.42)">Low-code<tspan x="0" y="21.6">plateform </tspan></text><path class="cls-8" d="M25.05,199.94a.36.36,0,0,1-.31-.16.37.37,0,0,1,.09-.51A104.28,104.28,0,0,1,47.4,187.5c9.86-3.68,17.58-4.08,23.59-1.2.91.43,1.84.95,2.74,1.45,3.16,1.77,6.44,3.6,9.45,2.16,2.48-1.19,3.33-3.89,4.24-6.76A18.24,18.24,0,0,1,90,177.39c2.15-2.74,5.95-4.12,11.62-4.23,5.13-.08,10.05,1.35,14.81,2.74,2.55.74,5.18,1.51,7.83,2a54.94,54.94,0,0,0,16.33.53c4.68-.47,10.58-1.49,14.71-5.24a18.24,18.24,0,0,0,3.38-4.25,5.11,5.11,0,0,1-.25-1.05,140.56,140.56,0,0,1-1.25-16.32c-.12-3.05-.24-6.2-.47-9.3a6,6,0,0,0-.76-3,6.14,6.14,0,0,0-2.47-1.78l-2.21-1.1c-4.26-2.1-8.29-4.09-12.44-6.38a53.16,53.16,0,0,1-6.06-3.79,2.28,2.28,0,0,1-1.11-1.34,1.28,1.28,0,0,1,.3-1,3.06,3.06,0,0,1,1.61-.94l.43-.15c2.34-.91,4.78-1.71,7.13-2.48l2.63-.88c4.65-1.56,9.3-3.14,13.63-4.62l3.31-1.13c7.84-2.69,15.95-5.46,24-8.11l2.86-.94c4.5-1.48,9-3,13.38-4.46C214,95.83,226.4,91.68,239.58,88a.87.87,0,0,1,.89.26.86.86,0,0,1,.13.92c-.56,1.27-.81,1.75-2,4l-1.32,2.6c-8,15.69-16.74,29.22-26.05,43.54-3.68,5.66-7.48,11.52-11.25,17.55-.2.31-.38.62-.57.91a31.82,31.82,0,0,1-2.81,4.08,1.48,1.48,0,0,1-1.79.39,20,20,0,0,1-2.72-1.64c-.62-.41-1.25-.84-2.07-1.33-2.27-1.36-4.47-2.86-6.6-4.32-1.07-.73-2.13-1.46-3.21-2.17s-2.38-1.52-3.55-2.22-2.42-1.48-3.63-2.29c-.3-.2-.7-.43-1.12-.67-1.42-.83-3.2-1.86-3.75-3.1-.63-1.43.75-2.45,3-4.14l.82-.61,2.05-1.57c.84-.65,1.71-1.32,2.59-2,4.77-3.52,9.66-7.06,14.39-10.48,4.89-3.53,9.93-7.18,14.86-10.82,5.46-4,10.22-7.65,14.57-11.07,2.5-2,4.94-3.92,7.24-5.81.64-.53,1.2-1,1.75-1.38.75-.58,1.45-1.13,2.3-1.87l.49-.4c.38-.31,1.16-1,1.84-1.54-.64.33-1.25.69-1.85,1l-.88.51c-4,2.28-7.34,4.41-11.14,6.91-2.69,1.76-5.37,3.44-7.95,5.07s-5.12,3.21-7.73,4.92l-15.82,10.36-15.89,10.43-9.38,6.17-.27.18a3.5,3.5,0,0,1-3,.87,9.74,9.74,0,0,1-2.14-1c-.25-.15-.5-.29-.74-.41l-18.91-10.08-.78-.37c-1.21-.54-2.45-1.11-2.41-2,0-.6.63-1.06,1.95-1.5.83-.28,1.7-.65,2.54-1l1.16-.48a.37.37,0,1,1,.28.68l-1.15.49c-.85.36-1.73.73-2.59,1-1.41.47-1.45.82-1.45.84,0,.36,1.33,1,2,1.27.31.14.6.27.82.39l18.92,10.07c.25.13.5.28.76.43a10.13,10.13,0,0,0,2,1c.85.25,1.59-.25,2.37-.78l.28-.18,9.39-6.17,15.89-10.43,15.82-10.36c2.61-1.71,5.21-3.35,7.73-4.93s5.26-3.3,7.94-5.06c3.82-2.51,7.18-4.65,11.18-6.93l.88-.51a27.19,27.19,0,0,1,3.35-1.77c.14-.06.54-.23.74.1s.28.47-3.24,3.37c-.22.19-.4.33-.47.4-.87.74-1.58,1.3-2.34,1.88-.54.42-1.09.85-1.73,1.37-2.31,1.9-4.75,3.86-7.25,5.83-4.36,3.42-9.13,7-14.59,11.08-4.93,3.64-10,7.29-14.86,10.82-4.73,3.42-9.62,7-14.39,10.48-.87.64-1.74,1.31-2.58,2l-2,1.57-.83.62c-2.15,1.59-3.17,2.39-2.79,3.24.45,1,2.18,2,3.45,2.76.43.25.83.48,1.15.7,1.2.79,2.42,1.54,3.61,2.26s2.38,1.45,3.57,2.24,2.15,1.45,3.22,2.18c2.12,1.45,4.31,2.95,6.56,4.3.84.5,1.51,1,2.1,1.35a23.37,23.37,0,0,0,2.64,1.59.76.76,0,0,0,.89-.2,33,33,0,0,0,2.75-4l.57-.91c3.77-6,7.58-11.9,11.26-17.57,9.29-14.3,18.07-27.81,26-43.46L238,92.85c1.18-2.32,1.4-2.74,2-4a.13.13,0,0,0,0-.13.11.11,0,0,0-.12,0c-13.17,3.7-25.54,7.85-38.64,12.24-4.37,1.47-8.89,3-13.39,4.46l-2.86,1c-8,2.65-16.11,5.42-24,8.1l-3.31,1.13L144,120.2l-2.64.87c-2.34.77-4.77,1.57-7.1,2.47l-.46.17a2.51,2.51,0,0,0-1.25.67c-.18.25-.16.39-.15.44.05.32.54.66.8.84a52.59,52.59,0,0,0,6,3.75c4.14,2.29,8.15,4.27,12.41,6.37l2.21,1.09a7,7,0,0,1,2.76,2,6.82,6.82,0,0,1,.88,3.37c.23,3.1.35,6.27.47,9.32a141.05,141.05,0,0,0,1.24,16.24,2,2,0,0,1,0,.24,56.86,56.86,0,0,0,2.78-6.26l4.75-12c.26-.63.68-1.7,2-1.56a2.66,2.66,0,0,1,1.28.52l5.79,3.88c.73.53,1.83,1.33,1.46,2.32A5.46,5.46,0,0,1,176,156.9l-13.61,12.57a2.61,2.61,0,0,1-2.3.67,2,2,0,0,1-.91-.46,18.48,18.48,0,0,1-3.33,4.11c-4.29,3.9-10.34,5-15.13,5.42a55.75,55.75,0,0,1-16.55-.53c-2.69-.54-5.34-1.32-7.9-2.07-4.92-1.44-9.57-2.79-14.59-2.71-5.43.1-9,1.39-11,3.95a17.42,17.42,0,0,0-2.47,5.52c-.92,2.89-1.86,5.88-4.63,7.21-3.36,1.6-6.8-.32-10.13-2.18-.89-.5-1.81-1-2.7-1.44-5.82-2.77-13.35-2.37-23,1.24a102.49,102.49,0,0,0-22.4,11.68A.42.42,0,0,1,25.05,199.94ZM159.54,169a1.09,1.09,0,0,0,.67.41,1.83,1.83,0,0,0,1.64-.49l13.61-12.57a5,5,0,0,0,1.15-1.6c.17-.46-.69-1.08-1.2-1.46l-.07,0-5.71-3.83a1.94,1.94,0,0,0-.93-.39c-.74-.08-1,.39-1.27,1.1l-4.75,12A52.31,52.31,0,0,1,159.54,169Z"/><text class="cls-9" transform="translate(36.55 228.57)">for front-end development</text></g></g></svg>