<svg xmlns="http://www.w3.org/2000/svg" xmlns:xlink="http://www.w3.org/1999/xlink" viewBox="0 0 369.38 259.76"><defs><style>.cls-1{fill:#fff;stroke:#000;stroke-miterlimit:10;stroke-width:4px;}.cls-2{fill:#1f132c;}.cls-3{fill-rule:evenodd;fill:url(#GradientFill_2);}.cls-4{fill:url(#GradientFill_2-2);}.cls-5{fill:url(#GradientFill_2-3);}.cls-6{fill:url(#GradientFill_2-4);}.cls-7{fill:url(#GradientFill_2-5);}.cls-8{fill:url(#GradientFill_2-6);}</style><linearGradient id="GradientFill_2" x1="-263.94" y1="244.16" x2="-263.69" y2="192.94" gradientTransform="matrix(-1, 0, 0, 1, -170.23, 0)" gradientUnits="userSpaceOnUse"><stop offset="0" stop-color="#e6973e"/><stop offset="1" stop-color="#d53731"/></linearGradient><linearGradient id="GradientFill_2-2" x1="159.66" y1="223.14" x2="168.49" y2="223.14" gradientTransform="matrix(1, 0, 0, 1, 0, 0)" xlink:href="#GradientFill_2"/><linearGradient id="GradientFill_2-3" x1="309.27" y1="188.89" x2="318.1" y2="188.89" gradientTransform="matrix(1, 0, 0, 1, 0, 0)" xlink:href="#GradientFill_2"/><linearGradient id="GradientFill_2-4" x1="50.27" y1="181.89" x2="59.1" y2="181.89" gradientTransform="matrix(1, 0, 0, 1, 0, 0)" xlink:href="#GradientFill_2"/><linearGradient id="GradientFill_2-5" x1="30.27" y1="23.89" x2="39.1" y2="23.89" gradientTransform="matrix(1, 0, 0, 1, 0, 0)" xlink:href="#GradientFill_2"/><linearGradient id="GradientFill_2-6" x1="313.27" y1="29.89" x2="322.1" y2="29.89" gradientTransform="matrix(1, 0, 0, 1, 0, 0)" xlink:href="#GradientFill_2"/></defs><g id="Calque_2" data-name="Calque 2"><g id="Calque_1-2" data-name="Calque 1"><rect class="cls-1" x="56.81" y="-52.81" width="255.76" height="365.38" rx="12" transform="translate(54.81 314.57) rotate(-90)"/><path class="cls-2" d="M249.34,77.49a13,13,0,0,0,2.49,10.27,7.79,7.79,0,0,0,1.69,1.65l16.36,11.84a8.71,8.71,0,0,0,1,.62,7.53,7.53,0,0,0,3.1,1.3c2.78.45,5.33-.74,7.8-2.59,1.6-1,1.54-3.4-.22-4.77l-13-10,0-.07.29.24.26-.3.18-.22,0,0c.15-.17.3-.33.44-.51l3.17-.3,2.71,2.5a1.12,1.12,0,0,0,.77.25,5.42,5.42,0,0,0,2.47-.91l-.61-.46a4.42,4.42,0,0,1-1.86.68.47.47,0,0,1-.3-.08c-.14-.12-.31-.8.48-2.5a20.77,20.77,0,0,1,2.95-4.44l-.52-.47-2.73-2.52-1.89-1.73-10.06-9.26,0,0L258.22,60a.83.83,0,0,1-.26-.59.79.79,0,0,1,.25-.58l1.38-1.47a.81.81,0,0,1,1.07,0L266.83,63l10.06,9.22L278.77,74l2.77,2.54.15-.14-.15.14.52.47c2.19-2,4.13-3.09,5.06-3.09a.47.47,0,0,1,.3.08c.13.11.28.73-.35,2.2l.54.49a4.51,4.51,0,0,0,.57-2.7,1.07,1.07,0,0,0-.29-.52l-2.64-2.57.18-3.53.45-.49,0,0,7,7.29,1.87,1.94.93,1,.47.48.23.25.28.26a4.34,4.34,0,0,0,1.38.84,4,4,0,0,0,1.58.24,4.23,4.23,0,0,0,.68-.12,2.4,2.4,0,0,0,2-1.36,12.61,12.61,0,0,0,2-5.44,8.16,8.16,0,0,0-.26-3.54,6.69,6.69,0,0,0-.39-1,8,8,0,0,0-.63-1.1,7.58,7.58,0,0,0-.71-.9l-.74-.8-2.24-2.42-.71-.76c-2-2.1-3.94-4.21-5.94-6.3l-3-3.14c-.5-.52-1-1.05-1.51-1.56a7.9,7.9,0,0,0-1.74-1.3,7.83,7.83,0,0,1,1.63,1.4l1.4,1.65,2.82,3.3q2.81,3.3,5.66,6.56l2.85,3.26.7.8a7.81,7.81,0,0,1,.6.82,6.41,6.41,0,0,1,.68,1.36c-3.12,2.16-9.5-.67-16.36-4.73a.68.68,0,0,0,.13-.18.77.77,0,0,0,.1-.49s0,0,0,0a.83.83,0,0,0-.25-.48L272.84,49.73a15.19,15.19,0,0,1,5.78-1.92,12.53,12.53,0,0,1,4,.19,14.58,14.58,0,0,1,3.79,1.41,13.61,13.61,0,0,0-3.73-1.67,12.87,12.87,0,0,0-4.1-.42,14.65,14.65,0,0,0-4.08.82,17.84,17.84,0,0,0-2.28,1,4.33,4.33,0,0,0-4.94-.6c-.63-.59-1.25-1.19-1.87-1.81-1.68-1.62-3.4-3.22-5.18-4.75s-3.62-3-5.53-4.36a45.1,45.1,0,0,0-12.38-6.54A47.08,47.08,0,0,1,254.42,38c1.85,1.41,3.63,2.92,5.35,4.49s3.42,3.17,5.07,4.82c.79.83,1.61,1.63,2.44,2.43a8.36,8.36,0,0,0,.84,1l15.23,14.45.78.75-.39,0-17.95-17c-9.3-9.4-16.65-14.69-23.86-17.17a21.41,21.41,0,0,0-7.8-1.27,9.2,9.2,0,0,0-3.75.92,17,17,0,0,1,8.62,0,13.13,13.13,0,0,0-3.56,1.66,17.37,17.37,0,0,0-3.48,3c-.35.39-.69.81-1,1.24a23.74,23.74,0,0,1-1.8-4.84c0,2,.29,4,2,8.06.24.58.52,1.19.84,1.8a3.27,3.27,0,0,0,0,.44,7.06,7.06,0,0,0,.09,1,26.44,26.44,0,0,1-1.62-3.16,22.94,22.94,0,0,1-1.57-7.31c-1,2.36-.68,6.1,1,10.69,2.75,6.48,9.63,14.52,19.38,22.65l18.71,15.85a8.31,8.31,0,0,1,.89-2.75L250.94,64.82A104.6,104.6,0,0,1,235.6,49.2a7.48,7.48,0,0,0,1.64,1.1,104.34,104.34,0,0,0,13.64,13.44l18.28,15.48L270,77.8l-8.45-7.16c.48-.9,1-1.78,1.59-2.64l8.72,7.3a1.63,1.63,0,0,0,.4.24c-2.34,3.09-4,6.21-3.95,8.12L253,70.73l-4.07-3.42c-1.35-1.14-2.7-2.28-4-3.46-2.62-2.36-5.14-4.84-7.51-7.43-1.18-1.31-2.32-2.64-3.39-4-.55-.69-1.05-1.41-1.56-2.12s-1-1.45-1.43-2.21-.86-1.52-1.27-2.29l-.55-1.17c-.16-.41-.31-.81-.45-1.23a24.19,24.19,0,0,1-1.19-5.08,10.31,10.31,0,0,1,.47-5.09,4.23,4.23,0,0,1,.27-.57,4.09,4.09,0,0,1,.33-.54,2.91,2.91,0,0,1,.92-.82,8.05,8.05,0,0,1,2.38-1,11.24,11.24,0,0,1,2.59-.37,17.79,17.79,0,0,1,2.63.09,24.29,24.29,0,0,1,5.18,1.11,24.66,24.66,0,0,0-5.15-1.32,17,17,0,0,0-2.67-.17,11.5,11.5,0,0,0-2.67.29,8.29,8.29,0,0,0-2.53,1l-.18.11-7-5.21-.31-.23.26.28L228,32.19l-.11.18a4.37,4.37,0,0,0-.31.61,11,11,0,0,0-.68,5.37A25.44,25.44,0,0,0,228,43.61c.13.43.28.86.44,1.28l.55,1.24c.4.8.8,1.61,1.26,2.38.31.55.65,1.08,1,1.61l.44.67c.51.73,1,1.48,1.55,2.19,1.06,1.44,2.2,2.81,3.37,4.16s2.39,2.65,3.64,3.92l1.2,1.17.26.25c.79.77,1.59,1.53,2.4,2.27,1.31,1.2,2.66,2.36,4,3.51l.39.33.4.35a4.38,4.38,0,0,0,1.47,5c0,.09-.07.18-.11.28A15.59,15.59,0,0,0,249.34,77.49Zm51.15.52a2.38,2.38,0,0,0,1-1.05,16.81,16.81,0,0,0,1.59-3.1,9.27,9.27,0,0,0,.62-3.43,8.68,8.68,0,0,1-.39,3.5,16.38,16.38,0,0,1-1.41,3.24,2.48,2.48,0,0,1-1.23,1.26.23.23,0,0,1-.3-.11s0,0,0,0A.24.24,0,0,1,300.49,78ZM269.43,49c-.41,0-.76-.05-.77-.19s.31-.3.72-.34.75,0,.77.2S269.84,48.91,269.43,49Zm-10.78,6.37c-.83.07-1.52-.1-1.55-.4s.62-.59,1.45-.67,1.52.1,1.55.4S259.48,55.24,258.65,55.32Zm27.31,17a7.43,7.43,0,0,0-5.78,1,8.21,8.21,0,0,1,4-2.19,1.14,1.14,0,0,1,.71.15Zm-1.16-2.46,0,.5a2.6,2.6,0,0,0-.63,0A7.37,7.37,0,0,0,280.53,72C281.66,70.71,283.6,69.71,284.8,69.83ZM234.13,47.2a6,6,0,0,1-1.69-5,9.1,9.1,0,0,1,2.63-5.54,9,9,0,0,1,6.28-2.82,5.82,5.82,0,0,1,4.18,1.61,6,6,0,0,1,1.7,5A9.15,9.15,0,0,1,244.59,46a8.92,8.92,0,0,1-6.28,2.83A5.86,5.86,0,0,1,234.13,47.2Zm26.35,22.54-8.63-7.31c-2.91-2.43-5.59-4.91-8-7.36a23.24,23.24,0,0,1,3.24-5.25,26.79,26.79,0,0,1,4.57-4.46,14.4,14.4,0,0,1,5.74-2.81,14.53,14.53,0,0,0-6,2.43,27.27,27.27,0,0,0-5,4.23A24.88,24.88,0,0,0,242.84,54q-1.6-1.7-3.05-3.35c1.51-.23,3.36-1.23,5.79-3.48,6.6-6.63,2.79-9.69-.08-12.37l.36.34a6.35,6.35,0,0,0-4.51-1.75,9.41,9.41,0,0,0-6.61,3,10.29,10.29,0,0,0-2.26,3.54l-.12.38-.53-1c-.16-.33-.31-.64-.46-.93a18.81,18.81,0,0,1,1.13-1.67,17,17,0,0,1,3.14-3.15,13.32,13.32,0,0,1,3.44-1.92C244,32.8,249.41,35.69,254.77,40c1.94,1.56,3.26,2.55,5,4.07,7,6.19,14.37,13.66,23.93,22-1.81.3-4.19,1.91-6.55,4.08a1.18,1.18,0,0,0-.24-.31l-8.29-8.2.25-.24a19.2,19.2,0,0,1,5-3.42A19.3,19.3,0,0,0,268.55,61l-.31.25-6.49-6.41a4.6,4.6,0,0,0-6.05,6.9l6.56,5.49A29.22,29.22,0,0,0,260.48,69.74Zm20.35,29-.18.12a11.2,11.2,0,0,1-6,2.62,7.41,7.41,0,0,1-1.49-.08,7.08,7.08,0,0,1-3-1.3l-11.35-8.21C266.9,97.14,273.69,103,280.83,98.76Z"/><path class="cls-2" d="M279,48.69a12.72,12.72,0,0,0-2.18.31c7.67-.61,10.7,3.69,14.29,6.87-2.49-2.78-4.21-4.77-5.32-5.46A11.09,11.09,0,0,0,279,48.69Z"/><path class="cls-2" d="M304.23,148.31c10.22-24.52,2.91-54.43-18.11-72.38a5.25,5.25,0,0,0-2.29,1.12l-.11.09-.13.1c-.22.16-.44.34-.66.52l9.63,8.83a1.28,1.28,0,0,1,.4.93,1.26,1.26,0,0,1-.38.93l-.79.77a1.31,1.31,0,0,1-1.78,0l-9.67-8.91-.48.58-.05,0-.05.07-.4.53c22.82,19.91,30.21,42.56,19,71,9.95-27.54,0-53.62-20.1-69.36a4.77,4.77,0,0,0-.61,1.67c9.24,6.63,16.55,17,20.57,29.12,4.09,12.36,4.31,25.29.6,36.41a45.6,45.6,0,0,1-19.77,24.73c-7.9,4.84-17.56,7.84-28.84,9,12-.86,22.54-4.07,31.54-9.59l.06,0a56.5,56.5,0,0,0,4.76-3.28c17.14-14.93,26.4-48,12.09-73.77A60.18,60.18,0,0,1,304.23,148.31Z"/><path class="cls-2" d="M244.29,37.27a3.61,3.61,0,0,0-2.89-.86,7.17,7.17,0,0,0-4.57,2.18,6.94,6.94,0,0,0-2.09,4.22,3.52,3.52,0,0,0,.95,3.06,4,4,0,0,0,3,1,7.22,7.22,0,0,0,4.58-2.18,7,7,0,0,0,2.09-4.22A3.81,3.81,0,0,0,244.29,37.27Zm-3.47,1.23c-1.13,0-2-.24-2.06-.63s.88-.73,2-.77,2,.24,2.06.63S241.94,38.46,240.82,38.5Z"/><path class="cls-2" d="M234.39,42.78a7.31,7.31,0,0,1,2.19-4.43,7.54,7.54,0,0,1,4.81-2.28,4.06,4.06,0,0,1,3.18,1c-4.35-5.08-14.75,4-9,9.17A4.13,4.13,0,0,1,234.39,42.78Z"/><path class="cls-2" d="M235.33,37.42a.23.23,0,0,0,.23-.26.24.24,0,0,0-.26-.24.26.26,0,0,0-.24.27A.26.26,0,0,0,235.33,37.42Z"/><path class="cls-2" d="M237.68,35.65a.25.25,0,0,0,.23-.26.24.24,0,0,0-.26-.24.25.25,0,0,0-.24.26A.26.26,0,0,0,237.68,35.65Z"/><path class="cls-2" d="M240.05,34.83a.26.26,0,0,0,.24-.27.26.26,0,0,0-.51,0A.26.26,0,0,0,240.05,34.83Z"/><path class="cls-2" d="M242.46,34.7a.26.26,0,0,0,.24-.27.25.25,0,0,0-.27-.23.25.25,0,0,0,0,.5Z"/><path class="cls-2" d="M244.57,35.75a.26.26,0,0,0,.24-.27.26.26,0,0,0-.27-.23.25.25,0,0,0-.24.26A.26.26,0,0,0,244.57,35.75Z"/><path class="cls-2" d="M246.06,37.52a.25.25,0,0,0,.23-.27A.23.23,0,0,0,246,37a.25.25,0,0,0-.24.26A.26.26,0,0,0,246.06,37.52Z"/><path class="cls-2" d="M246.79,40.12a.24.24,0,0,0,.24-.26.25.25,0,1,0-.5,0A.25.25,0,0,0,246.79,40.12Z"/><path class="cls-2" d="M246.09,42.43a.26.26,0,0,0-.23.27.25.25,0,0,0,.26.23.24.24,0,0,0,.24-.26A.26.26,0,0,0,246.09,42.43Z"/><path class="cls-2" d="M244.38,45.14a.24.24,0,0,0-.24.26.25.25,0,1,0,.5,0A.24.24,0,0,0,244.38,45.14Z"/><path class="cls-2" d="M241.72,47.11a.26.26,0,0,0-.23.27.25.25,0,0,0,.5,0A.26.26,0,0,0,241.72,47.11Z"/><path class="cls-2" d="M238.75,47.88a.26.26,0,0,0-.24.26.26.26,0,1,0,.24-.26Z"/><path class="cls-2" d="M236,47.42a.26.26,0,0,0-.23.27.23.23,0,0,0,.26.23.24.24,0,0,0,.24-.26A.26.26,0,0,0,236,47.42Z"/><path class="cls-2" d="M234,45.88a.26.26,0,0,0-.24.27.25.25,0,0,0,.26.23.24.24,0,0,0,.24-.26A.25.25,0,0,0,234,45.88Z"/><path class="cls-2" d="M233,43.86a.25.25,0,0,0-.24.26.26.26,0,0,0,.27.24.25.25,0,0,0,.23-.26A.24.24,0,0,0,233,43.86Z"/><path class="cls-2" d="M233.13,41.86a.25.25,0,0,0-.26-.24.26.26,0,0,0-.24.27.26.26,0,0,0,.27.24A.26.26,0,0,0,233.13,41.86Z"/><path class="cls-2" d="M233.93,39.44a.26.26,0,0,0-.27-.24.25.25,0,0,0-.23.26.24.24,0,0,0,.26.24A.25.25,0,0,0,233.93,39.44Z"/><path class="cls-2" d="M264.59,65.36,290.25,89a.92.92,0,0,0,.64.25,1,1,0,0,0,.66-.26l.78-.77a.92.92,0,0,0,.27-.49.9.9,0,0,0-.15-.71.64.64,0,0,0-.13-.15l-25.73-23.6Z"/><path class="cls-2" d="M263.88,70.07a.42.42,0,0,1-.83,0,.42.42,0,0,1,.39-.44h.08a.55.55,0,0,0-.18,0,.57.57,0,1,0,.48.22A.31.31,0,0,1,263.88,70.07Z"/><path class="cls-2" d="M270.89,61.62a.42.42,0,0,1-.39.44.42.42,0,0,1-.44-.39.42.42,0,0,1,.39-.44h.08l-.18,0a.57.57,0,0,0-.53.6.57.57,0,0,0,1.13-.06.6.6,0,0,0-.12-.32A.6.6,0,0,1,270.89,61.62Z"/><path class="cls-2" d="M246,54.79a.42.42,0,0,1-.39.44.42.42,0,0,1-.05-.83h.08a.55.55,0,0,0-.18,0A.55.55,0,0,0,245,55a.57.57,0,1,0,1.13-.06.54.54,0,0,0-.12-.31A.48.48,0,0,1,246,54.79Z"/><path class="cls-2" d="M248.81,50.38a.42.42,0,1,1-.83,0,.41.41,0,0,1,.39-.43.22.22,0,0,1,.08,0,.5.5,0,0,0-.17,0,.57.57,0,0,0-.54.6.56.56,0,0,0,.6.53.55.55,0,0,0,.53-.59.59.59,0,0,0-.11-.32A.41.41,0,0,1,248.81,50.38Z"/><path class="cls-2" d="M252.77,46.55a.42.42,0,0,1-.39.44.42.42,0,1,1,0-.83h.08l-.17,0a.57.57,0,0,0-.54.6.56.56,0,0,0,.6.53.55.55,0,0,0,.53-.59.59.59,0,0,0-.11-.32A.41.41,0,0,1,252.77,46.55Z"/><path class="cls-2" d="M256.93,44.46a.56.56,0,0,0,.54-.59.6.6,0,0,0-.12-.32.33.33,0,0,1,.06.19.42.42,0,1,1-.44-.39h.08a.55.55,0,0,0-.18,0,.57.57,0,0,0,.06,1.13Z"/><path class="cls-2" d="M232.93,37.84a.42.42,0,0,1-.83,0,.42.42,0,0,1,.39-.44h.07l-.17,0a.57.57,0,0,0-.53.6.55.55,0,0,0,.59.53A.56.56,0,0,0,233,38a.6.6,0,0,0-.12-.32A.6.6,0,0,1,232.93,37.84Z"/><path class="cls-2" d="M239.49,32.54a.42.42,0,0,1-.39.44.42.42,0,0,1-.44-.4.41.41,0,0,1,.39-.43h.08l-.17,0a.57.57,0,0,0-.54.6.56.56,0,0,0,.6.53.55.55,0,0,0,.53-.59.6.6,0,0,0-.12-.32A.33.33,0,0,1,239.49,32.54Z"/><path class="cls-2" d="M235.78,34.67a.42.42,0,0,1-.83,0,.42.42,0,0,1,.39-.44h.08a.49.49,0,0,0-.17,0,.56.56,0,0,0-.54.59.57.57,0,1,0,1.13-.06.55.55,0,0,0-.11-.31A.37.37,0,0,1,235.78,34.67Z"/><path class="cls-2" d="M273.29,59.27a.56.56,0,0,0,.6.53.55.55,0,0,0,.53-.59.6.6,0,0,0-.12-.32.33.33,0,0,1,.06.19.42.42,0,1,1-.44-.39H274a.55.55,0,0,0-.18,0A.56.56,0,0,0,273.29,59.27Z"/><path class="cls-2" d="M162.08,52.5l-.19.07-3.57,1.12-3.76,1.21c-2.41.79-4.78,1.59-7.15,2.42a18.32,18.32,0,0,0-3.47-2.23,20.79,20.79,0,0,0-5.46-1.78,27.39,27.39,0,0,0-5.71-.39,35.72,35.72,0,0,0-5.66.69,37.1,37.1,0,0,1,5.66-.43,26.47,26.47,0,0,1,5.62.57,20.19,20.19,0,0,1,5.26,1.91,18.13,18.13,0,0,1,3.14,2.14,1.46,1.46,0,0,0-.18.38c-3.87-3.15-8.7-4.64-14.83-4.24a38.27,38.27,0,0,0-4.45.58,7.89,7.89,0,0,1,1.53-1,8,8,0,0,0-1.69,1.06l-1.72.36a69.57,69.57,0,0,0-21.12,9.41c.16-.33.33-.65.52-1l.35-.25,1-.68c.71-.45,1.43-.9,2.15-1.33a67.42,67.42,0,0,1,9-4.51q2.34-1,4.76-1.71c1.62-.5,3.25-.93,4.91-1.27a50.79,50.79,0,0,0-9.82,2.6A69.09,69.09,0,0,0,108,60.46c-.74.41-1.48.84-2.21,1.27l-1.09.68-.27.18a4.44,4.44,0,0,0-5.64-.05L87,71a23.16,23.16,0,0,0-3.63,0,27.33,27.33,0,0,1,3.74.29,31.71,31.71,0,0,1,3.61.76l-.38,1.65L90,73.51c-.37-.1-.9-.23-1.54-.36s-1.39-.25-2.2-.35c-.41,0-.82-.08-1.25-.1s-.87,0-1.3,0-.87,0-1.29.06-.85.08-1.25.15-.79.15-1.15.24-.69.21-1,.3-.58.23-.83.32a5,5,0,0,0-.61.3l-.53.28.54-.26a4.75,4.75,0,0,1,.62-.27,8.7,8.7,0,0,1,.83-.3c.31-.07.64-.2,1-.26s.74-.15,1.14-.19.82-.08,1.24-.1.85,0,1.28,0,.86,0,1.28.08.83.09,1.23.14c.79.13,1.53.27,2.15.42s1.14.31,1.49.41l.38.13.26-.19L79.89,81.27c0,.08,0,.17,0,.26a.29.29,0,0,0,0,.09,1.21,1.21,0,0,0,0,.18l0,.1a.87.87,0,0,0,.07.17.37.37,0,0,0,0,.11l.08.17.07.11a1.4,1.4,0,0,0,.1.16l0,0L76.13,85,74,86.25l-.54.3a3,3,0,0,1-.49.21,3.1,3.1,0,0,1-1.06.16,5.78,5.78,0,0,1-2.2-.59A7.94,7.94,0,0,1,67.73,85a3,3,0,0,1-.65-4,4.24,4.24,0,0,1,.7-.88c.26-.25.62-.51.93-.77l1.93-1.58,3.87-3.14,1-.78c.32-.26.63-.53,1-.77A9.86,9.86,0,0,1,78.58,72a16.07,16.07,0,0,1,4.81-1.07,15.07,15.07,0,0,0-4.92.78,10.2,10.2,0,0,0-2.28,1.1c-.72.47-1.34,1-2,1.49l-4,3-2,1.5c-.33.26-.65.48-1,.79a4.86,4.86,0,0,0-.87,1,4.12,4.12,0,0,0-.59,2.67,4.18,4.18,0,0,0,1.32,2.4,6.31,6.31,0,0,0,1,.83,8,8,0,0,0,1.14.65,6.54,6.54,0,0,0,2.58.69,3.9,3.9,0,0,0,1.39-.19,3.44,3.44,0,0,0,.65-.28l.55-.31,2.17-1.21,4-2.23c-.67,1.74-.31,4.54,1.12,7.26S85.18,95.53,87,96l-1.51.59-4.86,1.9h0a7.42,7.42,0,0,0-1.48.9,4.65,4.65,0,0,0-1.16,1.37,5,5,0,0,0-.37.82,5.25,5.25,0,0,0-.21.87,7.25,7.25,0,0,0-.07,1.74c0,.28.07.56.11.85s.1.55.17.83a5.3,5.3,0,0,0,.68,1.65,2.92,2.92,0,0,0,1.5,1.16,4.91,4.91,0,0,0,1.77.29,5.24,5.24,0,0,0,.88-.08l.81-.15,1.6-.3,3.19-.62c2.13-.4,4.26-.84,6.39-1.26h0a10.5,10.5,0,0,0,3.17-1.92,18,18,0,0,0,2.5-2.66,27.22,27.22,0,0,0,3.45-5.89l.15-.36a4.87,4.87,0,0,0,1.14-.32l1.56-.43c2.91-.82,7.23-2,7.92-2.16a4.9,4.9,0,0,0,3-2.38l.54-.17,1.36-.49a86.73,86.73,0,0,0,10.41-4.69,55.4,55.4,0,0,0,9.53-6.34,30.25,30.25,0,0,0,7.36-8.82,20.28,20.28,0,0,0,1.95-5.45,19.52,19.52,0,0,0,.37-3.81q3.26-2,6.5-4l3.38-2.11,1.69-1.07.84-.52a6.78,6.78,0,0,1,.87-.48Zm-14.77,8c-2.88,9.29-13.88,16.8-24,21.83a5.8,5.8,0,0,0,1.11-1.39c9.33-4.8,19.43-11.78,22.77-20.6Zm-21-4.76a40.08,40.08,0,0,1,6.37-1c5.65-.37,10.19.85,13.91,3.47a1.63,1.63,0,0,0-.07.3,2.26,2.26,0,0,0,.55,1.73C143.81,66,137.75,71,131.26,75.05a15.93,15.93,0,0,1-4-4.21,17.83,17.83,0,0,1-2.55-5.94,12.85,12.85,0,0,1,.1-6.46,8.63,8.63,0,0,1,1.38-2.7Zm-.39.1a9.08,9.08,0,0,0-1.41,2.55,13.2,13.2,0,0,0-.4,6.66,18.59,18.59,0,0,0,2.37,6.3,17,17,0,0,0,3.73,4.38c-1.7,1-3.43,2-5.13,2.91a13.84,13.84,0,0,0-2-7.94c-2.79-5.13-7-8.32-11.22-6l-2.53,1.48c-4,2.4-5.08,8.28-2.35,13.3.11.21.23.41.36.61l.09.15q.18.28.36.54l0,0,.41.54.11.14.39.45.06.06c.15.17.31.32.46.48l.12.11.42.37.08.08.51.4.12.08c.14.11.29.21.44.31l.1.07.54.32.12.06a4,4,0,0,0,.46.24l-.07,0-2.19.83a21.1,21.1,0,0,1-3.82-4.44A19.86,19.86,0,0,1,103.5,75a17.1,17.1,0,0,1-.45-6.41,14.18,14.18,0,0,1,.58-2.5A71.58,71.58,0,0,1,125.93,55.8ZM119.41,84a6.89,6.89,0,0,1-3.29.82c-3.35,0-6.74-2.24-8.62-5.71a11.13,11.13,0,0,1-1.26-7.39,7.41,7.41,0,0,1,3.64-5.26,6.86,6.86,0,0,1,3.29-.82c3.35,0,6.73,2.24,8.62,5.71C124.41,76.2,123.35,81.88,119.41,84ZM94.72,71.72a.44.44,0,0,1,.62-.07.44.44,0,0,1,.1.61.43.43,0,0,1-.61.07A.44.44,0,0,1,94.72,71.72Zm-.89,1.58a1,1,0,1,1,.23,1.37A1,1,0,0,1,93.83,73.3ZM83.39,90c-1.26-2.42-1.43-4.56-1-5.63l-.28-.17a4.77,4.77,0,0,0,.43.25l.06,0a4.32,4.32,0,0,0,.45.19l5.38-3c0,.15,0,.3,0,.45a14.41,14.41,0,0,0,1.32,5.09,17,17,0,0,0,2.85,4.24c.09.11.19.22.29.32l-4.51,1.59-.4-.28A13.31,13.31,0,0,1,86.65,92a12.85,12.85,0,0,1-1.72-2,11,11,0,0,1-1.25-2.31A10.83,10.83,0,0,1,83,85.16a10.71,10.71,0,0,0,1.48,5.15,13.7,13.7,0,0,0,1.24,1.8c.12.14.23.28.36.42A13.94,13.94,0,0,0,87.68,94l-.06.26C86.7,94.13,84.83,92.79,83.39,90Zm10.22,15-12.44,2.53a5,5,0,0,1-1.59-.06,2.06,2.06,0,0,1-.52-.54,6.79,6.79,0,0,1-.79-2.87,6.9,6.9,0,0,1,0-1.51,6.09,6.09,0,0,1,.17-.71,4.88,4.88,0,0,1,.29-.66,3.76,3.76,0,0,1,.93-1.1A6.42,6.42,0,0,1,81,99.34l4.81-2,2-.81a5.62,5.62,0,0,0,.85,1.67l13-3.53C100.66,97.69,97.21,104.08,93.61,105ZM103.9,91.28a.78.78,0,0,1-1,.56.79.79,0,0,1-.59-1,.8.8,0,0,1,1.55.39Zm1.13.37a.4.4,0,1,1-.29-.48A.41.41,0,0,1,105,91.65Zm42.54-27.39a19.45,19.45,0,0,1-2,5.14,29,29,0,0,1-7.22,8.34A55.72,55.72,0,0,1,129,83.81a88.75,88.75,0,0,1-10.28,4.52c-.44.17-.87.32-1.3.47l-1.35.41-2.71.82-4.79,1.45-.42.13a12.93,12.93,0,0,0-4.72-2.39,6.09,6.09,0,0,0-3.68.12l-5.88,2.07-.35-.3A16.06,16.06,0,0,1,90.15,87a13.8,13.8,0,0,1-1.69-4.9c0-.14,0-.28,0-.42L94,78.51l.14-.07a4.9,4.9,0,0,0,1.24-1,4.74,4.74,0,0,0,.57-.88,14.18,14.18,0,0,0,.81-2.06,10.83,10.83,0,0,0,.47-3.9,1.32,1.32,0,0,0-.75-1.12l.35-.25,3.26-2.37,4.11-3,.62-.44c-.2.31-.39.64-.56,1-.56.37-1.12.74-1.67,1.12l-5.39,4a1.78,1.78,0,0,1,.42,1l5.67-4.21.21-.14a14,14,0,0,0-.6,2.37,17.11,17.11,0,0,0,.27,6.53,22.56,22.56,0,0,0,2.41,6.12,22,22,0,0,0,3.38,4.48l-7.86,3c.24,0,.47,0,.71,0a6.14,6.14,0,0,1,1.76.25l.68.21,10.39-3.77-.37-.08.49.1.15,0a5.54,5.54,0,0,0,.57.07h.07l.52,0h.28l-2.64,1L105,89.37a11.88,11.88,0,0,1,3.2,1.79l9.1-2.77a77.62,77.62,0,0,0,17.11-8.54.63.63,0,0,0,.23-.16c6.89-4.78,12.56-11.13,12.94-19a1.88,1.88,0,0,0,.39.16A18.1,18.1,0,0,1,147.57,64.26Zm13.67-11.39-.58.29-13.27,6.09a1.16,1.16,0,0,1,.14-1.15c2.48-.89,4.95-1.82,7.39-2.75,1.23-.47,2.45-1,3.66-1.43l2.9-1.16Z"/><path class="cls-2" d="M109.62,78.06a8.73,8.73,0,0,1-.6-7.55,5,5,0,0,1,2.19-2.42l.45-.22a4.39,4.39,0,0,0-.84.35,5,5,0,0,0-2.18,2.43,8.74,8.74,0,0,0,.59,7.54c2,3.67,5.81,5.5,8.74,4.32C115.1,83.39,111.53,81.57,109.62,78.06Z"/><path class="cls-2" d="M112,67.76l-.11.06a5,5,0,0,0-2.18,2.43,8.74,8.74,0,0,0,.59,7.54c1.84,3.39,5.24,5.21,8.06,4.53a.2.2,0,0,0,.08,0,5,5,0,0,0,2.19-2.43,8.71,8.71,0,0,0-.6-7.54C118.22,68.93,114.83,67.1,112,67.76Zm4.31,3.31c-.12.36-.84.45-1.61.2s-1.28-.76-1.16-1.12.84-.46,1.6-.2S116.45,70.71,116.33,71.07Z"/><path class="cls-2" d="M108.23,78.53a.32.32,0,0,0-.42.16.33.33,0,0,0,.16.43.32.32,0,0,0,.42-.16A.32.32,0,0,0,108.23,78.53Z"/><path class="cls-2" d="M120.66,82a.32.32,0,0,0-.43.16.32.32,0,0,0,.17.42.32.32,0,1,0,.26-.58Z"/><path class="cls-2" d="M118.18,83.55a.32.32,0,0,0-.42.16.33.33,0,0,0,.16.43.32.32,0,0,0,.42-.17A.31.31,0,0,0,118.18,83.55Z"/><path class="cls-2" d="M115.4,83.87A.31.31,0,0,0,115,84a.32.32,0,1,0,.58.26A.31.31,0,0,0,115.4,83.87Z"/><path class="cls-2" d="M112.68,83a.32.32,0,0,0-.42.17.32.32,0,1,0,.58.26A.32.32,0,0,0,112.68,83Z"/><path class="cls-2" d="M110.19,81.17a.32.32,0,0,0-.42.16.33.33,0,0,0,.16.43.33.33,0,0,0,.43-.16A.33.33,0,0,0,110.19,81.17Z"/><path class="cls-2" d="M107.17,75.49a.32.32,0,0,0-.42.16.33.33,0,0,0,.16.43.33.33,0,0,0,.43-.17A.32.32,0,0,0,107.17,75.49Z"/><path class="cls-2" d="M107.12,72.6a.33.33,0,0,0-.16-.43.32.32,0,0,0-.42.17.31.31,0,0,0,.16.42A.32.32,0,0,0,107.12,72.6Z"/><path class="cls-2" d="M107.94,69.68a.33.33,0,0,0-.16-.43.32.32,0,0,0-.42.17.31.31,0,0,0,.16.42A.32.32,0,0,0,107.94,69.68Z"/><path class="cls-2" d="M109.47,67.68a.32.32,0,1,0-.16-.43A.33.33,0,0,0,109.47,67.68Z"/><path class="cls-2" d="M112.64,66.66a.32.32,0,0,0,.42-.16.32.32,0,0,0-.16-.43.32.32,0,0,0-.26.59Z"/><path class="cls-2" d="M116,67.41a.32.32,0,0,0,.42-.16.32.32,0,0,0-.16-.43.32.32,0,0,0-.42.16A.33.33,0,0,0,116,67.41Z"/><path class="cls-2" d="M119.1,69.49a.32.32,0,0,0,.43-.16.32.32,0,1,0-.43.16Z"/><path class="cls-2" d="M121.29,72.34a.31.31,0,0,0,.16.42.32.32,0,0,0,.26-.58A.31.31,0,0,0,121.29,72.34Z"/><path class="cls-2" d="M122.39,76.34a.31.31,0,0,0,.42-.16.32.32,0,0,0-.58-.26A.3.3,0,0,0,122.39,76.34Z"/><path class="cls-2" d="M122.08,79.94a.33.33,0,0,0,.43-.17.32.32,0,0,0-.16-.42.33.33,0,0,0-.43.16A.33.33,0,0,0,122.08,79.94Z"/><path class="cls-2" d="M68,82.1c-.09-.38.47-.93,1.16-1.7l-.72.56a3.06,3.06,0,0,0-1.13,1.7c-.1.49-.39,1.79,2.19,3.24a5.39,5.39,0,0,0,2.37.71,2.24,2.24,0,0,0,1.1-.27l6.8-3.83a2.6,2.6,0,0,1-.31-1.08C75.27,83,69.62,84.69,68,82.1Z"/><path class="cls-2" d="M80.69,107.26a4.2,4.2,0,0,0,.89-.12l12-2.59c2.82-1.1,5.28-4.62,7.39-9.29L93.16,97.5a25.24,25.24,0,0,1-13.11,9.72A3.39,3.39,0,0,0,80.69,107.26Z"/><path class="cls-2" d="M127.88,76.2a.65.65,0,0,0-.25-1.27.48.48,0,0,0-.18.07l.08,0a.47.47,0,1,1-.38.56.54.54,0,0,1,0-.22.6.6,0,0,0,0,.38A.65.65,0,0,0,127.88,76.2Z"/><path class="cls-2" d="M123.31,67.15a.56.56,0,0,0-.18.07l.08,0a.47.47,0,0,1,.55.38.46.46,0,0,1-.37.55.47.47,0,0,1-.56-.37.54.54,0,0,1,0-.22.68.68,0,0,0,0,.38.65.65,0,1,0,.51-.76Z"/><path class="cls-2" d="M102.41,78.75a.48.48,0,0,1-.56-.38.55.55,0,0,1,0-.22.7.7,0,0,0,0,.38.66.66,0,0,0,.76.52.65.65,0,0,0,.51-.76.66.66,0,0,0-.76-.52l-.18.07.08,0a.47.47,0,1,1,.18.93Z"/><path class="cls-2" d="M90.63,91.69a.66.66,0,0,0,.52-.76.65.65,0,0,0-.76-.51.44.44,0,0,0-.19.07l.08,0a.48.48,0,0,1,.56.38.47.47,0,0,1-.93.18.41.41,0,0,1,0-.22.6.6,0,0,0,0,.38A.63.63,0,0,0,90.63,91.69Z"/><path class="cls-2" d="M87.34,84.67a.65.65,0,1,0-.25-1.27.44.44,0,0,0-.19.07l.08,0a.48.48,0,0,1,.56.38.47.47,0,0,1-.93.18.41.41,0,0,1,0-.22.6.6,0,0,0,0,.38A.64.64,0,0,0,87.34,84.67Z"/><path class="cls-2" d="M106.53,86a.63.63,0,0,0,.51-.75.65.65,0,0,0-.76-.52,1,1,0,0,0-.18.07l.08,0a.47.47,0,0,1,.55.37.47.47,0,1,1-.93.18.55.55,0,0,1,0-.22.62.62,0,0,0,0,.38A.65.65,0,0,0,106.53,86Z"/><path class="cls-2" d="M101.36,70.89a.66.66,0,0,0,.52-.76.65.65,0,0,0-.76-.51.6.6,0,0,0-.19.06l.08,0a.48.48,0,0,1,.56.38.47.47,0,0,1-.93.18.44.44,0,0,1,0-.23.62.62,0,0,0,0,.38A.64.64,0,0,0,101.36,70.89Z"/><path class="cls-2" d="M123,59.3a.65.65,0,0,0,.51-.76.63.63,0,0,0-.75-.51.6.6,0,0,0-.19.06l.08,0a.48.48,0,0,1,.56.38.47.47,0,0,1-.93.18.4.4,0,0,1,0-.22.68.68,0,0,0,0,.38A.65.65,0,0,0,123,59.3Z"/><path class="cls-2" d="M51.17,117.88C55.4,106.42,65.84,95.6,79.6,88a6,6,0,0,1-.14-2.44c-41.78,22.69-47,66.74,6.44,84.1l-2.44-1.36C54.11,156.46,44.34,136.34,51.17,117.88Z"/><path class="cls-2" d="M59.48,110.77a55.79,55.79,0,0,1,10-10.61,73,73,0,0,1,11.72-7.87,9.74,9.74,0,0,1-1-2.13c-18.3,11.08-28.22,24.09-29.44,36.7-1.58,16.41,11.5,32.66,33.15,39.88l-.21-.31C46.44,149,45.66,113.7,84,95.21a7.47,7.47,0,0,1-2.1-1.95,71.1,71.1,0,0,0-11.84,7.59A55,55,0,0,0,60,111.12a34.74,34.74,0,0,0-6.14,13,29.55,29.55,0,0,0-.73,7.2,35,35,0,0,0,1,7.19,34.87,34.87,0,0,1-1.14-7.19,29.53,29.53,0,0,1,.59-7.26A35.13,35.13,0,0,1,59.48,110.77Z"/><path class="cls-2" d="M205.69,150.15a4.64,4.64,0,0,0-6.39,1.07,8.48,8.48,0,0,0-4.14-2.61l.5,20.29a14.19,14.19,0,0,1,1.38.62,7.82,7.82,0,0,1,3-2.72,8.71,8.71,0,0,1-1.25-4.49,8.81,8.81,0,0,1,8.8-8.8,8.71,8.71,0,0,1,4.58,1.3,15.69,15.69,0,0,1,5.41-8.27,9.11,9.11,0,0,1-.09-1.29,9.66,9.66,0,0,1,.62-3.42,2.76,2.76,0,0,0-5.31,1.06,3.07,3.07,0,0,0,.05.53A9.24,9.24,0,0,0,205.69,150.15Z"/><path class="cls-2" d="M152.25,149.14a10,10,0,0,1-.75,3.79,8.45,8.45,0,0,1,4.41,5.73,11.51,11.51,0,0,1,1.87-.15,11.9,11.9,0,0,1,11.68,9.64,11.1,11.1,0,0,1,4.46-.94l.48,0,.47-16.45a7.29,7.29,0,0,0-4.32,4.93,6,6,0,0,0-3.94-1.48l-.25,0a4.89,4.89,0,0,0,0-.54,7.84,7.84,0,0,0-4.91-7.28,2.76,2.76,0,0,0-2.46-4,2.72,2.72,0,0,0-1.94.8,4.73,4.73,0,0,0-8.05-1.44A10,10,0,0,1,152.25,149.14Z"/><path class="cls-2" d="M219.49,138.74a3.71,3.71,0,0,0,.47,0,10,10,0,0,1,2.93-2.23,3.5,3.5,0,0,0,.29-1.42,3.69,3.69,0,1,0-3.69,3.68Z"/><path class="cls-2" d="M224.58,130.1a1.53,1.53,0,1,0-1.53-1.52A1.52,1.52,0,0,0,224.58,130.1Z"/><circle class="cls-2" cx="169.39" cy="150.3" r="1.53"/><path class="cls-2" d="M151.9,135a1.6,1.6,0,1,0-1.6-1.6A1.6,1.6,0,0,0,151.9,135Z"/><path class="cls-2" d="M145,134.37a.67.67,0,1,0-.67-.67A.67.67,0,0,0,145,134.37Z"/><path class="cls-2" d="M204.69,146.81a.66.66,0,0,0-.66-.67.67.67,0,1,0,0,1.33A.66.66,0,0,0,204.69,146.81Z"/><path class="cls-2" d="M178.28,167.79l.15,0c.2-7.43.76-27.84.92-33.85-.67-.06-1.34-.13-2-.21C177.5,139.47,178.07,160.24,178.28,167.79Z"/><path class="cls-2" d="M177,167.17c-.29-7.5-.75-19.32-.75-19.32s-.44,11.58-.73,19.09A13.85,13.85,0,0,1,177,167.17Z"/><path class="cls-2" d="M181.05,150.15s.4-7.52.67-12.66l-.08-3.35c-.48,0-1-.06-1.43-.09C180.41,138,181.05,150.15,181.05,150.15Z"/><path class="cls-2" d="M182,170.72a16.74,16.74,0,0,1,1.76-1.1c-.34-8-.86-20-.86-20S182.35,162.82,182,170.72Z"/><path class="cls-2" d="M189.33,165.09s.61-25.09.75-31.05l-1.5.11C188.72,140.3,189.33,165.09,189.33,165.09Z"/><path class="cls-2" d="M184.51,144.44c.23,4.54.92,17.6.92,17.6s.72-13.67.94-17.9a3.09,3.09,0,0,1-1.39.33A3.59,3.59,0,0,1,184.51,144.44Z"/><path class="cls-2" d="M190.5,167.5c.66,0,1.31.07,1.94.14-.34-8.42-.93-23.49-1-23.94C191.43,144.15,190.84,159.06,190.5,167.5Z"/><path class="cls-2" d="M188.35,167.55c-.28-5.62-.68-13.41-.68-13.41l-.7,13.6A12.39,12.39,0,0,1,188.35,167.55Z"/><path class="cls-2" d="M193.55,133.64l-1.52.2c.17,3.07.75,12.77.75,12.77S193.39,136.46,193.55,133.64Z"/><path class="cls-2" d="M194,142.84s-.41,16-.64,24.8a9.1,9.1,0,0,1,1.29.18C194.42,159.1,194,142.84,194,142.84Z"/><path class="cls-2" d="M160.48,135.91a8.82,8.82,0,0,0,5.55,7l1.37.59a3.09,3.09,0,0,0,.54.17H168a3.17,3.17,0,0,0,.53.05,3,3,0,0,0,1.66-.5,3.13,3.13,0,0,0,.44-.36,2.24,2.24,0,0,0,.68-1.62l-.24-18.49h1.32v0l.14,0,1.32.27,1.13,3.76v5.88l.6.09c.69.11,1.39.2,2.08.28l.83.1,1.16.11c.9.08,1.8.14,2.7.19l.19,7.94a2.33,2.33,0,0,0,.2.92,2.36,2.36,0,0,0,.87,1,2.28,2.28,0,0,0,.85.35,2.61,2.61,0,0,0,.48.05h0a2.42,2.42,0,0,0,2.4-2.35l.19-7.92c.66,0,1.31-.07,2-.12l.72-.07,1.43-.14.65-.08c.68-.08,1.35-.18,2-.29h.08l.51-.09v-5.87l.17-.56.35-1.16.61-2,1.32-.26.14,0v0h1.31l-.23,18.49a2.13,2.13,0,0,0,.17.86,2.36,2.36,0,0,0,.51.76l.21.19a3,3,0,0,0,1.89.67l.29,0a2.84,2.84,0,0,0,.7-.16l.14,0,1.37-.59a8.82,8.82,0,0,0,5.55-7L212,113c.54-4.92-2.1-9.91-6.9-13l-.56-.36c0-.55.07-1,.1-1.3l0-.42a5,5,0,0,0,0-.54c0-.06,0-.12,0-.18l0-.33a1.55,1.55,0,0,0,0-.21c0-.09,0-.18-.05-.28l-.06-.22c0-.08,0-.16-.07-.24l-.09-.24-.09-.21-.12-.25-.09-.16c-.05-.09-.1-.18-.16-.27l-.08-.12c-.07-.09-.13-.19-.21-.28l0-.05a5,5,0,0,0-3.28-1.81c1.35-24-.19-42.95-14-54.31C186,34.69,185,21.66,185,21.66s-1,13-1.29,16.57c-13.78,11.36-15.32,30.33-14,54.31a3.24,3.24,0,0,0-.62.12l-.08,0a5.06,5.06,0,0,0-3.25,2.74,4.81,4.81,0,0,0-.2.53s0,.1,0,.14-.07.28-.1.42a1.29,1.29,0,0,0,0,.19c0,.14,0,.28,0,.42s0,.12,0,.18a4.16,4.16,0,0,0,0,.61s.05.65.13,1.74l-.56.36c-4.8,3.11-7.44,8.1-6.9,13Zm49.32-22.7-2.47,22.47a6.73,6.73,0,0,1-4.28,5.3l-1.37.59C206.18,138.56,207,130.8,209.8,113.21Zm-33.41,18.26v-3.84a48.39,48.39,0,0,0,5.82.64A11.3,11.3,0,0,1,176.39,131.47Zm10.53-29.81c-.79,12.17-1.79,23.45-3.12,33.25l-.82-34a2,2,0,0,1,2-2,1.92,1.92,0,0,1,1.39.59,2,2,0,0,1,.56,1.41ZM174.18,54.57A33.63,33.63,0,0,1,185,39a33.73,33.73,0,0,1,10.75,15.48c5.22,14.66,3.55,34.72,1.59,58.23q-.36,4.32-.72,8.8a59.86,59.86,0,0,1-7.44,1l.08-1.61v-.23l1.13-22.84A5.2,5.2,0,0,0,185,92.5h-.12a5.67,5.67,0,0,0-2.64.65,5.05,5.05,0,0,0-2.7,4.69l.38,7.63h-.71c-1,0-1.92,0-2.71-.13l-2.43-.16,2.41.36c.79.14,1.74.25,2.75.36l.71.07.74,15,.08,1.62a58.35,58.35,0,0,1-7.44-1q-.36-4.49-.72-8.82C170.66,89.24,169,69.21,174.18,54.57Zm-8.64,46.69c.51,6.72,1.61,21.21,1.7,21.52h1.28c-.8,6.19-2.49,11.81-6.52,13.65-.05-.22-.09-.45-.12-.68l-2.51-22.87C158.89,108.52,161.25,104.08,165.54,101.26Z"/><path class="cls-2" d="M173.91,120.72c-.67-23.56-3.86-47.63,2.24-65.78A40.27,40.27,0,0,1,184.8,40a33.15,33.15,0,0,0-10,14.68c-5.2,14.52-3.54,34.52-1.59,58C173.47,115.31,173.7,118,173.91,120.72Z"/><path class="cls-2" d="M192.69,76.32a10.68,10.68,0,0,1-3.56,2.48c0,1.91-.06,3.82-.12,5.72a.4.4,0,0,0-.15,0h-.1a.45.45,0,0,1,.25.12c0,.19,0,.38,0,.57a.46.46,0,0,1-.28.11.41.41,0,0,1-.4-.36s0,.07,0,.1a.55.55,0,0,0,.56.55l.11,0c0,.12,0,.25,0,.37-1.58.11-4.45.28-7.32.29-2,0-4.06,0-5.57-.18l-2.51-.15,2.5.35c1.49.25,3.52.42,5.56.62,2.81.22,5.67.28,7.29.3q-.14,2.89-.33,5.73a5.54,5.54,0,0,1,.91.77,5.69,5.69,0,0,1,1.58,4.2l-1.13,22.81h.62C191.76,104.4,193,89.7,192.69,76.32Z"/><path class="cls-2" d="M192.24,61.23a10.63,10.63,0,0,1,1.43,13.89c.67,13.78-.47,29.17-1.82,45.56h4.09c.21-2.73.44-5.41.66-8,2-23.49,3.62-43.52-1.61-58a33.11,33.11,0,0,0-9.82-14.5,59.47,59.47,0,0,1,5.8,15C191.46,57.12,191.89,59.15,192.24,61.23Z"/><path class="cls-2" d="M185,61.93A7.08,7.08,0,1,0,192,69,7.07,7.07,0,0,0,185,61.93Zm-5.6,10,6.31-9.23a6.34,6.34,0,0,1,3,1.14l-7,10.56A6.46,6.46,0,0,1,179.36,71.94ZM183.07,75a7.17,7.17,0,0,1-.91-.36l6.89-10.47a6.21,6.21,0,0,1,.72.73Z"/><path class="cls-2" d="M185,61.66a.79.79,0,1,0-.79-.79A.79.79,0,0,0,185,61.66Zm0-1.31a.47.47,0,0,1,.37.18.4.4,0,0,0-.15,0,.51.51,0,0,0-.51.51.49.49,0,0,0,.13.33.51.51,0,0,1,.16-1Z"/><path class="cls-2" d="M176.83,68.21a.79.79,0,1,0,.79.79A.79.79,0,0,0,176.83,68.21Zm.2.42a.51.51,0,0,0-.51.51.57.57,0,0,0,.13.34.52.52,0,0,1-.35-.48.51.51,0,0,1,.51-.51.52.52,0,0,1,.38.17A.76.76,0,0,0,177,68.63Z"/><path class="cls-2" d="M190.71,64a.79.79,0,1,0-.79-.79A.79.79,0,0,0,190.71,64Zm0-1.3a.54.54,0,0,1,.38.17l-.16,0a.51.51,0,0,0-.51.51.49.49,0,0,0,.13.33.5.5,0,0,1-.35-.47A.51.51,0,0,1,190.7,62.74Z"/><path class="cls-2" d="M179.21,74a.79.79,0,1,0,.79.79A.79.79,0,0,0,179.21,74Zm.21.42a.51.51,0,0,0-.51.51.51.51,0,0,0,.13.34.5.5,0,0,1-.36-.48.51.51,0,0,1,.51-.51.48.48,0,0,1,.38.18A.42.42,0,0,0,179.42,74.38Z"/><path class="cls-2" d="M179.21,64a.79.79,0,1,0-.79-.79A.79.79,0,0,0,179.21,64Zm0-1.3a.5.5,0,0,1,.38.17l-.15,0a.51.51,0,0,0-.51.51.49.49,0,0,0,.13.33.49.49,0,0,1-.36-.47A.51.51,0,0,1,179.19,62.74Z"/><path class="cls-2" d="M195.21,69A10.25,10.25,0,1,0,185,79.25,10.26,10.26,0,0,0,195.21,69Zm-10,7.77a.51.51,0,0,0-.51.51.49.49,0,0,0,.13.33.51.51,0,0,1,.16-1,.47.47,0,0,1,.37.18A.4.4,0,0,0,185.17,76.77Zm5.75-2.39a.51.51,0,0,0-.38.85.51.51,0,1,1,.54-.81A.47.47,0,0,0,190.92,74.38Zm-.21-.42a.79.79,0,0,0-.31,1.52,9.37,9.37,0,0,1-3.48,1.86,11,11,0,0,1-1.32.26.81.81,0,0,0,.15-.46.79.79,0,1,0-1.37.53,9,9,0,0,1-1.93-.2,9.37,9.37,0,0,1-2.92-1.16,5.53,5.53,0,0,1-.62-.41A9.17,9.17,0,1,1,191,62.07a4.59,4.59,0,0,1,.4.44A10,10,0,0,1,193,65.22a9.2,9.2,0,0,1,.6,3.15.76.76,0,0,0-.47-.16.79.79,0,1,0,0,1.58.81.81,0,0,0,.41-.11,9.11,9.11,0,0,1-2.07,4.75A.79.79,0,0,0,190.71,74Zm2.21-4.48a.52.52,0,0,1-.35-.48.51.51,0,0,1,.51-.51.54.54,0,0,1,.38.17.76.76,0,0,0-.16,0,.51.51,0,0,0-.38.85Z"/><path class="cls-2" d="M183.27,55.13c-1.64,0-3.28.08-4.49,0l-2-.12,2,.32h.06c1.2.24,2.81.33,4.45.47s3.49.11,4.81.12c.11,1,.21,2,.31,3a10.7,10.7,0,0,1,2.92,1.53q-.42-2.66-1-5.25a70.71,70.71,0,0,0-5.15-15.11l-.11-.11A87.65,87.65,0,0,1,188,54.78C186.66,54.9,185,55,183.27,55.13Z"/><path class="cls-2" d="M178,54.17a.38.38,0,0,1-.39-.35.28.28,0,0,0,0,.09.55.55,0,0,0,.55.56.56.56,0,0,0,0-1.11h-.1a.41.41,0,0,1,.36.4A.4.4,0,0,1,178,54.17Z"/><path class="cls-2" d="M181.34,54.33a.41.41,0,0,1-.4-.36s0,.07,0,.1a.56.56,0,1,0,.56-.55h-.1a.4.4,0,0,1,.36.39A.41.41,0,0,1,181.34,54.33Z"/><path class="cls-2" d="M184.81,54.33a.4.4,0,0,1-.39-.36.34.34,0,0,0,0,.1.54.54,0,0,0,.55.55.55.55,0,0,0,.55-.55.55.55,0,0,0-.55-.55h-.1a.4.4,0,0,1,.36.39A.41.41,0,0,1,184.81,54.33Z"/><path class="cls-2" d="M177.74,85.21a.41.41,0,0,1-.4-.36s0,.07,0,.1a.56.56,0,0,0,1.11,0,.56.56,0,0,0-.56-.55h-.09a.39.39,0,0,1,.35.39A.4.4,0,0,1,177.74,85.21Z"/><path class="cls-2" d="M174,85a.41.41,0,0,1-.4-.36s0,.07,0,.1a.56.56,0,0,0,1.11,0,.56.56,0,0,0-.56-.55H174a.39.39,0,0,1,.35.39A.4.4,0,0,1,174,85Z"/><path class="cls-2" d="M178.63,103.65h-.1a.4.4,0,0,1,.36.39.41.41,0,0,1-.41.41.4.4,0,0,1-.39-.36.38.38,0,0,0,0,.1.55.55,0,0,0,.55.55.54.54,0,0,0,.54-.48s0,0,0-.07a.3.3,0,0,0,0-.1A.54.54,0,0,0,178.63,103.65Z"/><path class="cls-2" d="M174.86,103.45h-.1a.41.41,0,0,1,.36.4.4.4,0,0,1-.8,0,.38.38,0,0,0,0,.1.56.56,0,0,0,.55.56.56.56,0,0,0,0-1.11Z"/><path class="cls-2" d="M179.18,121.05a.56.56,0,0,0,.56-.55.55.55,0,0,0-.56-.55h-.09a.4.4,0,0,1,.35.39.4.4,0,0,1-.4.41.41.41,0,0,1-.4-.36.34.34,0,0,0,0,.1A.55.55,0,0,0,179.18,121.05Z"/><path class="cls-2" d="M175.41,120.85a.55.55,0,1,0,0-1.1h-.1a.4.4,0,0,1,0,.8.41.41,0,0,1-.4-.36.34.34,0,0,0,0,.1A.55.55,0,0,0,175.41,120.85Z"/><path class="cls-2" d="M181.34,85.3a.41.41,0,0,1-.4-.36s0,.07,0,.1a.56.56,0,1,0,.56-.55h-.1a.4.4,0,0,1,.36.39A.41.41,0,0,1,181.34,85.3Z"/><path class="cls-2" d="M185,85.3a.4.4,0,0,1-.4-.36.34.34,0,0,0,0,.1.56.56,0,0,0,1.11,0,.56.56,0,0,0-.56-.55h-.1a.4.4,0,0,1,0,.8Z"/><path class="cls-2" d="M162.07,127.63s-.28-6.12-1.15-13.62a13.67,13.67,0,0,1,.11-5.13,10.6,10.6,0,0,1,1.79-3.79l2.46-3.16-.77.76c-.48.5-1.2,1.19-2,2.12a10.25,10.25,0,0,0-2.17,3.88,13,13,0,0,0-.27,5.42C160.91,121.61,162.07,127.63,162.07,127.63Z"/><path class="cls-2" d="M139.35,154.47a6.29,6.29,0,0,0-5.53-.51l.07.21a6.77,6.77,0,0,1,2.68-.12,6.58,6.58,0,0,1,2.48.9,6.67,6.67,0,0,1,1.94,1.8,6.85,6.85,0,0,1,1.11,2.44l0,.09.25,0v-.1a6.28,6.28,0,0,0-3-4.67Z"/><path class="cls-2" d="M115.66,170a2.63,2.63,0,0,0-1.42-.2,2.57,2.57,0,0,0-1.29.57.11.11,0,0,0,0,.14.12.12,0,0,0,.14,0,2.92,2.92,0,0,1,1.18-.27h0a2.76,2.76,0,0,1,2.09.94,2.85,2.85,0,0,1,.59,1.07.12.12,0,0,0,.11.08h.07a.12.12,0,0,0,.09-.11,2.6,2.6,0,0,0-.46-1.34A2.72,2.72,0,0,0,115.66,170Z"/><path class="cls-2" d="M122.58,159.56a4.69,4.69,0,0,0-1-.58,4.28,4.28,0,0,0-2.22-.34,4.2,4.2,0,0,0-2,.82.12.12,0,0,0,0,.14.11.11,0,0,0,.14,0,4.6,4.6,0,0,1,2-.52,4.48,4.48,0,0,1,1.95.37,4.61,4.61,0,0,1,1.59,1.2,4.7,4.7,0,0,1,.92,1.81.1.1,0,0,0,.1.08h.07a.1.1,0,0,0,.09-.12,4.13,4.13,0,0,0-.79-2.07A4.67,4.67,0,0,0,122.58,159.56Z"/><path class="cls-2" d="M165.3,165.23a8.45,8.45,0,0,0-5.52-3.75,7.94,7.94,0,0,0-1.69-.16,7.81,7.81,0,0,0-1.68.2.11.11,0,0,0-.08.12.09.09,0,0,0,.11.09,9.4,9.4,0,0,1,3.24.22,8.93,8.93,0,0,1,2.93,1.31,8.84,8.84,0,0,1,2.29,2.24,9.74,9.74,0,0,1,1.39,2.94.12.12,0,0,0,.11.07h0a.1.1,0,0,0,.08-.12,8.46,8.46,0,0,0-.43-1.64A8.57,8.57,0,0,0,165.3,165.23Z"/><path class="cls-2" d="M157.84,175.07a4,4,0,0,0-.72-.44,3.08,3.08,0,0,0-1.66-.23A3,3,0,0,0,154,175a.11.11,0,0,0,0,.14.1.1,0,0,0,.14,0,3.51,3.51,0,0,1,1.43-.34,3.32,3.32,0,0,1,1.39.28A3.27,3.27,0,0,1,158,176a3.36,3.36,0,0,1,.69,1.28.11.11,0,0,0,.1.08h.08a.12.12,0,0,0,.09-.11,3.07,3.07,0,0,0-.56-1.55A3.13,3.13,0,0,0,157.84,175.07Z"/><path class="cls-2" d="M158.79,160.52a10.67,10.67,0,0,1,3,.78,9.79,9.79,0,0,1,2.63,1.66,10.46,10.46,0,0,1,3.23,5.3.11.11,0,0,0,.1.08h0a.12.12,0,0,0,.08-.13,10.25,10.25,0,0,0-1.09-3.05,10,10,0,0,0-2-2.56,10.22,10.22,0,0,0-12.22-1.2,10.16,10.16,0,0,0-2.48,2.12,10.45,10.45,0,0,0-1.66,2.78.11.11,0,1,0,.19.09,10.46,10.46,0,0,1,4.2-4.57A10.13,10.13,0,0,1,158.79,160.52Z"/><path class="cls-2" d="M204,168a5.74,5.74,0,0,0-1.91.38,6.16,6.16,0,0,0-1.68,1,5.73,5.73,0,0,0-1.93,3.33.11.11,0,0,0,.08.12h0a.12.12,0,0,0,.1-.07,7.93,7.93,0,0,1,.86-1.62,7,7,0,0,1,2.74-2.32,7.73,7.73,0,0,1,1.74-.58.1.1,0,0,0,.08-.11v-.06A.11.11,0,0,0,204,168Z"/><path class="cls-2" d="M135.05,144.4a9.36,9.36,0,0,1,4.61-3.06,9.07,9.07,0,0,1,5.46.16,9.74,9.74,0,0,1,2.45,1.31,9.2,9.2,0,0,1,3.6,7.26.11.11,0,0,0,.11.11.12.12,0,0,0,.11-.1,9.32,9.32,0,0,0-.29-2.89,9.06,9.06,0,0,0-1.21-2.66,9.14,9.14,0,0,0-10.37-3.65,8.95,8.95,0,0,0-4.64,3.39.09.09,0,0,0,0,.14A.11.11,0,0,0,135.05,144.4Z"/><path class="cls-2" d="M146.88,144.26a7.54,7.54,0,0,1,2,2.58,7.26,7.26,0,0,1,.55,1.57,8,8,0,0,1,.23,1.67.11.11,0,0,0,.11.1.12.12,0,0,0,.11-.1,7.29,7.29,0,0,0-.56-3.44,7.47,7.47,0,0,0-5.29-4.35,7,7,0,0,0-3.48.12.11.11,0,0,0-.07.13.1.1,0,0,0,.12.08,8.2,8.2,0,0,1,3.32.14A7.56,7.56,0,0,1,146.88,144.26Z"/><path class="cls-2" d="M150.07,157.68a6.58,6.58,0,0,1,1.05.92.12.12,0,0,0,.08,0l.06,0,.05,0a.12.12,0,0,0,0-.14,4.6,4.6,0,0,0-2.26-1.95,4.75,4.75,0,0,0-1.48-.32,4.27,4.27,0,0,0-1.48.19.11.11,0,0,0-.08.12.12.12,0,0,0,.11.09,5.89,5.89,0,0,1,1.4.08,6.11,6.11,0,0,1,1.32.37A5.7,5.7,0,0,1,150.07,157.68Z"/><path class="cls-2" d="M151,156a6,6,0,0,0-4.92-.92.12.12,0,0,0-.08.12.11.11,0,0,0,.12.09,6.8,6.8,0,0,1,2.4.18,6.61,6.61,0,0,1,2.16,1,6.47,6.47,0,0,1,1.65,1.69,6.64,6.64,0,0,1,1,2.19.12.12,0,0,0,.1.09l.08,0a.12.12,0,0,0,.09-.11,6.3,6.3,0,0,0-.81-2.42A6.08,6.08,0,0,0,151,156Z"/><path class="cls-2" d="M154.75,160.08h.08a.12.12,0,0,0,.09-.12,7.37,7.37,0,0,0-2.72-4.79,8.18,8.18,0,0,0-1.62-1,7.31,7.31,0,0,0-7.16.7.1.1,0,0,0,0,.14.1.1,0,0,0,.14,0,7.48,7.48,0,0,1,3.4-1,6.7,6.7,0,0,1,1.75.11,7.14,7.14,0,0,1,1.67.52,7.56,7.56,0,0,1,4.3,5.29A.1.1,0,0,0,154.75,160.08Z"/><path class="cls-2" d="M130.33,154.87a9.92,9.92,0,0,1,1.75-1.25,8.7,8.7,0,0,1,2-.74,8.88,8.88,0,0,1,2.1-.19,9.25,9.25,0,0,1,2.08.36,8.14,8.14,0,0,1,3.51,2.26,8,8,0,0,1,1.92,3.76.1.1,0,0,0,.1.08h.08a.1.1,0,0,0,.08-.12,7.91,7.91,0,0,0-1.8-4,8.34,8.34,0,0,0-1.69-1.5,8.49,8.49,0,0,0-2-1,9.08,9.08,0,0,0-2.23-.36h0a8.84,8.84,0,0,0-2.2.27,9.33,9.33,0,0,0-2.06.88,8.27,8.27,0,0,0-1.71,1.41.11.11,0,0,0,0,.15A.11.11,0,0,0,130.33,154.87Z"/><path class="cls-2" d="M142.72,169.43a5.41,5.41,0,0,0-4.71-.51.11.11,0,0,0-.07.13.12.12,0,0,0,.12.08,6.26,6.26,0,0,1,2.28,0,5.88,5.88,0,0,1,3.71,2.34,6.08,6.08,0,0,1,.94,2.06.11.11,0,0,0,.11.08h.07a.12.12,0,0,0,.09-.11,5.37,5.37,0,0,0-.8-2.3A5.42,5.42,0,0,0,142.72,169.43Z"/><path class="cls-2" d="M143.61,168.36a7.07,7.07,0,0,0-3.74-1.17,7.83,7.83,0,0,0-2,.24,8.17,8.17,0,0,0-1.8.78,7.38,7.38,0,0,0-1.49,1.24.11.11,0,0,0,.15.15,8.25,8.25,0,0,1,1.52-1.07,7.53,7.53,0,0,1,1.73-.64,8.19,8.19,0,0,1,1.83-.16,7.48,7.48,0,0,1,1.8.32,7,7,0,0,1,4.72,5.21.11.11,0,0,0,.11.08h.07a.1.1,0,0,0,.09-.12,7,7,0,0,0-1.57-3.54A7.08,7.08,0,0,0,143.61,168.36Z"/><path class="cls-2" d="M131.79,167.3a4.57,4.57,0,0,0-1.31-.21,5.17,5.17,0,0,0-1.31.17,4.68,4.68,0,0,0-1.2.54,4.82,4.82,0,0,0-1,.85.11.11,0,0,0,0,.14.1.1,0,0,0,.14,0,6.17,6.17,0,0,1,1-.68,5.69,5.69,0,0,1,1.13-.4,4.62,4.62,0,0,1,5.44,3.47.1.1,0,0,0,.1.08h.08a.1.1,0,0,0,.08-.12,4.56,4.56,0,0,0-3.19-3.84Z"/><path class="cls-2" d="M214,161.61a.1.1,0,0,0,.08-.12,13.31,13.31,0,0,1,1.32-9.1,13.08,13.08,0,0,1,2.93-3.6,12.87,12.87,0,0,1,4-2.34,13,13,0,0,1,4.57-.79,13.09,13.09,0,0,1,11.42,7,.1.1,0,0,0,.14,0,.1.1,0,0,0,.05-.14,13.15,13.15,0,0,0-2.82-3.87A13.22,13.22,0,0,0,215,152.16a13.18,13.18,0,0,0-1.43,4.6,10.18,10.18,0,0,0-.08,1.13,7.51,7.51,0,0,0-9.1-2.65,7.66,7.66,0,0,0-2.26,1.47,7.79,7.79,0,0,0-1.59,2.16,7.6,7.6,0,0,0-.5,5.21.12.12,0,0,0,.11.08h0a.1.1,0,0,0,.08-.12,7.35,7.35,0,0,1,.72-4.94,7.33,7.33,0,0,1,12.52-.7,13.12,13.12,0,0,0,.4,3.14A.1.1,0,0,0,214,161.61Z"/><path class="cls-2" d="M202.48,158.9a6.36,6.36,0,0,1,1.9-1.72l.1-.06a3,3,0,0,1,.47-.24,4.71,4.71,0,0,1,.6-.26,6.81,6.81,0,0,1,1.28-.3.1.1,0,0,0,.09-.12v0a.11.11,0,0,0-.11-.1,6.13,6.13,0,0,0-2.68.69,6.28,6.28,0,0,0-1.16.79,6.88,6.88,0,0,0-.95,1,6.1,6.1,0,0,0-.91,5.33.1.1,0,0,0,.1.07h0a.11.11,0,0,0,.09-.12,6.71,6.71,0,0,1,.08-2.61A6.45,6.45,0,0,1,202.48,158.9Z"/><path class="cls-2" d="M230.62,164.82a.11.11,0,0,0,.14.06.11.11,0,0,0,.07-.13,8.65,8.65,0,0,0-1.47-2.86,8.93,8.93,0,0,0-2.43-2.15,8.85,8.85,0,0,0-13.11,5.32,8.56,8.56,0,0,0-.23,3.21.1.1,0,0,0,.1.09.1.1,0,0,0,.11-.11,8.92,8.92,0,0,1,1.8-5.83,8.62,8.62,0,0,1,11.08-2.26A8.86,8.86,0,0,1,230.62,164.82Z"/><path class="cls-2" d="M223.07,147.56a.1.1,0,0,0-.13-.06,11.1,11.1,0,0,0-3.78,2.06,11.74,11.74,0,0,0-2.74,3.36,11.6,11.6,0,0,0-1.3,4.14,11.2,11.2,0,0,0,.35,4.29.12.12,0,0,0,.11.08h0a.11.11,0,0,0,.08-.13,12.79,12.79,0,0,1-.08-4.18,12.19,12.19,0,0,1,3.88-7.19A12.67,12.67,0,0,1,223,147.7.11.11,0,0,0,223.07,147.56Z"/><path class="cls-2" d="M219.5,160.76a6.35,6.35,0,0,0-4.35,5.24.11.11,0,0,0,.09.12h0a.11.11,0,0,0,.1-.07,9.19,9.19,0,0,1,1.64-2.94,9.51,9.51,0,0,1,2.58-2.15.11.11,0,0,0-.08-.2Z"/><path class="cls-2" d="M223.32,138.68a6.61,6.61,0,0,0-2.81,3.12.11.11,0,0,0,.05.14h.05a.12.12,0,0,0,.09,0,8.76,8.76,0,0,1,2.9-2.73,8.89,8.89,0,0,1,3.82-1.14.11.11,0,0,0,.1-.1.11.11,0,0,0-.1-.11A6.59,6.59,0,0,0,223.32,138.68Z"/><path class="cls-2" d="M219.23,140.78a8.55,8.55,0,0,0-.93,3,.12.12,0,0,0,.09.12.1.1,0,0,0,.12-.09,8.66,8.66,0,0,1,3-5.15,8.44,8.44,0,0,1,11.07.3,8.68,8.68,0,0,1,2.72,5.31.12.12,0,0,0,.11.09.1.1,0,0,0,.11-.11,8.58,8.58,0,0,0-2.61-5.65,8.86,8.86,0,0,0-5.8-2.43h-.2a8.81,8.81,0,0,0-5.72,2.12A8.64,8.64,0,0,0,219.23,140.78Z"/><path class="cls-2" d="M221.9,150a8.57,8.57,0,0,0-2,1.45,9.48,9.48,0,0,0-1.56,2,9.35,9.35,0,0,0-1,2.3,8.33,8.33,0,0,0-.33,2.47.11.11,0,0,0,.21,0,13.57,13.57,0,0,1,.58-2.34,12,12,0,0,1,1-2.16,12.09,12.09,0,0,1,1.42-1.91A13.62,13.62,0,0,1,222,150.2a.12.12,0,0,0,0-.14A.11.11,0,0,0,221.9,150Z"/><path class="cls-2" d="M253.74,157.67a4.33,4.33,0,0,0-2.39-.21,4.66,4.66,0,0,0-2.18,1.07,4.6,4.6,0,0,0-1.34,2,4.43,4.43,0,0,0-.11,2.4.11.11,0,0,0,.11.08c.07,0,.11-.06.1-.11a5.25,5.25,0,0,1,.36-2.2,4.64,4.64,0,0,1,3.17-2.78,5,5,0,0,1,2.22-.07.1.1,0,0,0,.12-.07A.1.1,0,0,0,253.74,157.67Z"/><path class="cls-2" d="M257.32,160a.11.11,0,0,0,.14.06.12.12,0,0,0,.06-.14,5.57,5.57,0,0,0-1.07-1.84,5.86,5.86,0,0,0-9.36.78,5.64,5.64,0,0,0-.76,4.13.11.11,0,0,0,.1.09.11.11,0,0,0,.11-.12,5.8,5.8,0,0,1,1-3.84,5.65,5.65,0,0,1,3.17-2.27,5.56,5.56,0,0,1,3.88.34A5.76,5.76,0,0,1,257.32,160Z"/><path class="cls-2" d="M231.51,167.34a6.34,6.34,0,0,0-1.72-.52,5.72,5.72,0,0,0-1.8,0,6.2,6.2,0,0,0-1.74.52,6.33,6.33,0,0,0-1.51,1,5.74,5.74,0,0,0-1.15,1.39,6.61,6.61,0,0,0-.7,1.66,6.86,6.86,0,0,0-.16,1.77.11.11,0,0,0,.11.11.12.12,0,0,0,.11-.11A6.36,6.36,0,0,1,224,170a6.08,6.08,0,0,1,2.49-2.15,5.57,5.57,0,0,1,1.58-.5,6,6,0,0,1,1.66-.05,6.33,6.33,0,0,1,3.12,1.2.11.11,0,0,0,.15,0,.11.11,0,0,0,0-.14A6.33,6.33,0,0,0,231.51,167.34Z"/><path class="cls-2" d="M228.48,168.32a4.41,4.41,0,0,0-4,3.21.1.1,0,0,0,.06.13h0a.11.11,0,0,0,.09,0,7.41,7.41,0,0,1,1.66-1.9,7.25,7.25,0,0,1,2.21-1.19.11.11,0,0,0,0-.21Z"/><path class="cls-2" d="M242.29,166.43a4.7,4.7,0,0,0-3.36-.7,4.67,4.67,0,0,0-3.72,3.32,4.51,4.51,0,0,0-.14,1.7.11.11,0,0,0,.11.09.1.1,0,0,0,.1-.1,4.61,4.61,0,0,1,1.09-2.94,4.43,4.43,0,0,1,2.66-1.52,4.5,4.5,0,0,1,3,.56,4.7,4.7,0,0,1,2,2.42.1.1,0,0,0,.13.07.11.11,0,0,0,.07-.13,4.23,4.23,0,0,0-.69-1.56A4.76,4.76,0,0,0,242.29,166.43Z"/><path class="cls-2" d="M260.31,169a2.74,2.74,0,0,0-3.74.64,2.52,2.52,0,0,0-.49,1.93.12.12,0,0,0,.11.09.1.1,0,0,0,.1-.1A2.75,2.75,0,0,1,257,170a2.49,2.49,0,0,1,1.46-.81,2.42,2.42,0,0,1,1.64.29,2.67,2.67,0,0,1,1.15,1.31.1.1,0,0,0,.13.06.11.11,0,0,0,.08-.12A2.62,2.62,0,0,0,260.31,169Z"/><path class="cls-2" d="M176.09,168.41a9.49,9.49,0,0,0-2.69-.21,9.06,9.06,0,0,0-2.63.61,8.91,8.91,0,0,0-4.09,3.32.11.11,0,0,0,.17.13,8.94,8.94,0,0,1,4.09-3,8.81,8.81,0,0,1,5-.29,8.91,8.91,0,0,1,4.35,2.49,9.09,9.09,0,0,1,2.32,4.51.11.11,0,0,0,.1.09h.07a.11.11,0,0,0,.09-.12,8.86,8.86,0,0,0-6.8-7.51Z"/><path class="cls-2" d="M206.92,166.77a7.53,7.53,0,0,0-5.29.22,7.55,7.55,0,0,0-3.84,3.63c-.1.22-.19.45-.29.72a11.56,11.56,0,0,0-3.15-1.73,11.36,11.36,0,0,0-7.63.06,11.12,11.12,0,0,0-3.32,1.94.1.1,0,0,0,0,.15.12.12,0,0,0,.15,0,12,12,0,0,1,3.34-1.66,12.44,12.44,0,0,1,3.66-.58h0a12.17,12.17,0,0,1,3.62.55,11.94,11.94,0,0,1,3.21,1.54,7.43,7.43,0,0,0-.11,4.2.13.13,0,0,0,.11.08h0a.1.1,0,0,0,.08-.12,7.35,7.35,0,0,1,.72-4.94,7.27,7.27,0,0,1,3.63-3.33,7.35,7.35,0,0,1,8.93,2.69.12.12,0,0,0,.15,0l0,0a.11.11,0,0,0,0-.15A7.56,7.56,0,0,0,206.92,166.77Z"/><path class="cls-2" d="M192.79,170.53a6.34,6.34,0,0,0-2.29-.34,5.77,5.77,0,0,0-1.15.13,5.44,5.44,0,0,0-1.11.34.1.1,0,0,0,0,.2l.43,0,.7,0h.35l.75,0h1.11l.69,0h.43a.1.1,0,0,0,.11-.08v-.06A.11.11,0,0,0,192.79,170.53Z"/><path class="cls-2" d="M178.88,171.2a8.51,8.51,0,0,0-1-.71,7.88,7.88,0,0,0-3.59-1,7.59,7.59,0,0,0-2.46.34.12.12,0,0,0-.07.13.1.1,0,0,0,.12.08,9.6,9.6,0,0,1,2.38-.07,9.33,9.33,0,0,1,2.29.52,9.12,9.12,0,0,1,2.07,1.1,10.08,10.08,0,0,1,1.75,1.6.09.09,0,0,0,.08,0l.06,0,.05,0a.11.11,0,0,0,0-.14A7.3,7.3,0,0,0,178.88,171.2Z"/><path class="cls-3" d="M100.63,218.08c11.42,10,4.35,24.56-7.07,26.42l-.16-14.23a5.76,5.76,0,0,0,1.9-2.12l5.33-10.07Zm-14,26.15v-12.8a6,6,0,0,1-1.85-8l8.68-15C96.82,202.63,92,195.81,87,192.9c0,2.33-.68,3.93-2,6.23q-5.3,9.17-10.61,18.33A18.06,18.06,0,0,0,81,242.05a18.87,18.87,0,0,0,5.67,2.18ZM105.5,198.4l-2.25-1.3,1.3-2.25,2.25,1.3-1.3,2.25Zm-.15,3-2.57,4.45-4.44-2.57,2.57-4.44,4.44,2.56Zm5.5,5.53-4.45-2.57,2.57-4.44,4.44,2.57-2.56,4.44Zm.46,3.18-6.61-3.82-3.82,6.61,6.61,3.81,3.82-6.6Zm2,9,1.93-3.34-3.34-1.93L110,217.17Z"/><path d="M211.59,208.64l8.22-4.3h3.51v39.43H211.59Z"/><path d="M228.36,210v-2.75l6.22-2.07v-7.85l8.19-4.3h3.51v12.15h9.47V210h-9.47v24.87a3.47,3.47,0,0,0,.6,2,1.85,1.85,0,0,0,1.59.87,2.85,2.85,0,0,0,1.34-.41,9.37,9.37,0,0,0,1.39-1,10.41,10.41,0,0,0,1.17-1.11c.34-.38.59-.67.74-.87l4,3.17a23.17,23.17,0,0,1-2.15,2.81,12.61,12.61,0,0,1-2.68,2.25,13.51,13.51,0,0,1-3.47,1.49,17.16,17.16,0,0,1-4.53.54,11.89,11.89,0,0,1-4.26-.69,8.3,8.3,0,0,1-3-1.95,7.86,7.86,0,0,1-1.81-3,11.69,11.69,0,0,1-.61-3.85V210Z"/><path d="M281,245.46a19.72,19.72,0,0,1-7.74-1.53,20.38,20.38,0,0,1-6.3-4.11,19.57,19.57,0,0,1-4.24-6,17,17,0,0,1-1.57-7.22,24.3,24.3,0,0,1,1.44-8.47,20,20,0,0,1,4.07-6.77,18.62,18.62,0,0,1,6.32-4.47,21.77,21.77,0,0,1,15.6-.32,17.25,17.25,0,0,1,5.75,3.51,15.57,15.57,0,0,1,3.72,5.24,15.9,15.9,0,0,1,1.32,6.45H272.61a27.37,27.37,0,0,0,1,6.11,20,20,0,0,0,2.17,5.11,12,12,0,0,0,3.19,3.51,6.82,6.82,0,0,0,4.06,1.3,11.33,11.33,0,0,0,3.79-.66,13.53,13.53,0,0,0,3.45-1.81,13,13,0,0,0,2.75-2.68,10,10,0,0,0,1.7-3.3l6,1a19,19,0,0,1-2.88,5.88,23.37,23.37,0,0,1-4.64,4.83,22.27,22.27,0,0,1-5.8,3.26A17.53,17.53,0,0,1,281,245.46Zm4.94-27.69a10.5,10.5,0,0,0-.74-3.11,8.29,8.29,0,0,0-1.49-2.43,6.2,6.2,0,0,0-2.11-1.57,6.28,6.28,0,0,0-2.6-.55,4.67,4.67,0,0,0-2.15.55,6.19,6.19,0,0,0-1.91,1.55,9.09,9.09,0,0,0-1.43,2.41,11.54,11.54,0,0,0-.78,3.15Z"/><path d="M144.54,241.7a16.24,16.24,0,0,1-4.09,2,14.07,14.07,0,0,1-4.36.72,13,13,0,0,1-6-1.41,16.08,16.08,0,0,1-4.87-3.82A18.18,18.18,0,0,1,122,233.7a18,18,0,0,1-1.19-6.52,15.91,15.91,0,0,1,1.45-6.62,19.16,19.16,0,0,1,4-5.73,19.69,19.69,0,0,1,5.91-4,17.5,17.5,0,0,1,7.24-1.52,16.41,16.41,0,0,1,2.79.23,12.46,12.46,0,0,1,2.36.63V196.42l7.13-3.77h3.07v51h-10.2Zm0-21a8.34,8.34,0,0,0-.51-3,7.71,7.71,0,0,0-1.35-2.33,6.12,6.12,0,0,0-1.9-1.5,4.74,4.74,0,0,0-2.11-.53,4.49,4.49,0,0,0-2.65.91,8.23,8.23,0,0,0-2.19,2.51,14.41,14.41,0,0,0-1.5,3.79,19,19,0,0,0-.56,4.77,21.6,21.6,0,0,0,.64,5.35,18.43,18.43,0,0,0,1.73,4.48,10.66,10.66,0,0,0,2.54,3.08,4.93,4.93,0,0,0,3.11,1.16,4.68,4.68,0,0,0,1.22-.18,7.5,7.5,0,0,0,1.3-.52,7.37,7.37,0,0,0,1.22-.77,5.09,5.09,0,0,0,1-1Z"/><rect x="173.45" y="235.11" width="28.42" height="8.35"/><path d="M183.55,243.36h-10.2V196.09l7.13-3.77h3.07Z"/><circle class="cls-4" cx="164.07" cy="223.14" r="4.41"/><circle class="cls-5" cx="313.69" cy="188.89" r="4.41"/><circle class="cls-6" cx="54.69" cy="181.89" r="4.41"/><circle class="cls-7" cx="34.69" cy="23.89" r="4.41"/><circle class="cls-8" cx="317.69" cy="29.89" r="4.41"/></g></g></svg>