<?xml version="1.0" encoding="UTF-8" standalone="no"?>
<svg
   xmlns:dc="http://purl.org/dc/elements/1.1/"
   xmlns:cc="http://creativecommons.org/ns#"
   xmlns:rdf="http://www.w3.org/1999/02/22-rdf-syntax-ns#"
   xmlns:svg="http://www.w3.org/2000/svg"
   xmlns="http://www.w3.org/2000/svg"
   xmlns:sodipodi="http://sodipodi.sourceforge.net/DTD/sodipodi-0.dtd"
   xmlns:inkscape="http://www.inkscape.org/namespaces/inkscape"
   viewBox="0 0 323.19 212.44"
   version="1.1"
   id="svg3634"
   sodipodi:docname="overview-1.svg"
   inkscape:version="1.0.1 (c497b03c, 2020-09-10)">
  <metadata
     id="metadata3638">
    <rdf:RDF>
      <cc:Work
         rdf:about="">
        <dc:format>image/svg+xml</dc:format>
        <dc:type
           rdf:resource="http://purl.org/dc/dcmitype/StillImage" />
      </cc:Work>
    </rdf:RDF>
  </metadata>
  <sodipodi:namedview
     pagecolor="#ffffff"
     bordercolor="#666666"
     borderopacity="1"
     objecttolerance="10"
     gridtolerance="10"
     guidetolerance="10"
     inkscape:pageopacity="0"
     inkscape:pageshadow="2"
     inkscape:window-width="1680"
     inkscape:window-height="833"
     id="namedview3636"
     showgrid="false"
     inkscape:zoom="1.950039"
     inkscape:cx="161.595"
     inkscape:cy="106.22"
     inkscape:window-x="558"
     inkscape:window-y="1465"
     inkscape:window-maximized="0"
     inkscape:current-layer="svg3634" />
  <defs
     id="defs3620">
    <style
       id="style3618">.cls-1,.cls-2,.cls-4{isolation:isolate;}.cls-2{font-size:24px;}.cls-2,.cls-4{fill:#8cc63f;font-family:Poppins-Regular, Poppins;}.cls-3{fill:#333;stroke:#333;stroke-miterlimit:10;}.cls-4{font-size:21px;}</style>
  </defs>
  <path
     class="cls-3"
     d="m 19.443186,185.94268 a 0.42861011,0.48785839 0 0 1 -0.394321,-0.23417 0.46289891,0.52688708 0 0 1 0.111439,-0.73179 132.55197,150.87509 0 0 1 28.579721,-16.96772 c 12.489698,-5.29815 22.287726,-5.85431 29.874129,-1.72701 1.148669,0.62445 2.323064,1.37576 3.42888,2.08802 4.003217,2.55638 8.160737,5.19082 12.001067,3.11255 3.14601,-1.70751 4.21753,-5.60063 5.37478,-9.75717 a 22.827774,25.983339 0 0 1 3.266009,-8.30336 c 2.71739,-3.95164 7.53497,-5.94211 14.70989,-6.09824 6.49774,-0.11701 12.72973,1.95145 18.75599,3.90289 3.22314,1.06352 6.55774,2.17583 9.90946,2.92715 a 69.434838,79.033061 0 0 0 20.68472,0.77081 c 5.9234,-0.68301 13.38979,-2.14658 18.61881,-7.55205 a 23.427829,26.666341 0 0 0 4.28611,-6.1275 6.3862907,7.2690901 0 0 1 -0.31717,-1.51236 177.44459,201.97337 0 0 1 -1.58585,-23.52453 c -0.1543,-4.39074 -0.30003,-8.93758 -0.59149,-13.40636 a 7.5692545,8.6155793 0 0 0 -0.96865,-4.322428 7.7835595,8.8595085 0 0 0 -3.12028,-2.566135 l -2.80312,-1.590419 c -5.39191,-3.024722 -10.49236,-5.854299 -15.74713,-9.20101 a 67.634675,76.984055 0 0 1 -7.71498,-5.454257 2.9402653,3.3467085 0 0 1 -1.40584,-1.951433 1.6630072,1.8928906 0 0 1 0.38575,-1.444061 3.8489187,4.3809684 0 0 1 2.04018,-1.356247 l 0.54005,-0.214657 c 2.96597,-1.317218 6.05198,-2.468563 9.02652,-3.571123 l 3.33459,-1.268432 c 5.88911,-2.253905 11.76963,-4.527325 17.25585,-6.664146 l 4.1918,-1.629447 c 9.92661,-3.902866 20.19611,-7.864277 30.38845,-11.708602 l 3.62605,-1.356246 c 5.69193,-2.127062 11.39246,-4.322425 16.93868,-6.420216 16.57006,-6.186045 32.27433,-12.157431 48.96441,-17.475088 a 1.0886697,1.2391604 0 0 1 1.12295,0.370773 1.0800975,1.2294031 0 0 1 0.16288,1.326974 c -0.70292,1.834348 -1.02009,2.527107 -2.52881,5.766486 l -1.67157,3.707725 c -10.13234,22.617115 -21.19905,42.111937 -32.98583,62.758103 -4.66328,8.156996 -9.47228,16.587206 -14.247,25.290586 -0.2486,0.44884 -0.48005,0.89766 -0.72007,1.30747 a 39.492135,44.951273 0 0 1 -3.55747,5.8543 1.8773123,2.1368198 0 0 1 -2.26305,0.56591 24.225044,27.573757 0 0 1 -3.42888,-2.371 c -0.78865,-0.58541 -1.58587,-1.20988 -2.62309,-1.95142 -2.87169,-1.95144 -5.65766,-4.12729 -8.35791,-6.22508 -1.35441,-1.05377 -2.70025,-2.10754 -4.06322,-3.13205 -1.36298,-1.0245 -3.03456,-2.08804 -4.50897,-3.06375 -1.47443,-0.97572 -3.06885,-2.12706 -4.60328,-3.29793 -0.37718,-0.28295 -0.85721,-0.61469 -1.41441,-0.97571 -1.80017,-1.19038 -4.05466,-2.68323 -4.749,-4.46879 -0.79722,-2.05876 0.95151,-3.5321 3.79749,-5.96163 l 1.03724,-0.878149 2.57165,-2.263661 3.28315,-2.92715 c 6.00054,-5.073727 12.23254,-10.176725 18.21593,-15.104096 6.1977,-5.083484 12.57542,-10.342598 18.81599,-15.611469 6.91777,-5.766486 12.94403,-11.0256 18.44737,-15.952968 3.17171,-2.927151 6.25772,-5.649401 9.17227,-8.371651 0.80578,-0.770817 1.51727,-1.444061 2.21162,-1.951434 0.95152,-0.839116 1.84302,-1.629447 2.91455,-2.702735 l 0.6172,-0.575674 c 0.48862,-0.439072 1.47441,-1.434302 2.33163,-2.214877 -0.80578,0.478102 -1.57728,0.975717 -2.34021,1.444062 l -1.11438,0.731787 c -5.01475,3.288166 -9.30085,6.351916 -14.08413,9.962069 -3.42887,2.536864 -6.79776,4.956641 -10.06376,7.308118 -3.26602,2.351478 -6.48059,4.624898 -9.78945,7.083705 l -20.02467,14.938224 -20.12754,15.026037 -11.87249,8.898539 -0.3429,0.253686 a 4.4404007,5.054213 0 0 1 -3.79748,1.258674 12.198244,13.88445 0 0 1 -2.70882,-1.44406 c -0.31716,-0.214659 -0.63434,-0.41956 -0.94294,-0.595188 l -23.94216,-14.518665 -0.98581,-0.536645 c -1.53441,-0.780573 -3.10312,-1.600175 -3.0517,-2.927151 0,-0.85863 0.79722,-1.522117 2.4688,-2.156333 1.05438,-0.400045 2.15162,-0.975716 3.21458,-1.444062 l 1.46584,-0.692759 a 0.48004332,0.54640141 0 0 1 0.64292,0.214658 0.47147112,0.53664425 0 0 1 -0.18859,0.722031 h -0.0943 l -1.45726,0.702516 c -1.0801,0.51713 -2.19449,1.053775 -3.28316,1.444061 -1.78302,0.673244 -1.83444,1.180617 -1.83444,1.209888 0,0.517131 1.71442,1.444062 2.57165,1.824591 0.38575,0.2049 0.75436,0.390288 1.03724,0.565916 l 23.88216,14.60648 c 0.31717,0.185386 0.63433,0.400044 0.96865,0.614703 a 12.695431,14.450365 0 0 0 2.57167,1.44406 c 1.08009,0.361015 2.01446,-0.361015 3.00026,-1.122075 l 0.36003,-0.263443 11.88966,-8.88878 20.11894,-15.035795 20.02467,-14.938225 c 3.30031,-2.468563 6.59203,-4.829798 9.78089,-7.112975 3.18885,-2.283178 6.66059,-4.751741 10.05519,-7.288605 4.84329,-3.61991 9.09511,-6.703175 14.16127,-9.991339 l 1.1144,-0.731787 a 32.831534,37.369954 0 0 1 4.2861,-2.546623 c 0.17144,-0.08782 0.67719,-0.331743 0.93436,0.1366 0.25717,0.468346 0.35147,0.683003 -4.10608,4.878586 -0.27431,0.2732 -0.50576,0.4781 -0.59149,0.575671 -1.10581,1.063532 -2.0059,1.873377 -2.96597,2.712493 -0.68578,0.604946 -1.38013,1.219646 -2.18591,1.951433 -2.93171,2.741765 -6.00056,5.561588 -9.18083,8.400922 -5.52051,4.937128 -11.5639,10.088913 -18.4731,15.972484 -6.24913,5.249357 -12.66971,10.508472 -18.81598,15.611469 -6.00055,4.937128 -12.1811,10.088912 -18.2245,15.104096 -1.10583,0.975717 -2.20306,1.892892 -3.26601,2.92715 l -2.57167,2.263665 -1.04581,0.8879 c -2.72595,2.29293 -4.01179,3.44428 -3.53174,4.67369 0.56576,1.44406 2.76024,2.92715 4.36325,3.98093 0.54862,0.36101 1.05438,0.68301 1.45727,0.97572 1.51728,1.14157 3.06885,2.21487 4.56899,3.25889 1.50012,1.04401 3.01741,2.08804 4.52611,3.22962 1.50872,1.14159 2.7174,2.08804 4.07182,3.14182 2.69166,2.08801 5.46049,4.24436 8.30644,6.19579 1.07154,0.72202 1.91161,1.44406 2.66596,1.95143 a 28.116823,32.003511 0 0 0 3.34317,2.29294 0.95151444,1.0830456 0 0 0 1.12296,-0.28296 41.45517,47.185664 0 0 0 3.4803,-5.76649 l 0.72007,-1.31721 c 4.77472,-8.64486 9.60088,-17.14335 14.26415,-25.319862 11.76106,-20.607139 22.87921,-40.082447 32.91725,-62.641019 l 1.71444,-3.746752 c 1.50015,-3.336952 1.77445,-3.902868 2.57166,-5.766487 a 0.18001624,0.20490053 0 0 0 0,-0.185386 0.16287184,0.1853862 0 0 0 -0.1543,0 c -16.67294,5.337172 -32.34292,11.318315 -48.93012,17.640961 -5.52908,2.117305 -11.2553,4.322424 -16.95583,6.429973 l -3.61746,1.44406 c -10.13234,3.815053 -20.40184,7.805735 -30.38845,11.708601 l -4.19182,1.629448 -17.32442,6.556817 -3.41173,1.190374 c -2.95741,1.112317 -6.00054,2.263663 -8.99225,3.561367 l -0.57433,0.24393 a 3.1545704,3.5906378 0 0 0 -1.58586,0.975716 c -0.23145,0.361014 -0.20573,0.556159 -0.18859,0.634216 0.0599,0.458587 0.6772,0.975717 1.01153,1.209888 a 68.209012,77.637786 0 0 0 7.59497,5.405472 c 5.24619,3.297923 10.28663,6.147016 15.71284,9.181495 l 2.8031,1.570904 a 8.8293682,10.049883 0 0 1 3.4889,2.92715 8.5722021,9.757168 0 0 1 1.11439,4.878594 c 0.29145,4.46877 0.44576,9.03513 0.60004,13.43561 a 179.27046,204.05166 0 0 0 1.56872,23.4172 1.8515957,2.1075483 0 0 1 0,0.35127 74.372426,84.65319 0 0 0 3.52318,-9.02537 l 6.00054,-17.2897 c 0.33432,-0.90743 0.85721,-2.44907 2.57166,-2.25392 a 3.4288809,3.9028671 0 0 1 1.62015,0.7513 l 7.28637,5.49329 c 0.9258,0.76106 2.31449,1.95143 1.85159,3.34671 a 6.8577617,7.8057344 0 0 1 -1.56014,2.81982 l -17.23013,18.11907 a 3.30887,3.7662669 0 0 1 -2.91454,0.97571 2.5716607,2.9271504 0 0 1 -1.15725,-0.66349 23.256385,26.471196 0 0 1 -4.20895,5.9226 c -5.43479,5.62014 -13.09832,7.21055 -19.15888,7.80574 a 70.712095,80.486879 0 0 1 -20.95902,-0.76107 c -3.42888,-0.78056 -6.76348,-1.90265 -10.00377,-2.98569 -6.23198,-2.07827 -12.12109,-4.01995 -18.47309,-3.90286 -6.85776,0.13659 -11.39245,2.00022 -13.92983,5.68843 a 22.021988,25.066165 0 0 0 -3.128849,7.95209 c -1.16582,4.16631 -2.34878,8.47898 -5.86339,10.39138 -4.2861,2.31245 -8.57219,-0.45858 -12.858297,-3.14181 -1.122964,-0.71226 -2.28878,-1.4343 -3.42888,-2.06851 -7.372094,-4.00045 -16.904383,-3.41502 -29.145488,1.78556 a 129.80029,147.74304 0 0 0 -28.296863,16.83111 0.49718772,0.56591574 0 0 1 -0.377177,0.0878 z M 189.73854,141.35242 a 1.3372635,1.5221181 0 0 0 0.85722,0.58542 2.2973502,2.6149211 0 0 0 2.07447,-0.70251 l 17.23013,-18.11906 a 6.2919963,7.1617613 0 0 0 1.45728,-2.30269 c 0.2143,-0.66349 -0.85722,-1.56115 -1.51728,-2.10756 h -0.0858 l -7.23494,-5.52256 a 2.460222,2.8003073 0 0 0 -1.17439,-0.55616 c -0.94295,-0.11701 -1.26869,0.55616 -1.61159,1.58067 l -6.00053,17.29947 a 66.777454,76.008338 0 0 1 -3.99464,9.84498 z"
     id="path3628"
     style="stroke-width:0.914551" />
</svg>
