<?xml version="1.0" encoding="UTF-8" standalone="no"?>
<svg
   xmlns:dc="http://purl.org/dc/elements/1.1/"
   xmlns:cc="http://creativecommons.org/ns#"
   xmlns:rdf="http://www.w3.org/1999/02/22-rdf-syntax-ns#"
   xmlns:svg="http://www.w3.org/2000/svg"
   xmlns="http://www.w3.org/2000/svg"
   xmlns:xlink="http://www.w3.org/1999/xlink"
   xmlns:sodipodi="http://sodipodi.sourceforge.net/DTD/sodipodi-0.dtd"
   xmlns:inkscape="http://www.inkscape.org/namespaces/inkscape"
   viewBox="0 0 290.99999 172.99999"
   version="1.1"
   id="svg3951"
   sodipodi:docname="overview-2-dark.svg"
   inkscape:version="1.0.1 (c497b03c, 2020-09-10)"
   width="291"
   height="173">
  <metadata
     id="metadata3955">
    <rdf:RDF>
      <cc:Work
         rdf:about="">
        <dc:format>image/svg+xml</dc:format>
        <dc:type
           rdf:resource="http://purl.org/dc/dcmitype/StillImage" />
        <dc:title></dc:title>
      </cc:Work>
    </rdf:RDF>
  </metadata>
  <sodipodi:namedview
     pagecolor="#ffffff"
     bordercolor="#666666"
     borderopacity="1"
     objecttolerance="10"
     gridtolerance="10"
     guidetolerance="10"
     inkscape:pageopacity="0"
     inkscape:pageshadow="2"
     inkscape:window-width="1664"
     inkscape:window-height="944"
     id="namedview3953"
     showgrid="false"
     inkscape:zoom="2.0153513"
     inkscape:cx="39.476945"
     inkscape:cy="90.879535"
     inkscape:window-x="-11"
     inkscape:window-y="25"
     inkscape:window-maximized="0"
     inkscape:current-layer="svg3951"
     inkscape:document-rotation="0"
     inkscape:pagecheckerboard="true" />
  <defs
     id="defs3661">
    <style
       id="style3651">.cls-1{fill:#1f132c;}.cls-2{fill:url(#Dégradé_sans_nom_6);}.cls-3{fill:url(#Dégradé_sans_nom_6-2);}.cls-4{fill:url(#Dégradé_sans_nom_6-3);}.cls-5{fill:url(#Dégradé_sans_nom_6-4);}</style>
    <linearGradient
       id="Dégradé_sans_nom_6"
       x1="278.98999"
       y1="9.5100002"
       x2="287.82001"
       y2="9.5100002"
       gradientTransform="matrix(1,0,0,-1,0,178.92)"
       gradientUnits="userSpaceOnUse">
      <stop
         offset="0"
         stop-color="#e6973e"
         id="stop3653" />
      <stop
         offset="1"
         stop-color="#d53731"
         id="stop3655" />
    </linearGradient>
    <linearGradient
       id="Dégradé_sans_nom_6-2"
       x1="19.99"
       y1="16.51"
       x2="28.82"
       y2="16.51"
       xlink:href="#D%C3%A9grad%C3%A9_sans_nom_6" />
    <linearGradient
       id="Dégradé_sans_nom_6-3"
       x1="-0.0099999998"
       y1="174.50999"
       x2="8.8199997"
       y2="174.50999"
       xlink:href="#D%C3%A9grad%C3%A9_sans_nom_6" />
    <linearGradient
       id="Dégradé_sans_nom_6-4"
       x1="282.98999"
       y1="168.50999"
       x2="291.82001"
       y2="168.50999"
       xlink:href="#D%C3%A9grad%C3%A9_sans_nom_6" />
  </defs>
  <path
     class="cls-1"
     d="m 215.09007,61.568275 a 12.458102,12.443718 0 0 0 2.38621,9.830537 7.6665241,7.6576725 0 0 0 1.61955,1.579395 l 15.67805,11.342927 a 7.5994421,7.5906679 0 0 0 0.95831,0.59347 7.1586169,7.1503517 0 0 0 2.97078,1.244372 c 2.66412,0.430744 5.10782,-0.708335 7.47486,-2.479172 1.5333,-0.957209 1.47581,-3.254511 -0.21083,-4.565887 l -12.4581,-9.572091 v -0.067 l 0.27791,0.22973 0.24916,-0.287163 0.16292,-0.191442 v 0 c 0.14374,-0.162725 0.28749,-0.315879 0.42165,-0.488176 l 3.03787,-0.287163 2.59703,2.393023 a 1.0445639,1.0433579 0 0 0 0.7379,0.239302 5.2611522,5.2550778 0 0 0 2.36704,-0.87106 l -0.58457,-0.440317 a 4.2645041,4.2595804 0 0 1 -1.78247,0.650903 0.44082514,0.44031617 0 0 1 -0.28749,-0.07658 c -0.13417,-0.114865 -0.29708,-0.765767 0.45999,-2.393023 a 20.038377,20.015242 0 0 1 2.82703,-4.250008 l -0.49832,-0.449888 -2.58746,-2.431311 -1.81121,-1.655972 -9.68857,-8.863756 v 0 l -5.83614,-5.465664 a 0.79540188,0.79448353 0 0 1 -0.24917,-0.564753 0.75706926,0.75619516 0 0 1 0.23958,-0.555181 l 1.32248,-1.407098 a 0.77623557,0.77533935 0 0 1 1.0254,0 l 5.9128,5.398659 9.64066,8.825468 1.80163,1.703832 2.65453,2.431311 0.14375,-0.134009 -0.14375,0.134009 0.49833,0.449888 c 2.09871,-1.914418 3.95784,-2.957776 4.84908,-2.957776 a 0.44082514,0.44031617 0 0 1 0.28749,0.07658 c 0.12458,0.105293 0.26833,0.698763 -0.33541,2.10586 l 0.51749,0.469032 a 4.2836704,4.2787245 0 0 0 0.54624,-2.584464 1.0733134,1.0720742 0 0 0 -0.27791,-0.497749 l -2.47246,-2.460027 0.1725,-3.378948 0.43124,-0.469032 v 0 l 6.70821,6.978054 1.79205,1.856985 0.89124,0.957209 0.4504,0.459461 0.22042,0.239302 0.26832,0.248874 a 4.1590894,4.1542874 0 0 0 1.32248,0.804056 3.3924369,3.3885201 0 0 0 2.16579,0.114865 2.2999572,2.2973018 0 0 0 1.91663,-1.301804 12.141858,12.127839 0 0 0 1.91663,-5.207218 7.8198546,7.810826 0 0 0 -0.24916,-3.38852 5.8361415,5.8294032 0 0 0 -0.37374,-0.957209 7.6665241,7.6576725 0 0 0 -0.60374,-1.05293 6.5644613,6.5568821 0 0 0 -0.6804,-0.861488 l -0.70916,-0.765767 -2.17537,-2.33559 -0.68041,-0.727479 c -1.91663,-2.010139 -3.77576,-4.02985 -5.69239,-6.030417 l -2.87495,-3.005637 c -0.47916,-0.497749 -0.95831,-1.005069 -1.44705,-1.493246 a 7.5706926,7.5619516 0 0 0 -1.66747,-1.244372 7.4652779,7.4566586 0 0 1 1.56205,1.340093 l 1.34164,1.579395 2.70245,3.15879 q 2.69287,3.15879 5.42407,6.279291 l 2.7312,3.120502 0.67082,0.765767 a 6.6027939,6.5951705 0 0 1 0.57499,0.784912 5.9223899,5.915552 0 0 1 0.65165,1.301804 c -2.98994,2.067571 -9.10399,-0.64133 -15.67804,-4.527599 a 0.56540616,0.56475335 0 0 0 0.12458,-0.172298 0.73790295,0.73705098 0 0 0 0.0958,-0.469032 v 0 a 0.85290081,0.85191607 0 0 0 -0.23958,-0.45946 L 237.61049,34.967435 a 14.556813,14.540006 0 0 1 5.53906,-1.837842 11.978944,11.965113 0 0 1 3.83327,0.18187 14.058489,14.042257 0 0 1 3.63201,1.349665 13.176838,13.161625 0 0 0 -3.57452,-1.598539 12.36227,12.347997 0 0 0 -3.92909,-0.402028 13.97224,13.956108 0 0 0 -3.90993,0.784911 16.971768,16.952173 0 0 0 -2.18496,0.957209 4.1495062,4.1447153 0 0 0 -4.73407,-0.574325 c -0.60374,-0.564754 -1.1979,-1.139079 -1.79206,-1.732549 -1.60997,-1.550678 -3.25827,-3.082213 -4.96407,-4.546743 -1.7058,-1.46453 -3.4691,-2.871627 -5.29948,-4.173431 a 43.200864,43.150985 0 0 0 -11.90228,-6.221859 45.251659,45.199412 0 0 1 11.59561,6.623887 c 1.77289,1.349664 3.47869,2.79505 5.12699,4.297868 1.64831,1.502819 3.27744,3.034353 4.85866,4.613748 0.75707,0.794484 1.54289,1.560251 2.33829,2.326018 a 7.6665241,7.6576725 0 0 0 0.80499,0.957209 l 14.59514,13.831671 0.74749,0.717907 H 248.0178 L 230.76812,34.249528 c -8.91234,-8.997765 -15.95596,-14.061401 -22.86541,-16.43528 a 20.670866,20.647 0 0 0 -7.47486,-1.215655 8.8260859,8.8158955 0 0 0 -3.59369,0.880632 16.291364,16.272554 0 0 1 8.26068,0 12.582683,12.568155 0 0 0 -3.4116,1.588967 16.473444,16.454424 0 0 0 -3.33494,2.871627 14.374733,14.358136 0 0 0 -0.95831,1.186939 22.884575,22.858153 0 0 1 -1.72497,-4.632891 c 0,1.914418 0.27791,3.828836 1.91663,7.715105 0.23,0.555181 0.49832,1.139078 0.80499,1.722976 a 3.0953591,3.0917853 0 0 0 0,0.421172 7.9156862,7.9065469 0 0 0 0.0862,0.957209 25.759521,25.72978 0 0 1 -1.55247,-3.024781 21.926259,21.900943 0 0 1 -1.50455,-6.997198 c -0.95832,2.259014 -0.65166,5.838975 0.95831,10.232565 2.72162,6.202715 9.31483,13.860387 18.65841,21.680785 l 17.93008,15.15262 a 7.8006883,7.7916818 0 0 1 0.8529,-2.632325 L 216.62338,49.450008 a 100.04814,99.932627 0 0 1 -14.70056,-14.951606 7.1586169,7.1503517 0 0 0 1.57164,1.05293 99.990641,99.875194 0 0 0 13.07142,12.86489 l 17.51801,14.817596 0.80498,-1.359236 -8.09776,-6.853617 a 26.430342,26.399826 0 0 1 1.52372,-2.527032 l 8.35651,6.987626 a 1.5620543,1.5602508 0 0 0 0.38333,0.22973 c -2.24246,2.957776 -3.83327,5.944268 -3.78535,7.772538 l -14.67181,-12.376714 -3.90034,-3.273655 c -1.29373,-1.091218 -2.58746,-2.182436 -3.83327,-3.311943 -2.51078,-2.259013 -4.92574,-4.632892 -7.19695,-7.112063 -1.13081,-1.253944 -2.22329,-2.527032 -3.24869,-3.828837 -0.52707,-0.660474 -1.00623,-1.349664 -1.49497,-2.029283 A 23.47873,23.451622 0 0 1 197.5529,33.4359 c -0.41208,-0.727479 -0.82415,-1.454958 -1.21706,-2.192009 l -0.52707,-1.119934 c -0.15333,-0.392456 -0.29708,-0.77534 -0.43125,-1.177367 a 22.999572,22.973018 0 0 1 -1.14039,-4.862622 9.9281488,9.9166859 0 0 1 0.45041,-4.872195 4.7915776,4.7860453 0 0 1 0.25874,-0.545609 4.6574134,4.6520361 0 0 1 0.31625,-0.516893 2.6641171,2.6610412 0 0 1 0.88165,-0.784911 7.5898589,7.5810958 0 0 1 2.28079,-0.957209 10.924797,10.912183 0 0 1 2.48203,-0.354168 18.418824,18.397558 0 0 1 2.52037,0.08615 23.152903,23.126171 0 0 1 4.96408,1.062502 23.632061,23.604776 0 0 0 -4.93533,-1.263516 16.291364,16.272554 0 0 0 -2.5587,-0.162725 10.96313,10.950472 0 0 0 -2.5587,0.27759 7.9156862,7.9065469 0 0 0 -2.42454,0.95721 l -0.1725,0.105293 -6.7082,-4.98706 -0.29708,-0.220158 0.24916,0.268019 5.65406,6.039989 -0.10541,0.172298 a 4.1878388,4.1830036 0 0 0 -0.29708,0.583897 10.59897,10.586732 0 0 0 -0.65166,5.140213 24.437046,24.408831 0 0 0 1.05415,5.03492 c 0.12458,0.411599 0.26833,0.823199 0.42166,1.225227 l 0.52707,1.186939 c 0.38333,0.765768 0.76666,1.541107 1.20748,2.278158 0.29708,0.526465 0.62291,1.033786 0.95832,1.541107 l 0.42166,0.64133 c 0.48874,0.698762 0.95831,1.416669 1.48538,2.096287 1.01582,1.378382 2.1083,2.689758 3.22953,3.98199 1.12123,1.292232 2.29037,2.536604 3.48827,3.75226 l 1.14998,1.119934 0.24916,0.239303 c 0.75707,0.737051 1.52372,1.464529 2.29995,2.172864 1.2554,1.148651 2.54912,2.259014 3.83327,3.359804 l 0.37374,0.315879 0.38333,0.335023 a 4.197422,4.1925757 0 0 0 1.40872,4.786046 0.86248397,0.86148816 0 0 1 -0.10542,0.268018 15.333048,15.315345 0 0 0 -0.88165,3.120501 z m 49.01784,0.497748 a 2.3191236,2.3164459 0 0 0 0.95832,-1.005069 15.812206,15.79395 0 0 0 1.52372,-2.967348 8.9506669,8.9403327 0 0 0 0.59416,-3.283227 8.2990124,8.2894305 0 0 1 -0.37375,3.350231 15.390547,15.372778 0 0 1 -1.35122,3.101358 2.3766225,2.3738785 0 0 1 -1.17873,1.263516 0.22041257,0.22015809 0 0 1 -0.28749,-0.105293 v 0 a 0.22999572,0.22973018 0 0 1 0.11499,-0.306307 v 0 z M 234.34263,34.30696 c -0.39291,0 -0.72832,-0.04786 -0.7379,-0.181869 -0.01,-0.13401 0.29708,-0.287163 0.68999,-0.325451 0.39291,-0.03829 0.71873,0 0.7379,0.191441 0.0192,0.191442 -0.29708,0.229731 -0.68999,0.315879 z m -10.33064,6.097422 c -0.7954,0.06701 -1.45664,-0.09572 -1.48539,-0.382883 -0.0288,-0.287163 0.59416,-0.564754 1.38956,-0.641331 0.7954,-0.07658 1.45664,0.09572 1.48539,0.382884 0.0288,0.287163 -0.59416,0.516893 -1.38956,0.59347 z m 26.1716,16.272554 a 7.1490338,7.1407796 0 0 0 -5.53906,0.957209 7.9252693,7.916119 0 0 1 3.83326,-2.096287 1.0541471,1.05293 0 0 1 0.6804,0.143581 z m -1.11165,-2.354734 v 0.478605 a 2.1274605,2.1250041 0 0 0 -0.60374,0 7.0819517,7.073775 0 0 0 -3.48826,1.521962 c 1.08289,-1.2348 2.94202,-2.192009 4.092,-2.077144 z M 200.5141,32.583984 a 5.7498931,5.7432544 0 0 1 -1.61956,-4.786045 8.7302544,8.7201746 0 0 1 2.52037,-5.302939 8.6248397,8.6148816 0 0 1 6.01822,-2.699329 5.5965626,5.590101 0 0 1 4.00576,1.569823 5.7498931,5.7432544 0 0 1 1.62914,4.786045 8.768587,8.758463 0 0 1 -2.52995,5.31251 8.5098418,8.5000165 0 0 1 -6.04698,2.680186 5.6157289,5.6092451 0 0 1 -3.977,-1.560251 z m 25.25161,21.575492 -8.27026,-6.949337 c -2.7887,-2.326018 -5.35699,-4.699897 -7.66653,-7.045059 a 22.117922,22.092385 0 0 1 3.10494,-5.025348 25.673273,25.643631 0 0 1 4.37951,-4.269152 13.799743,13.783811 0 0 1 5.50073,-2.689758 13.933908,13.91782 0 0 0 -5.7499,2.326018 25.81702,25.787212 0 0 0 -4.79157,4.048995 24.187884,24.159957 0 0 0 -3.41161,4.585031 c -1.02539,-1.081646 -1.99329,-2.15372 -2.92286,-3.20665 1.44706,-0.220158 3.21994,-1.177367 5.54865,-3.331088 6.32488,-6.346296 2.6737,-9.275356 -0.0767,-11.840676 l 0.345,0.325451 a 6.0757204,6.0687055 0 0 0 -4.32201,-1.675116 9.0369153,9.0264815 0 0 0 -6.33446,2.871627 9.8227341,9.811393 0 0 0 -2.1658,3.388521 l -0.11499,0.363739 -0.50791,-0.957209 c -0.15333,-0.315879 -0.29708,-0.612614 -0.44083,-0.890204 a 18.025915,18.005103 0 0 1 1.0829,-1.59854 16.291364,16.272554 0 0 1 3.00911,-3.015208 12.803095,12.788313 0 0 1 3.29661,-1.837842 c 4.71491,1.110363 9.8994,3.876697 15.03597,8.002268 1.85913,1.493246 3.12411,2.440883 4.79158,3.895841 6.7082,5.925124 13.77099,13.075476 22.93249,21.0586 -1.73456,0.287162 -4.01535,1.828269 -6.27697,3.905413 a 0.95831552,0.95720907 0 0 0 -0.23,-0.296735 l -7.94443,-7.849115 0.23958,-0.22973 a 18.409241,18.387986 0 0 1 4.79157,-3.273655 18.64882,18.627288 0 0 0 -5.09823,2.871627 l -0.29708,0.239303 -6.21947,-6.13571 a 4.4082514,4.4031617 0 0 0 -5.79781,6.604742 l 6.30572,5.226362 a 26.574089,26.543407 0 0 0 -1.72497,2.402594 z m 19.50172,27.759063 -0.1725,0.114866 a 10.742717,10.730314 0 0 1 -5.74989,2.507887 7.101118,7.0929192 0 0 1 -1.42789,-0.07658 6.7082086,6.7004635 0 0 1 -2.87495,-1.244372 l -10.87688,-7.858683 c 7.75278,5.025348 14.25974,10.634593 21.08294,6.576027 z"
     id="path3663"
     style="stroke-width:0.957762;fill:#d0d0d0;fill-opacity:0.81568629" />
  <path
     class="cls-1"
     d="m 243.51371,34.010226 a 11.931028,11.917253 0 0 0 -2.08912,0.296734 c 7.35028,-0.583897 10.25397,3.532102 13.69432,6.576027 -2.3862,-2.661042 -4.0345,-4.565888 -5.09823,-5.226362 a 10.608553,10.596304 0 0 0 -6.50697,-1.646399 z"
     id="path3665"
     style="stroke-width:0.957762;fill:#d0d0d0;fill-opacity:0.81568629" />
  <path
     class="cls-1"
     d="m 267.73993,129.3674 c 9.79398,-23.47077 2.7887,-52.100897 -17.35509,-69.282799 a 5.0119902,5.0062034 0 0 0 -2.19455,1.072074 l -0.10541,0.08615 -0.12458,0.09572 c -0.21083,0.153154 -0.42166,0.325452 -0.63249,0.497749 l 9.22858,8.452156 a 1.2074776,1.2060834 0 0 1 0.38332,0.890205 1.1883112,1.1869392 0 0 1 -0.36416,0.890204 l -0.75707,0.737051 a 1.2649765,1.263516 0 0 1 -1.7058,0 l -9.26691,-8.528733 -0.45999,0.555182 h -0.0479 l -0.0479,0.067 -0.38333,0.507321 c 21.86876,19.058033 28.95071,40.73882 18.208,67.96185 9.53524,-26.36154 0,-51.325556 -19.26214,-66.392027 a 4.5328324,4.5275989 0 0 0 -0.58458,1.598539 c 8.85484,6.346296 15.86012,16.272554 19.71255,27.873928 3.91951,11.83111 4.13034,24.20782 0.57499,34.85199 a 43.699188,43.648734 0 0 1 -18.9459,23.67178 c -7.57069,4.63289 -16.82802,7.50452 -27.63782,8.61488 11.49979,-0.8232 21.60044,-3.89584 30.22528,-9.17963 h 0.0575 a 55.007311,54.943801 0 0 0 4.56158,-3.13965 c 16.42553,-14.29113 25.29953,-45.94604 11.58603,-70.61332 a 57.671428,57.604842 0 0 1 5.33782,48.71238 z"
     id="path3667"
     style="stroke-width:0.957762;fill:#d0d0d0;fill-opacity:0.81568629" />
  <path
     class="cls-1"
     d="m 210.241,23.078898 a 3.4691022,3.4650968 0 0 0 -2.76953,-0.8232 6.8807054,6.8727611 0 0 0 -4.37951,2.086716 6.6123771,6.6047426 0 0 0 -2.00288,4.039422 3.3828538,3.378948 0 0 0 0.9104,2.92906 3.8332621,3.8288363 0 0 0 2.87495,0.957209 6.8998717,6.8919053 0 0 0 4.40825,-2.086716 6.7082086,6.7004635 0 0 0 1.9933,-4.02985 3.6320158,3.6278224 0 0 0 -1.03498,-3.072641 z m -3.31577,1.158223 c -1.0829,0 -1.91663,-0.22973 -1.97413,-0.603042 -0.0575,-0.373311 0.84331,-0.698762 1.91663,-0.737051 1.07331,-0.03829 1.91663,0.22973 1.97413,0.603042 0.0575,0.373312 -0.84332,0.698763 -1.91663,0.737051 z"
     id="path3669"
     style="stroke-width:0.957762;fill:#d0d0d0;fill-opacity:0.81568629" />
  <path
     class="cls-1"
     d="m 200.76326,28.35312 a 6.9957033,6.9876262 0 0 1 2.09871,-4.240436 7.2065327,7.1982122 0 0 1 4.6095,-2.182437 3.9003442,3.8958409 0 0 1 3.04744,0.957209 c -4.16867,-4.862622 -14.13515,3.828836 -8.62484,8.777607 a 3.9578431,3.9532735 0 0 1 -1.13081,-3.311943 z"
     id="path3671"
     style="stroke-width:0.957762;fill:#d0d0d0;fill-opacity:0.81568629" />
  <path
     class="cls-1"
     d="m 201.66407,23.222479 a 0.22041257,0.22015809 0 0 0 0.22042,-0.220158 v 0 a 0.22999572,0.22973018 0 0 0 -0.23,-0.22973 v 0 a 0.23957911,0.2393025 0 1 0 0,0.478605 z"
     id="path3673"
     style="stroke-width:0.957762;fill:#d0d0d0;fill-opacity:0.81568629" />
  <path
     class="cls-1"
     d="m 203.91612,21.528219 a 0.23957888,0.23930227 0 0 0 0.22041,-0.248874 0.22999572,0.22973018 0 0 0 -0.23,-0.22973 v 0 a 0.23957888,0.23930227 0 0 0 -0.22999,0.248874 v 0 a 0.24916203,0.24887436 0 0 0 0.23958,0.22973 z"
     id="path3675"
     style="stroke-width:0.957762;fill:#d0d0d0;fill-opacity:0.81568629" />
  <path
     class="cls-1"
     d="m 206.18732,20.743308 a 0.22999572,0.22973018 0 1 0 -0.25874,-0.258447 0.24916203,0.24887436 0 0 0 0.23958,0.258447 z"
     id="path3677"
     style="stroke-width:0.957762;fill:#d0d0d0;fill-opacity:0.81568629" />
  <path
     class="cls-1"
     d="m 208.49686,20.618871 a 0.24916203,0.24887436 0 0 0 0.23,-0.258447 0.23957888,0.23930227 0 0 0 -0.25875,-0.220158 v 0 a 0.23957911,0.2393025 0 0 0 0,0.478605 z"
     id="path3679"
     style="stroke-width:0.957762;fill:#d0d0d0;fill-opacity:0.81568629" />
  <path
     class="cls-1"
     d="m 210.51891,21.62394 a 0.23957888,0.23930227 0 1 0 0,-0.478604 0.23957888,0.23930227 0 0 0 -0.27791,0.220158 v 0 a 0.24916203,0.24887436 0 0 0 0.27791,0.258446 z"
     id="path3681"
     style="stroke-width:0.957762;fill:#d0d0d0;fill-opacity:0.81568629" />
  <path
     class="cls-1"
     d="m 211.9468,23.279912 a 0.23957888,0.23930227 0 0 0 0.22041,-0.258447 v 0 a 0.22041257,0.22015809 0 0 0 -0.19166,-0.248874 h -0.0863 a 0.23957888,0.23930227 0 0 0 -0.22999,0.248874 v 0 a 0.24916203,0.24887436 0 0 0 0.24916,0.248875 z"
     id="path3683"
     style="stroke-width:0.957762;fill:#d0d0d0;fill-opacity:0.81568629" />
  <path
     class="cls-1"
     d="m 212.64637,25.806944 a 0.22999572,0.22973018 0 0 0 0.23,-0.22973 v 0 a 0.23957888,0.23930227 0 1 0 -0.24917,0.248874 z"
     id="path3685"
     style="stroke-width:0.957762;fill:#d0d0d0;fill-opacity:0.81568629" />
  <path
     class="cls-1"
     d="m 211.97555,28.065957 a 0.23957911,0.2393025 0 0 0 0,0.478605 0.22999572,0.22973018 0 0 0 0.22999,-0.22973 v 0 a 0.24916203,0.24887436 0 0 0 -0.22999,-0.248875 z"
     id="path3687"
     style="stroke-width:0.957762;fill:#d0d0d0;fill-opacity:0.81568629" />
  <path
     class="cls-1"
     d="m 210.33683,30.612133 a 0.22999572,0.22973018 0 0 0 -0.23,0.229731 v 0 a 0.23958,0.23930339 0 1 0 0.47916,0 0.22999572,0.22973018 0 0 0 -0.21083,-0.248875 z"
     id="path3689"
     style="stroke-width:0.957762;fill:#d0d0d0;fill-opacity:0.81568629" />
  <path
     class="cls-1"
     d="m 207.78771,32.497835 a 0.23957888,0.23930227 0 0 0 -0.22041,0.258447 0.23958,0.23930339 0 1 0 0.47916,0 0.24916203,0.24887436 0 0 0 -0.23958,-0.258447 z"
     id="path3691"
     style="stroke-width:0.957762;fill:#d0d0d0;fill-opacity:0.81568629" />
  <path
     class="cls-1"
     d="m 204.94151,33.234886 a 0.23957888,0.23930227 0 0 0 -0.22999,0.248875 0.24916203,0.24887436 0 1 0 0.49832,0 0.24916203,0.24887436 0 0 0 -0.24916,-0.248875 z"
     id="path3693"
     style="stroke-width:0.957762;fill:#d0d0d0;fill-opacity:0.81568629" />
  <path
     class="cls-1"
     d="m 202.30615,32.79457 a 0.23957888,0.23930227 0 0 0 -0.22042,0.258447 0.22041257,0.22015809 0 0 0 0.22042,0.220158 v 0 a 0.22999572,0.22973018 0 0 0 0.22999,-0.229731 v 0 a 0.24916203,0.24887436 0 0 0 -0.22999,-0.248874 z"
     id="path3695"
     style="stroke-width:0.957762;fill:#d0d0d0;fill-opacity:0.81568629" />
  <path
     class="cls-1"
     d="m 200.38951,31.320468 a 0.24916203,0.24887436 0 0 0 -0.22999,0.258447 0.23957888,0.23930227 0 0 0 0.24916,0.220158 0.22999572,0.22973018 0 0 0 0.23,-0.229731 v 0 a 0.23957888,0.23930227 0 0 0 -0.24917,-0.22973 z"
     id="path3697"
     style="stroke-width:0.957762;fill:#d0d0d0;fill-opacity:0.81568629" />
  <path
     class="cls-1"
     d="m 199.4312,29.386906 a 0.23957888,0.23930227 0 0 0 -0.23,0.248874 v 0 a 0.24916203,0.24887436 0 0 0 0.25875,0.22973 0.23957888,0.23930227 0 0 0 0.22041,-0.248874 0.22999572,0.22973018 0 0 0 -0.22999,-0.22973 z"
     id="path3699"
     style="stroke-width:0.957762;fill:#d0d0d0;fill-opacity:0.81568629" />
  <path
     class="cls-1"
     d="m 199.55578,27.472488 a 0.23957888,0.23930227 0 0 0 -0.24916,-0.229731 v 0 a 0.24916203,0.24887436 0 1 0 0.24916,0.229731 z"
     id="path3701"
     style="stroke-width:0.957762;fill:#d0d0d0;fill-opacity:0.81568629" />
  <path
     class="cls-1"
     d="m 200.32243,25.19433 a 0.24916203,0.24887436 0 0 0 -0.25874,-0.22973 0.23957888,0.23930227 0 0 0 -0.22042,0.248874 0.22999572,0.22973018 0 0 0 0.23,0.22973 v 0 a 0.23957888,0.23930227 0 0 0 0.23,-0.248874 z"
     id="path3703"
     style="stroke-width:0.957762;fill:#d0d0d0;fill-opacity:0.81568629" />
  <path
     class="cls-1"
     d="m 229.70439,49.966901 24.61912,22.628422 a 0.89123343,0.89020443 0 0 0 0.61332,0.239302 0.95831552,0.95720907 0 0 0 0.63249,-0.248874 l 0.74749,-0.737051 a 0.88165028,0.88063234 0 0 0 0.25874,-0.469032 0.86248397,0.86148816 0 0 0 -0.14374,-0.679619 0.61332193,0.6126138 0 0 0 -0.12458,-0.143581 L 231.64977,47.966334 Z"
     id="path3705"
     style="stroke-width:0.957762;fill:#d0d0d0;fill-opacity:0.81568629" />
  <path
     class="cls-1"
     d="m 229.02398,54.475355 a 0.40249252,0.40202781 0 0 1 -0.45999,0.335024 0.38332621,0.38288363 0 0 1 0,-0.756196 h -0.0958 a 0.54623985,0.54560917 0 0 0 -0.51749,0.574326 0.54699597,0.54636442 0 1 0 1.09248,-0.05743 0.57498931,0.57432544 0 0 0 -0.115,-0.306307 0.2779115,0.27759063 0 0 1 0.0958,0.210586 z"
     id="path3707"
     style="stroke-width:0.957762;fill:#d0d0d0;fill-opacity:0.81568629" />
  <path
     class="cls-1"
     d="m 235.74177,46.386939 a 0.40249252,0.40202781 0 1 1 -0.42165,-0.373312 h -0.0958 a 0.54623985,0.54560917 0 0 0 -0.5079,0.574326 0.54623985,0.54560917 0 0 0 1.08289,-0.05743 0.57498931,0.57432544 0 0 0 -0.11499,-0.306307 0.4695746,0.46903244 0 0 1 0.0575,0.162726 z"
     id="path3709"
     style="stroke-width:0.957762;fill:#d0d0d0;fill-opacity:0.81568629" />
  <path
     class="cls-1"
     d="m 211.8893,39.849201 a 0.40249252,0.40202781 0 0 1 -0.37374,0.421172 0.40249252,0.40202781 0 0 1 -0.0479,-0.794484 h 0.0767 a 0.51749038,0.5168929 0 0 0 -0.1725,0 0.52707354,0.52646499 0 0 0 -0.44082,0.574326 0.5475832,0.54695098 0 0 0 1.09247,0.07658 0.63248824,0.63175799 0 0 0 0,-0.13401 0.56540616,0.56475335 0 0 0 -0.11499,-0.296735 0.41207567,0.4115999 0 0 1 -0.0192,0.153154 z"
     id="path3711"
     style="stroke-width:0.957762;fill:#d0d0d0;fill-opacity:0.81568629" />
  <path
     class="cls-1"
     d="m 214.58217,35.627909 a 0.40254956,0.40208478 0 1 1 -0.7954,0.124437 0.2779115,0.27759063 0 0 1 0,-0.124437 0.39290936,0.39245572 0 0 1 0.37374,-0.4116 h -0.0863 a 0.54623985,0.54560917 0 0 0 -0.51749,0.574325 v 0 a 0.53665669,0.53603708 0 0 0 0.56541,0.507321 v 0 a 0.52707354,0.52646499 0 0 0 0.5079,-0.545609 v 0 a 0.49832407,0.49774872 0 0 0 -0.10541,-0.306307 0.3641599,0.36373945 0 0 1 0.0575,0.18187 z"
     id="path3713"
     style="stroke-width:0.957762;fill:#d0d0d0;fill-opacity:0.81568629" />
  <path
     class="cls-1"
     d="m 218.3771,31.961798 a 0.42165883,0.42117199 0 1 1 -0.49833,-0.373311 v 0 a 0.54623985,0.54560917 0 0 0 -0.51749,0.574325 v 0 a 0.53665669,0.53603708 0 0 0 0.56541,0.507321 v 0 a 0.52707354,0.52646499 0 0 0 0.50791,-0.545609 v 0 a 0.49832407,0.49774872 0 0 0 -0.10542,-0.306307 0.4695746,0.46903244 0 0 1 0.0479,0.143581 z"
     id="path3715"
     style="stroke-width:0.957762;fill:#d0d0d0;fill-opacity:0.81568629" />
  <path
     class="cls-1"
     d="m 222.36369,29.980375 a 0.53665669,0.53603708 0 0 0 0.51749,-0.555181 v 0 a 0.57498931,0.57432544 0 0 0 -0.115,-0.306307 0.31624412,0.31587899 0 0 1 0.0575,0.18187 0.40249252,0.40202781 0 0 1 -0.37374,0.430744 0.4035182,0.40305231 0 0 1 -0.0575,-0.804056 h 0.0863 a 0.51749038,0.5168929 0 0 0 -0.1725,0 0.54623985,0.54560917 0 0 0 0.0575,1.081647 z"
     id="path3717"
     style="stroke-width:0.957762;fill:#d0d0d0;fill-opacity:0.81568629" />
  <path
     class="cls-1"
     d="m 199.36412,23.624507 a 0.40249252,0.40202781 0 0 1 -0.45999,0.335023 0.38332621,0.38288363 0 0 1 0,-0.756195 h -0.0958 a 0.54623985,0.54560917 0 0 0 -0.5079,0.574326 0.52707354,0.52646499 0 0 0 0.54624,0.50732 v 0 a 0.54623985,0.54560917 0 0 0 0.52707,-0.50732 0.57498931,0.57432544 0 0 0 -0.115,-0.306307 0.71873664,0.7179068 0 0 1 0.10542,0.153153 z"
     id="path3719"
     style="stroke-width:0.957762;fill:#d0d0d0;fill-opacity:0.81568629" />
  <path
     class="cls-1"
     d="m 205.65067,18.551299 a 0.40249252,0.40202781 0 1 1 -0.79541,0 v 0 a 0.39290936,0.39245572 0 0 1 0.37375,-0.4116 h -0.0863 a 0.54623985,0.54560917 0 0 0 -0.51749,0.574326 v 0 a 0.53665669,0.53603708 0 0 0 0.56541,0.50732 v 0 a 0.52707354,0.52646499 0 0 0 0.5079,-0.545609 v 0 a 0.57498931,0.57432544 0 0 0 -0.115,-0.306307 0.25874519,0.25844645 0 0 1 0.0671,0.18187 z"
     id="path3721"
     style="stroke-width:0.957762;fill:#d0d0d0;fill-opacity:0.81568629" />
  <path
     class="cls-1"
     d="m 202.09532,20.590154 a 0.40249252,0.40202781 0 0 1 -0.46,0.335024 0.38332621,0.38288363 0 0 1 0,-0.756196 h -0.0192 a 0.53665669,0.53603708 0 0 0 -0.51749,0.555182 v 0 a 0.54758347,0.54695125 0 0 0 1.09248,0.07658 0.63248824,0.63175799 0 0 0 0,-0.134009 0.48874091,0.48817662 0 0 0 -0.10542,-0.296735 0.32582728,0.32545108 0 0 1 0.01,0.220158 z"
     id="path3723"
     style="stroke-width:0.957762;fill:#d0d0d0;fill-opacity:0.81568629" />
  <path
     class="cls-1"
     d="m 238.03215,44.137498 a 0.53665669,0.53603708 0 0 0 0.5654,0.50732 v 0 a 0.52707354,0.52646499 0 0 0 0.50791,-0.545609 v 0 a 0.57498931,0.57432544 0 0 0 -0.115,-0.306307 0.31624412,0.31587899 0 0 1 0.0575,0.18187 0.40249252,0.40202781 0 0 1 -0.37374,0.430744 0.4035182,0.40305231 0 1 1 -0.0575,-0.804056 h -0.0863 a 0.53665669,0.53603708 0 0 0 -0.49832,0.536038 z"
     id="path3725"
     style="stroke-width:0.957762;fill:#d0d0d0;fill-opacity:0.81568629" />
  <path
     class="cls-1"
     d="m 131.46746,37.638048 -0.18208,0.067 -3.45952,1.091218 -3.60326,1.158223 c -2.30954,0.756195 -4.58075,1.521962 -6.85196,2.316446 a 17.55634,17.53607 0 0 0 -3.32535,-2.134576 20.124626,20.10139 0 0 0 -5.23241,-1.703833 26.162014,26.131808 0 0 0 -5.47198,-0.373311 34.499359,34.459526 0 0 0 -5.424062,0.660474 35.457674,35.416736 0 0 1 5.424062,-0.4116 25.424111,25.394757 0 0 1 5.38574,0.545609 19.386723,19.364339 0 0 1 5.04073,1.82827 17.37426,17.3542 0 0 1 3.00912,2.048427 1.3991407,1.3975252 0 0 0 -0.1725,0.36374 c -3.70868,-3.015209 -8.33735,-4.44145 -14.21182,-4.058567 a 37.613884,37.570456 0 0 0 -4.264506,0.555181 7.4269453,7.4183703 0 0 1 1.46623,-0.957209 7.6665241,7.6576725 0 0 0 -1.619557,1.014642 l -1.648303,0.344595 a 66.813758,66.736616 0 0 0 -20.239623,9.007338 c 0.15333,-0.315879 0.316244,-0.622186 0.498324,-0.957209 l 0.33541,-0.239303 0.958316,-0.650902 c 0.680404,-0.430744 1.370391,-0.861488 2.060378,-1.273088 a 64.149641,64.075575 0 0 1 8.62484,-4.317013 39.875509,39.829469 0 0 1 4.561582,-1.636827 c 1.552471,-0.478605 3.114525,-0.890205 4.705329,-1.215656 a 49.180752,49.123969 0 0 0 -9.410659,2.488744 66.210019,66.133575 0 0 0 -8.77817,4.096854 c -0.709153,0.392456 -1.418307,0.804056 -2.117877,1.215656 l -1.044564,0.650902 -0.258745,0.172298 a 4.2645041,4.2595804 0 0 0 -5.4049,0 l -11.29854,8.030984 a 23.421231,23.39419 0 0 0 -3.478685,0 26.430342,26.399826 0 0 1 3.5841,0.277591 30.388185,30.3531 0 0 1 3.459519,0.727478 l -0.36416,1.579395 -0.325827,-0.210586 c -0.354577,-0.09572 -0.862484,-0.220158 -1.475806,-0.344595 -0.613322,-0.124437 -1.332059,-0.239302 -2.108294,-0.335023 -0.39291,0 -0.785819,-0.07658 -1.197895,-0.09572 -0.412075,-0.01914 -0.833734,0 -1.24581,0 a 8.8260859,8.8158955 0 0 0 -1.236227,0.05743 c -0.402492,0.05743 -0.814568,0.07658 -1.197894,0.143581 -0.383326,0.06701 -0.757069,0.143581 -1.102063,0.22973 -0.344994,0.08615 -0.661238,0.201014 -0.958316,0.287163 -0.297077,0.08615 -0.555823,0.220158 -0.795401,0.306307 -0.239579,0.08615 -0.39291,0.181869 -0.584573,0.287162 l -0.507907,0.268019 0.51749,-0.248874 c 0.191663,-0.09572 0.39291,-0.18187 0.594156,-0.258447 0.201246,-0.07658 0.527073,-0.201014 0.795402,-0.287163 0.268328,-0.08615 0.613322,-0.191441 0.958315,-0.248874 0.344994,-0.05743 0.709154,-0.143581 1.09248,-0.18187 0.383326,-0.03829 0.785819,-0.07658 1.188311,-0.09572 0.402493,-0.01914 0.814568,0 1.226644,0 a 6.545295,6.5377379 0 0 1 1.226644,0.07658 c 0.402492,0.07658 0.795402,0.08615 1.178728,0.134009 0.757069,0.124438 1.466223,0.258447 2.060378,0.402028 0.594156,0.143582 1.09248,0.296735 1.427891,0.392456 l 0.364159,0.124437 0.249162,-0.18187 -10.158144,6.997199 v 0.603041 a 0.8337345,0.83277189 0 0 0 0.06708,0.162726 0.20124626,0.2010139 0 0 0 0,0.105293 l 0.07666,0.162726 0.06708,0.105293 a 0.82415135,0.8231998 0 0 0 0.09583,0.153153 v 0 l -3.909927,2.278158 -2.041212,1.196511 -0.517491,0.287163 a 4.072841,4.0681385 0 0 1 -0.469574,0.201014 3.0378602,3.0343527 0 0 1 -1.015815,0.153153 5.5678132,5.5613847 0 0 1 -2.108294,-0.564753 7.6665241,7.6576725 0 0 1 -1.916631,-1.273088 2.8749466,2.8716272 0 0 1 -0.622905,-3.828837 4.0632578,4.0585664 0 0 1 0.670821,-0.842344 c 0.249162,-0.239302 0.594155,-0.488176 0.891233,-0.737051 l 1.849549,-1.51239 3.708681,-3.005636 0.958316,-0.746624 a 10.982296,10.969616 0 0 1 0.958315,-0.737051 9.5256563,9.5146581 0 0 1 1.983713,-1.033785 15.534295,15.516359 0 0 1 4.609498,-1.024214 14.623895,14.60701 0 0 0 -4.714912,0.746623 9.7748183,9.7635325 0 0 0 -2.18496,1.05293 c -0.689987,0.449888 -1.284143,0.957209 -1.916631,1.426242 l -3.833262,2.871627 -1.916631,1.435813 c -0.316244,0.248875 -0.622905,0.459461 -0.958315,0.756196 a 4.6861629,4.6807523 0 0 0 -0.833735,0.957209 3.7182642,3.7139712 0 0 0 0.69957,4.85305 5.864891,5.8581195 0 0 0 0.958316,0.794483 7.6665241,7.6576725 0 0 0 1.09248,0.622186 6.1619688,6.1548543 0 0 0 2.472454,0.660474 3.7086811,3.7043991 0 0 0 1.332058,-0.181869 2.9803613,2.9769202 0 0 0 0.622905,-0.268019 l 0.527074,-0.296735 2.079545,-1.158223 3.833262,-2.134576 c -0.642072,1.665544 -0.297078,4.345729 1.073313,6.949338 1.370391,2.603608 3.382854,4.460594 5.126988,4.910482 l -1.447056,0.564754 -4.638248,1.837841 v 0 a 6.9286212,6.9206216 0 0 0 -1.418307,0.861488 4.4370009,4.431878 0 0 0 -1.111646,1.311377 4.7915776,4.7860453 0 0 0 -0.354576,0.784911 5.8744741,5.8676916 0 0 0 -0.201247,0.832772 6.9477875,6.9397657 0 0 0 -0.06708,1.665544 6.1236362,6.1165659 0 0 0 0.105415,0.813627 7.3119474,7.3035052 0 0 0 0.162914,0.794484 5.0599059,5.0540639 0 0 0 0.632488,1.550679 2.8078645,2.8046226 0 0 0 1.437473,1.110362 5.0886554,5.0827802 0 0 0 2.539536,0.201014 l 0.776236,-0.143581 1.533305,-0.287163 3.057026,-0.59347 c 2.041212,-0.382883 4.082424,-0.804055 6.123636,-1.206083 v 0 a 10.148561,10.136844 0 0 0 3.037861,-1.837841 17.249679,17.229763 0 0 0 2.395788,-2.546177 26.238679,26.208384 0 0 0 3.306189,-5.637961 l 0.143747,-0.344595 a 4.877826,4.8721942 0 0 0 1.09248,-0.306307 l 1.494972,-0.4116 c 2.788698,-0.784911 6.928621,-1.914418 7.589859,-2.067572 a 4.6861629,4.6807523 0 0 0 2.874947,-2.278157 l 0.51749,-0.162726 1.370391,-0.430744 a 82.415135,82.31998 0 0 0 9.976059,-4.48931 52.9086,52.847513 0 0 0 9.13275,-6.068706 29.094459,29.060867 0 0 0 7.0532,-8.442584 19.434639,19.4122 0 0 0 1.91663,-5.216789 18.639237,18.617716 0 0 0 0.35458,-3.646967 l 6.22905,-3.828836 3.23911,-2.019711 1.52372,-1.033786 0.80498,-0.497749 a 7.0627854,7.0546308 0 0 1 0.83374,-0.45946 z m -14.18307,7.657672 c -2.75995,8.892473 -13.30142,16.081113 -22.999568,20.895874 a 5.5198974,5.5135242 0 0 0 1.063731,-1.33052 C 104.28963,60.26647 113.96862,53.585151 117.16939,45.142567 Z M 97.159769,40.75855 a 38.533867,38.489377 0 0 1 6.104471,-0.95721 c 5.41448,-0.354167 9.76523,0.813628 13.33017,3.321516 a 1.5620543,1.5602508 0 0 0 -0.0671,0.287163 2.1370436,2.1345762 0 0 0 0.52708,1.655971 c -3.12411,5.513525 -8.9315,10.29957 -15.15097,14.176267 a 15.208467,15.190908 0 0 1 -3.833256,-4.029851 17.173014,17.153187 0 0 1 -2.44371,-5.685821 12.314354,12.300137 0 0 1 0.09583,-6.183571 8.2702629,8.2607143 0 0 1 1.322475,-2.584464 z m -0.373743,0.09572 a 8.8356691,8.8254676 0 0 0 -1.351225,2.440884 12.659348,12.644732 0 0 0 -0.383326,6.375012 17.73842,17.71794 0 0 0 2.271208,6.030417 16.502193,16.48314 0 0 0 3.574517,4.192576 c -1.629136,0.957209 -3.287023,1.914418 -4.916159,2.785478 a 13.263087,13.247774 0 0 0 -1.916631,-7.60024 c -2.673701,-4.910482 -6.708209,-7.963979 -10.7523,-5.743254 l -2.395789,1.416669 c -3.833262,2.297302 -4.839494,7.944835 -2.252042,12.730881 0.105415,0.201014 0.220413,0.392456 0.344994,0.583897 l 0.08625,0.143582 q 0.172497,0.27759 0.344994,0.516893 v 0 l 0.392909,0.516892 0.07667,0.153154 0.373743,0.430744 0.0575,0.05743 c 0.143747,0.162725 0.297077,0.306306 0.440825,0.45946 l 0.114998,0.105293 0.402492,0.354167 0.07667,0.07658 0.488741,0.382884 0.114998,0.07658 c 0.134164,0.105293 0.277912,0.201014 0.421659,0.296735 l 0.09583,0.06701 0.517491,0.306307 0.114998,0.05743 a 3.8332621,3.8288363 0 0 0 0.440825,0.22973 h -0.06708 l -2.098711,0.794484 a 20.421704,20.398125 0 0 1 -3.660766,-4.250008 19.16631,19.144181 0 0 1 -2.443704,-5.62839 16.387195,16.368275 0 0 1 -0.431242,-6.13571 13.588914,13.573225 0 0 1 0.555823,-2.393022 68.644141,68.564886 0 0 1 21.370436,-9.849682 z m -6.209885,26.955008 a 6.7082086,6.7004635 0 0 1 -3.152858,0.784911 c -3.210357,0 -6.459046,-2.144148 -8.26068,-5.465664 a 10.666052,10.653737 0 0 1 -1.169144,-7.073775 7.1107011,7.1024913 0 0 1 3.449935,-5.015775 6.5740445,6.5664542 0 0 1 3.152858,-0.784912 c 3.210357,0 6.449464,2.144149 8.26068,5.465664 2.510787,4.62332 1.494972,10.060268 -2.280791,12.089551 z M 66.915331,56.05475 a 0.42165883,0.42117199 0 0 1 0.594156,-0.067 v 0 a 0.42165883,0.42117199 0 0 1 0.09583,0.583897 0.41207567,0.4115999 0 0 1 -0.574989,0.07658 v 0 a 0.42165883,0.42117199 0 0 1 -0.114998,-0.59347 z m -0.852901,1.512391 a 0.95831552,0.95720907 0 1 1 0.249162,1.33052 v 0 A 0.95831552,0.95720907 0 0 1 66.06243,57.567141 Z M 56.057616,73.552532 c -1.207477,-2.316446 -1.370391,-4.364873 -0.958315,-5.389087 l -0.268329,-0.162725 0.412076,0.239302 h 0.0575 a 4.139923,4.1351432 0 0 0 0.431242,0.18187 l 5.155737,-2.871628 v 0.430744 a 13.703912,13.68809 0 0 0 1.264977,4.872195 16.166783,16.148117 0 0 0 2.731199,4.058566 c 0.08625,0.105293 0.18208,0.210586 0.277912,0.306307 l -4.322003,1.521962 -0.383326,-0.268018 a 11.758531,11.744955 0 0 1 -1.27456,-0.957209 12.525184,12.510723 0 0 1 -1.648303,-1.914418 10.301892,10.289997 0 0 1 -1.197894,-2.211153 10.081479,10.069839 0 0 1 -0.651655,-2.421739 10.292309,10.280425 0 0 0 1.418307,4.929626 13.128923,13.113764 0 0 0 1.188311,1.722977 c 0.114998,0.134009 0.220413,0.268018 0.344994,0.402028 a 13.358918,13.343494 0 0 0 1.533305,1.407097 l -0.0575,0.248874 c -0.88165,-0.172297 -2.6737,-1.454958 -4.053675,-4.125571 z m 9.793985,14.358136 -11.921445,2.421739 a 4.7915776,4.7860453 0 0 1 -1.523722,-0.04786 2.1274605,2.1250041 0 0 1 -0.498324,-0.516893 6.5932108,6.5855984 0 0 1 -0.747486,-2.756762 6.0948867,6.0878497 0 0 1 0,-1.445386 5.4144827,5.4082312 0 0 1 0.162914,-0.679618 4.6765797,4.6711803 0 0 1 0.277911,-0.631758 3.6320158,3.6278224 0 0 1 0.891234,-1.05293 6.238634,6.231431 0 0 1 1.284142,-0.708335 l 4.609498,-1.914418 1.916631,-0.77534 a 5.6061458,5.599673 0 0 0 0.814568,1.59854 l 12.458102,-3.378948 c -0.967899,2.890771 -4.274087,9.007337 -7.724023,9.887969 z M 75.712668,74.77776 a 0.7474861,0.74662307 0 0 1 -0.900817,0.555181 h -0.0575 a 0.75706926,0.75619516 0 0 1 -0.584572,-0.899776 c 0,0 0,0 0,-0.05743 a 0.76665241,0.76576725 0 0 1 1.485389,0.373312 z m 1.082896,0.354167 a 0.39290936,0.39245572 0 0 1 -0.459991,0.287163 0.38356571,0.38312285 0 0 1 0.172496,-0.746623 v 0 a 0.39290936,0.39245572 0 0 1 0.249162,0.45946 z M 117.5623,48.913971 a 18.581738,18.560284 0 0 1 -1.91663,4.920054 27.676152,27.644198 0 0 1 -6.91903,7.983124 53.933997,53.871726 0 0 1 -8.960256,5.810259 85.778822,85.679784 0 0 1 -9.85148,4.326585 c -0.421659,0.162726 -0.833735,0.306307 -1.245811,0.449888 l -1.293726,0.392456 -2.597035,0.784911 -4.590331,1.387954 -0.402492,0.124437 a 12.400603,12.386285 0 0 0 -4.52325,-2.28773 5.8265584,5.8198311 0 0 0 -3.526601,0.114865 l -5.634895,1.981423 -0.335411,-0.287163 a 15.42888,15.411066 0 0 1 -3.229523,-3.934129 13.167255,13.152053 0 0 1 -1.619553,-4.690324 v -0.402028 l 5.309068,-3.063069 0.134164,-0.06701 a 4.5807482,4.5754593 0 0 0 1.188311,-0.957209 4.8874091,4.8817662 0 0 0 0.54624,-0.842344 14.077655,14.061401 0 0 0 0.776236,-1.962279 10.483972,10.471867 0 0 0 0.450408,-3.733115 1.2745596,1.2730881 0 0 0 -0.718737,-1.05293 l 0.335411,-0.239302 3.124108,-2.268586 3.938677,-2.871627 0.594156,-0.421172 a 8.2990124,8.2894305 0 0 0 -0.536657,0.957209 c -0.536657,0.354168 -1.073313,0.708335 -1.600387,1.072074 l -5.16532,3.828837 a 1.6866353,1.684688 0 0 1 0.402492,0.957209 l 5.424066,-4.02985 0.201246,-0.13401 a 13.148089,13.132908 0 0 0 -0.574989,2.268586 16.387195,16.368275 0 0 0 0.258745,6.250575 21.5046,21.479771 0 0 0 2.30954,5.858119 21.130857,21.10646 0 0 0 3.239107,4.288297 l -7.53236,2.871627 h 0.680404 a 5.8840573,5.8772637 0 0 1 1.686635,0.239303 l 0.651655,0.201013 9.966481,-3.608678 -0.344993,-0.07658 0.469574,0.09572 h 0.143748 a 5.309068,5.3029382 0 0 0 0.546239,0.06701 h 0.833735 l -2.529953,0.957209 -8.346928,2.775906 a 11.499786,11.486509 0 0 1 3.066609,1.713405 l 8.691922,-2.651469 a 74.489865,74.403861 0 0 0 16.396781,-8.174566 0.60373878,0.60304171 0 0 0 0.22041,-0.153153 c 6.60279,-4.57546 12.03644,-10.653737 12.4006,-18.186973 a 1.6099701,1.6081112 0 0 0 0.37374,0.153154 17.000517,16.980889 0 0 1 -0.36416,3.264083 z m 13.13851,-10.902612 -0.55582,0.277591 -12.71685,5.829403 a 1.111646,1.1103625 0 0 1 0.13416,-1.10079 c 2.37663,-0.851916 4.79158,-1.742121 7.08196,-2.632325 1.17872,-0.449888 2.34787,-0.957209 3.50743,-1.368809 l 2.77912,-1.110363 z"
     id="path3727"
     style="stroke-width:0.957762;fill:#d0d0d0;fill-opacity:0.81568629" />
  <path
     class="cls-1"
     d="m 81.194232,62.123456 a 8.3565113,8.3468631 0 0 1 -0.574989,-7.226929 4.7915776,4.7860453 0 0 1 2.098711,-2.316446 l 0.431242,-0.210585 a 4.2070051,4.2021478 0 0 0 -0.804985,0.335023 4.7915776,4.7860453 0 0 0 -2.089128,2.326018 8.3660945,8.3564352 0 0 0 0.613322,7.217356 c 1.916631,3.512957 5.567813,5.26465 8.375678,4.135143 -2.798282,0.842344 -6.219468,-0.899776 -8.049851,-4.25958 z"
     id="path3729"
     style="stroke-width:0.957762;fill:#d0d0d0;fill-opacity:0.81568629" />
  <path
     class="cls-1"
     d="m 83.475023,52.264203 -0.105414,0.05743 a 4.7915776,4.7860453 0 0 0 -2.089128,2.326018 8.3660945,8.3564352 0 0 0 0.54624,7.217356 c 1.7633,3.244939 5.021573,4.98706 7.724023,4.336158 h 0.07667 a 4.7915776,4.7860453 0 0 0 2.098711,-2.326018 8.337345,8.3277189 0 0 0 -0.574989,-7.217357 c -1.71539,-3.273653 -4.96408,-5.025345 -7.676113,-4.393587 z m 4.101591,3.168362 c -0.114998,0.344595 -0.804985,0.430744 -1.542888,0.191441 -0.737903,-0.239302 -1.226644,-0.727479 -1.111646,-1.072074 0.114998,-0.344595 0.804985,-0.440316 1.533305,-0.191442 0.728319,0.248875 1.255393,0.727479 1.140395,1.072075 z"
     id="path3731"
     style="stroke-width:0.957762;fill:#d0d0d0;fill-opacity:0.81568629" />
  <path
     class="cls-1"
     d="m 79.91009,62.573344 a 0.30666097,0.3063069 0 0 0 -0.402493,0.153154 0.31624412,0.31587899 0 0 0 0.153331,0.4116 0.31089944,0.31054048 0 0 0 0.258745,-0.564754 z"
     id="path3733"
     style="stroke-width:0.957762;fill:#d0d0d0;fill-opacity:0.81568629" />
  <path
     class="cls-1"
     d="m 91.774036,65.89486 a 0.30666097,0.3063069 0 0 0 -0.412076,0.143581 v 0 a 0.30666097,0.3063069 0 0 0 0.162914,0.402028 v 0 a 0.30733404,0.3069792 0 0 0 0.316244,-0.526465 z"
     id="path3735"
     style="stroke-width:0.957762;fill:#d0d0d0;fill-opacity:0.81568629" />
  <path
     class="cls-1"
     d="m 89.397413,67.378534 a 0.30666097,0.3063069 0 0 0 -0.402492,0.153153 0.31624412,0.31587899 0 0 0 0.15333,0.4116 0.30666097,0.3063069 0 0 0 0.402493,-0.162725 v 0 a 0.29707781,0.29673481 0 0 0 -0.143748,-0.392456 z"
     id="path3737"
     style="stroke-width:0.957762;fill:#d0d0d0;fill-opacity:0.81568629" />
  <path
     class="cls-1"
     d="m 86.733296,67.684841 a 0.29707781,0.29673481 0 0 0 -0.383326,0.124437 0.30733404,0.3069792 0 1 0 0.527073,0.315879 v -0.067 a 0.30666097,0.3063069 0 0 0 -0.143747,-0.373311 z"
     id="path3739"
     style="stroke-width:0.957762;fill:#d0d0d0;fill-opacity:0.81568629" />
  <path
     class="cls-1"
     d="m 84.126678,66.852069 a 0.30666097,0.3063069 0 0 0 -0.402493,0.162725 v 0 a 0.30733424,0.3069794 0 0 0 0.527074,0.315879 v -0.067 a 0.30666097,0.3063069 0 0 0 -0.143747,-0.4116 z"
     id="path3741"
     style="stroke-width:0.957762;fill:#d0d0d0;fill-opacity:0.81568629" />
  <path
     class="cls-1"
     d="M 81.740472,65.100376 A 0.30666097,0.3063069 0 0 0 81.33798,65.25353 0.30666097,0.3063069 0 1 0 81.740472,65.100376 Z"
     id="path3743"
     style="stroke-width:0.957762;fill:#d0d0d0;fill-opacity:0.81568629" />
  <path
     class="cls-1"
     d="m 78.846359,59.653857 a 0.30666097,0.3063069 0 0 0 -0.402492,0.153153 0.30893602,0.30857933 0 1 0 0.565406,0.248874 0.30666097,0.3063069 0 0 0 -0.162914,-0.402027 z"
     id="path3745"
     style="stroke-width:0.957762;fill:#d0d0d0;fill-opacity:0.81568629" />
  <path
     class="cls-1"
     d="m 78.798444,56.897094 a 0.31624412,0.31587899 0 0 0 -0.153331,-0.4116 0.30666097,0.3063069 0 0 0 -0.402492,0.162726 v 0 a 0.29707781,0.29673481 0 0 0 0.143747,0.392456 v 0 a 0.30666097,0.3063069 0 0 0 0.412076,-0.143582 z"
     id="path3747"
     style="stroke-width:0.957762;fill:#d0d0d0;fill-opacity:0.81568629" />
  <path
     class="cls-1"
     d="m 79.584262,54.102044 a 0.31624412,0.31587899 0 0 0 -0.15333,-0.4116 0.30666097,0.3063069 0 0 0 -0.402493,0.162726 v 0 a 0.29707781,0.29673481 0 0 0 0.143748,0.392455 v 0 a 0.30666097,0.3063069 0 0 0 0.412075,-0.143581 z"
     id="path3749"
     style="stroke-width:0.957762;fill:#d0d0d0;fill-opacity:0.81568629" />
  <path
     class="cls-1"
     d="m 81.050485,52.187626 a 0.30666097,0.3063069 0 0 0 0.402493,-0.153154 0.31624412,0.31587899 0 0 0 -0.153331,-0.4116 0.30666097,0.3063069 0 0 0 -0.402492,0.153154 0.31624412,0.31587899 0 0 0 0.15333,0.4116 z"
     id="path3751"
     style="stroke-width:0.957762;fill:#d0d0d0;fill-opacity:0.81568629" />
  <path
     class="cls-1"
     d="m 84.088345,51.211273 a 0.31089944,0.31054048 0 0 0 0.258745,-0.564754 v 0 a 0.3089363,0.30857961 0 1 0 -0.249162,0.564754 z"
     id="path3753"
     style="stroke-width:0.957762;fill:#d0d0d0;fill-opacity:0.81568629" />
  <path
     class="cls-1"
     d="m 87.308285,51.929179 a 0.31089919,0.31054023 0 0 0 0.258746,-0.564753 v 0 a 0.30666097,0.3063069 0 0 0 -0.402493,0.153153 0.31624412,0.31587899 0 0 0 0.143747,0.4116 z"
     id="path3755"
     style="stroke-width:0.957762;fill:#d0d0d0;fill-opacity:0.81568629" />
  <path
     class="cls-1"
     d="m 90.279063,53.910602 a 0.30666097,0.3063069 0 0 0 0.412076,-0.143581 v 0 a 0.30666097,0.3063069 0 0 0 -0.15333,-0.402028 0.31624412,0.31587899 0 0 0 -0.412076,0.153153 0.30666097,0.3063069 0 0 0 0.15333,0.392456 z"
     id="path3757"
     style="stroke-width:0.957762;fill:#d0d0d0;fill-opacity:0.81568629" />
  <path
     class="cls-1"
     d="m 92.368191,56.64822 a 0.29707781,0.29673481 0 0 0 0.143748,0.392456 v 0 a 0.30666097,0.3063069 0 0 0 0.383326,-0.201014 0.29707781,0.29673481 0 0 0 -0.134164,-0.354168 0.29707781,0.29673481 0 0 0 -0.39291,0.143582 z"
     id="path3759"
     style="stroke-width:0.957762;fill:#d0d0d0;fill-opacity:0.81568629" />
  <path
     class="cls-1"
     d="m 93.431922,60.477056 a 0.29707781,0.29673481 0 0 0 0.392909,-0.143581 v 0 a 0.30666097,0.3063069 0 0 0 -0.201246,-0.382884 0.29707781,0.29673481 0 0 0 -0.354577,0.13401 0.2779115,0.27759063 0 0 0 0.124581,0.382883 z"
     id="path3761"
     style="stroke-width:0.957762;fill:#d0d0d0;fill-opacity:0.81568629" />
  <path
     class="cls-1"
     d="m 93.134844,63.923009 a 0.31624412,0.31587899 0 0 0 0.412075,-0.162726 0.30666097,0.3063069 0 0 0 -0.15333,-0.402027 0.31089918,0.31054022 0 0 0 -0.258745,0.564753 z"
     id="path3763"
     style="stroke-width:0.957762;fill:#d0d0d0;fill-opacity:0.81568629" />
  <path
     class="cls-1"
     d="m 41.30914,65.990581 c -0.08625,-0.36374 0.450409,-0.890205 1.111646,-1.627256 l -0.689987,0.536037 a 2.9228623,2.9194877 0 0 0 -1.111646,1.627256 c -0.09583,0.469032 -0.373743,1.713404 2.098711,3.101357 a 5.1365712,5.1306406 0 0 0 2.271208,0.679618 2.1466268,2.1441483 0 0 0 1.054147,-0.258446 l 6.545295,-3.694827 a 2.4341214,2.431311 0 0 1 -0.297078,-0.957209 c -4.005759,1.454958 -9.429824,3.072641 -10.982296,0.59347 z"
     id="path3765"
     style="stroke-width:0.957762;fill:#d0d0d0;fill-opacity:0.81568629" />
  <path
     class="cls-1"
     d="m 53.470164,90.073961 a 4.2453377,4.2404362 0 0 0 0.852901,-0.114865 l 11.499786,-2.479172 c 2.70245,-1.05293 5.059906,-4.422306 7.081952,-8.892472 l -7.484444,2.125004 a 24.178301,24.150385 0 0 1 -12.563517,9.304072 3.2966054,3.2927992 0 0 0 0.613322,0.05743 z"
     id="path3767"
     style="stroke-width:0.957762;fill:#d0d0d0;fill-opacity:0.81568629" />
  <path
     class="cls-1"
     d="m 98.693074,60.343047 a 0.62290509,0.62218589 0 0 0 -0.23958,-1.215655 0.38332621,0.38288363 0 0 0 -0.1725,0.067 h 0.0767 a 0.45040829,0.44988826 0 1 1 -0.364156,0.536037 0.39290936,0.39245572 0 0 1 0,-0.210586 0.59415562,0.59346962 0 0 0 0,0.36374 0.62290509,0.62218589 0 0 0 0.699576,0.45946 z"
     id="path3769"
     style="stroke-width:0.957762;fill:#d0d0d0;fill-opacity:0.81568629" />
  <path
     class="cls-1"
     d="m 94.284822,51.680305 a 0.6420714,0.64133008 0 0 0 -0.172496,0.06701 h 0.07667 a 0.45040829,0.44988826 0 0 1 0.527073,0.354167 v 0 a 0.45040829,0.44988826 0 0 1 -0.33541,0.526465 v 0 a 0.45999145,0.45946035 0 0 1 -0.536662,-0.3446 v 0 a 0.39290936,0.39245572 0 0 1 0,-0.210586 0.59415562,0.59346962 0 0 0 0,0.363739 0.62491068,0.62418917 0 1 0 1.226644,-0.239302 0.62290509,0.62218589 0 0 0 -0.72832,-0.488177 v 0 z"
     id="path3771"
     style="stroke-width:0.957762;fill:#d0d0d0;fill-opacity:0.81568629" />
  <path
     class="cls-1"
     d="m 74.284777,62.78393 a 0.45999145,0.45946035 0 0 1 -0.536656,-0.363739 0.77623557,0.77533935 0 0 1 0,-0.210586 0.59415562,0.59346962 0 0 0 0,0.363739 0.63248824,0.63175799 0 0 0 0.72832,0.497749 0.62290509,0.62218589 0 0 0 0.48874,-0.727479 0.63248824,0.63175799 0 0 0 -0.728319,-0.497749 l -0.172497,0.06701 h 0.09583 a 0.45999145,0.45946035 0 0 1 0.536657,0.354167 0.4695746,0.46903244 0 0 1 -0.36416,0.536037 z"
     id="path3773"
     style="stroke-width:0.957762;fill:#d0d0d0;fill-opacity:0.81568629" />
  <path
     class="cls-1"
     d="m 62.995821,75.170216 a 0.63248824,0.63175799 0 0 0 0.498324,-0.727479 0.62290509,0.62218589 0 0 0 -0.72832,-0.488177 0.42165883,0.42117199 0 0 0 -0.18208,0.067 h 0.07666 a 0.45999145,0.45946035 0 0 1 0.536657,0.363739 0.45388691,0.45336286 0 0 1 -0.891234,0.172298 v 0 a 0.39290936,0.39245572 0 0 1 0,-0.210586 0.6420714,0.64133008 0 0 0 0.689988,0.8232 z"
     id="path3775"
     style="stroke-width:0.957762;fill:#d0d0d0;fill-opacity:0.81568629" />
  <path
     class="cls-1"
     d="m 59.842963,68.450608 a 0.62290509,0.62218589 0 0 0 -0.124581,-1.2348 h -0.114998 a 0.42165883,0.42117199 0 0 0 -0.18208,0.06701 h 0.07666 a 0.45999145,0.45946035 0 0 1 0.536657,0.363739 0.45388691,0.45336286 0 0 1 -0.891234,0.172298 0.39290936,0.39245572 0 0 1 0,-0.210586 0.59415562,0.59346962 0 0 0 0,0.363739 0.61332193,0.6126138 0 0 0 0.699571,0.478605 z"
     id="path3777"
     style="stroke-width:0.957762;fill:#d0d0d0;fill-opacity:0.81568629" />
  <path
     class="cls-1"
     d="m 78.233037,69.723696 a 0.60373878,0.60304171 0 0 0 0.488741,-0.698763 v 0 a 0.62290509,0.62218589 0 0 0 -0.728319,-0.497748 v 0 l -0.172497,0.067 h 0.07667 a 0.45040829,0.44988826 0 0 1 0.527073,0.354168 0.45999145,0.45946035 0 0 1 -0.354576,0.536037 0.4695746,0.46903244 0 0 1 -0.536657,-0.36374 0.77623557,0.77533935 0 0 1 0,-0.210586 0.59415562,0.59346962 0 0 0 0,0.36374 0.62290509,0.62218589 0 0 0 0.69957,0.449888 z"
     id="path3779"
     style="stroke-width:0.957762;fill:#d0d0d0;fill-opacity:0.81568629" />
  <path
     class="cls-1"
     d="m 73.278546,55.260267 a 0.63248824,0.63175799 0 0 0 0.498324,-0.727479 0.62290509,0.62218589 0 0 0 -0.72832,-0.488177 0.57498931,0.57432544 0 0 0 -0.18208,0.05743 h 0.07667 a 0.45999145,0.45946035 0 0 1 0.536656,0.363739 0.4538866,0.45336255 0 0 1 -0.891233,0.172298 0.43124198,0.43074408 0 0 1 0,-0.220158 0.59415562,0.59346962 0 0 0 0,0.363739 0.61332193,0.6126138 0 0 0 0.689987,0.478605 z"
     id="path3781"
     style="stroke-width:0.957762;fill:#d0d0d0;fill-opacity:0.81568629" />
  <path
     class="cls-1"
     d="m 94.016494,44.166214 a 0.62290509,0.62218589 0 0 0 0.488741,-0.727479 0.60373878,0.60304171 0 0 0 -0.69957,-0.488177 v 0 a 0.57498931,0.57432544 0 0 0 -0.18208,0.05743 h 0.07666 a 0.45999145,0.45946035 0 0 1 0.18208,0.899776 0.4695746,0.46903244 0 0 1 -0.536657,-0.363739 0.39290936,0.39245572 0 0 1 -0.01917,-0.162726 0.59415562,0.59346962 0 0 0 0,0.36374 0.62290509,0.62218589 0 0 0 0.689987,0.421172 z"
     id="path3783"
     style="stroke-width:0.957762;fill:#d0d0d0;fill-opacity:0.81568629" />
  <path
     class="cls-1"
     d="M 25.18069,100.23952 C 29.234365,89.269905 39.239179,78.912903 52.4256,71.638114 a 5.8361415,5.8294032 0 0 1 -0.134164,-2.33559 C 12.253014,91.021598 7.2506076,133.18666 58.462988,149.80381 l -2.33829,-1.3018 C 27.998138,137.18779 18.635395,117.9096 25.18069,100.23952 Z"
     id="path3785"
     style="stroke-width:0.957762;fill:#d0d0d0;fill-opacity:0.81568629" />
  <path
     class="cls-1"
     d="M 33.144292,93.433765 A 53.263177,53.20168 0 0 1 42.727447,83.277776 69.717454,69.63696 0 0 1 53.958905,75.744541 9.448991,9.4380814 0 0 1 53.00059,73.705686 C 35.463416,84.311562 25.956926,96.764852 24.787781,108.83526 c -1.514139,15.7078 11.039795,31.22416 31.768159,38.1735 l -0.201246,-0.29674 C 20.647858,130.02787 19.938704,96.238387 56.642189,78.539591 a 7.1969495,7.1886401 0 0 1 -2.012463,-1.914418 67.752907,67.674681 0 0 0 -11.346456,7.265217 52.707354,52.646499 0 0 0 -9.640654,9.878398 33.37813,33.339592 0 0 0 -5.884057,12.443722 28.318224,28.285528 0 0 0 -0.69957,6.8919 33.541043,33.502317 0 0 0 0.958315,6.88234 33.541043,33.502317 0 0 1 -1.092479,-6.88234 28.260725,28.228095 0 0 1 0.565406,-6.94933 33.742289,33.703331 0 0 1 5.654061,-12.721315 z"
     id="path3787"
     style="stroke-width:0.957762;fill:#d0d0d0;fill-opacity:0.81568629" />
  <path
     class="cls-1"
     d="m 173.2596,131.12866 a 4.446584,4.4414501 0 0 0 -6.12363,1.02421 8.0498504,8.0405562 0 0 0 -3.96743,-2.49831 l 0.47916,19.42177 a 13.598497,13.582797 0 0 1 1.32247,0.59347 7.53236,7.5236633 0 0 1 2.87495,-2.60361 8.3277619,8.3181468 0 0 1 -1.19789,-4.29787 8.4427597,8.4330119 0 0 1 8.43317,-8.42344 8.3565113,8.3468631 0 0 1 4.38909,1.24437 15.026387,15.009038 0 0 1 5.18448,-7.91611 8.9315006,8.9211885 0 0 1 -0.0862,-1.2348 9.3148268,9.3040721 0 0 1 0.59415,-3.27366 2.6449508,2.641897 0 0 0 -5.08865,1.01464 2.9420286,2.9386318 0 0 0 0,0.50732 8.8548354,8.8446118 0 0 0 -6.81363,6.44202 z"
     id="path3789"
     style="stroke-width:0.957762;fill:#d0d0d0;fill-opacity:0.81568629" />
  <path
     class="cls-1"
     d="m 122.07597,130.16188 a 9.5831552,9.5720907 0 0 1 -0.71874,3.62782 8.1169324,8.1075608 0 0 1 4.22618,5.48481 11.202708,11.189774 0 0 1 1.79205,-0.14358 11.394372,11.381216 0 0 1 11.19312,9.22749 10.589386,10.57716 0 0 1 4.27409,-0.89977 h 0.45999 l 0.45041,-15.74609 a 7.0052864,6.9971983 0 0 0 -4.13993,4.71904 5.7498931,5.7432544 0 0 0 -3.77576,-1.41667 h -0.23958 a 4.6574134,4.6520361 0 0 0 0,-0.51689 7.5227768,7.5140912 0 0 0 -4.70533,-6.96849 2.6449508,2.641897 0 0 0 -2.35745,-3.82883 2.5970351,2.5940366 0 0 0 -1.85914,0.76577 4.5424156,4.537171 0 0 0 -7.66652,-1.37839 9.5831552,9.5720907 0 0 1 3.06661,7.07378 z"
     id="path3791"
     style="stroke-width:0.957762;fill:#d0d0d0;fill-opacity:0.81568629" />
  <path
     class="cls-1"
     d="m 186.48436,120.20691 h 0.4504 a 9.5831552,9.5720907 0 0 1 2.80787,-2.13458 3.4882685,3.484241 0 0 0 0.27791,-1.35924 3.5361843,3.5321015 0 1 0 -3.54577,3.52253 v 0 z"
     id="path3793"
     style="stroke-width:0.957762;fill:#d0d0d0;fill-opacity:0.81568629" />
  <path
     class="cls-1"
     d="m 191.36218,111.93662 a 1.4662227,1.4645299 0 1 0 -1.46622,-1.46453 v 0 a 1.4566396,1.4549578 0 0 0 1.45664,1.45496 z"
     id="path3795"
     style="stroke-width:0.957762;fill:#d0d0d0;fill-opacity:0.81568629" />
  <ellipse
     class="cls-1"
     cx="138.47275"
     cy="131.27225"
     id="circle3797"
     rx="1.4662228"
     ry="1.4645299"
     style="stroke-width:0.957762;fill:#d0d0d0;fill-opacity:0.81568629" />
  <path
     class="cls-1"
     d="m 121.71181,116.62694 a 1.5333048,1.5315345 0 1 0 -1.5333,-1.53153 1.5333048,1.5315345 0 0 0 1.5333,1.53153 z"
     id="path3799"
     style="stroke-width:0.957762;fill:#d0d0d0;fill-opacity:0.81568629" />
  <path
     class="cls-1"
     d="m 115.09943,116.0239 a 0.6420714,0.64133008 0 1 0 -0.64207,-0.64133 v 0 a 0.6420714,0.64133008 0 0 0 0.64207,0.64133 z"
     id="path3801"
     style="stroke-width:0.957762;fill:#d0d0d0;fill-opacity:0.81568629" />
  <path
     class="cls-1"
     d="m 172.30129,127.93158 a 0.6420714,0.64133008 0 0 0 -0.62291,-0.64133 v 0 a 0.6420714,0.64133008 0 0 0 -0.71874,0.55518 0.65165455,0.65090217 0 0 0 0.56541,0.71791 0.41207567,0.4115999 0 0 0 0.15333,0 0.6420714,0.64133008 0 0 0 0.63249,-0.63176 z"
     id="path3803"
     style="stroke-width:0.957762;fill:#d0d0d0;fill-opacity:0.81568629" />
  <path
     class="cls-1"
     d="m 146.99217,148.01383 h 0.14375 c 0.19166,-7.11206 0.72832,-26.6487 0.88165,-32.40153 -0.64207,-0.0574 -1.28414,-0.12444 -1.91663,-0.20101 0.14375,5.50395 0.68999,25.37561 0.89123,32.60254 z"
     id="path3805"
     style="stroke-width:0.957762;fill:#d0d0d0;fill-opacity:0.81568629" />
  <path
     class="cls-1"
     d="m 145.76553,147.42036 c -0.27791,-7.17907 -0.71874,-18.49328 -0.71874,-18.49328 0,0 -0.42166,11.08448 -0.69957,18.27312 a 14.077655,14.061401 0 0 1 1.41831,0.22016 z"
     id="path3807"
     style="stroke-width:0.957762;fill:#d0d0d0;fill-opacity:0.81568629" />
  <path
     class="cls-1"
     d="m 149.64671,131.12866 c 0,0 0.38332,-7.19821 0.64207,-12.11827 l -0.0767,-3.20665 c -0.45999,0 -0.95831,-0.0574 -1.37039,-0.0862 0.19167,3.78098 0.80499,15.41107 0.80499,15.41107 z"
     id="path3809"
     style="stroke-width:0.957762;fill:#d0d0d0;fill-opacity:0.81568629" />
  <path
     class="cls-1"
     d="m 150.55711,150.81845 a 16.042202,16.02368 0 0 1 1.68663,-1.05293 c -0.32582,-7.65767 -0.82415,-19.14418 -0.82415,-19.14418 0,0 -0.52707,12.63516 -0.86248,20.19711 z"
     id="path3811"
     style="stroke-width:0.957762;fill:#d0d0d0;fill-opacity:0.81568629" />
  <path
     class="cls-1"
     d="m 157.58156,145.42936 c 0,0 0.58457,-24.01637 0.71874,-29.72134 l -1.43748,0.1053 c 0.13417,5.88683 0.71874,29.61604 0.71874,29.61604 z"
     id="path3813"
     style="stroke-width:0.957762;fill:#d0d0d0;fill-opacity:0.81568629" />
  <path
     class="cls-1"
     d="m 152.96248,125.70129 c 0.22041,4.34572 0.88165,16.84687 0.88165,16.84687 0,0 0.68999,-13.08504 0.90082,-17.13404 a 2.9324455,2.9290597 0 0 1 -1.33206,0.31588 3.5553506,3.5512456 0 0 1 -0.45041,-0.0287 z"
     id="path3815"
     style="stroke-width:0.957762;fill:#d0d0d0;fill-opacity:0.81568629" />
  <path
     class="cls-1"
     d="m 158.70279,147.71709 a 16.799271,16.779875 0 0 1 1.85913,0.13401 c -0.32583,-8.0597 -0.89123,-22.48484 -0.95831,-22.91558 -0.01,0.44989 -0.57499,14.72187 -0.90082,22.78157 z"
     id="path3817"
     style="stroke-width:0.957762;fill:#d0d0d0;fill-opacity:0.81568629" />
  <path
     class="cls-1"
     d="m 156.64241,147.7841 c -0.26833,-5.37952 -0.65165,-12.83618 -0.65165,-12.83618 l -0.67082,13.01805 a 12.525184,12.510723 0 0 1 1.32247,-0.18187 z"
     id="path3819"
     style="stroke-width:0.957762;fill:#d0d0d0;fill-opacity:0.81568629" />
  <path
     class="cls-1"
     d="m 161.62565,115.32514 -1.45664,0.19144 c 0.16292,2.93863 0.71874,12.22356 0.71874,12.22356 0,0 0.58457,-9.69653 0.7379,-12.415 z"
     id="path3821"
     style="stroke-width:0.957762;fill:#d0d0d0;fill-opacity:0.81568629" />
  <path
     class="cls-1"
     d="m 162.05689,124.13146 c 0,0 -0.39291,15.31535 -0.61332,23.73879 a 9.1327469,9.1222024 0 0 1 1.23623,0.17229 c -0.22041,-8.34686 -0.62291,-23.91108 -0.62291,-23.91108 z"
     id="path3823"
     style="stroke-width:0.957762;fill:#d0d0d0;fill-opacity:0.81568629" />
  <path
     class="cls-1"
     d="m 129.93416,117.498 a 8.4427597,8.4330119 0 0 0 5.31865,6.70047 l 1.31289,0.56475 a 3.2391065,3.2353667 0 0 0 0.51749,0.16273 h 0.0575 a 2.9420286,2.9386318 0 0 0 0.50791,0 2.8749466,2.8716272 0 0 0 1.5908,-0.47861 3.6703484,3.6661107 0 0 0 0.42166,-0.34459 2.1466268,2.1441483 0 0 0 0.65165,-1.55068 l -0.22999,-17.6988 h 1.39914 l 1.26498,0.25845 1.08289,3.5991 v 5.62839 l 0.57499,0.0861 c 0.66124,0.1053 1.33206,0.19144 1.9933,0.26802 l 0.7954,0.0957 1.11165,0.10529 c 0.86248,0.0766 1.72496,0.13401 2.58745,0.18187 l 0.18208,7.60024 a 2.1466268,2.1441483 0 0 0 0.19166,0.88064 2.2520415,2.2494413 0 0 0 0.83374,0.95721 2.3287067,2.326018 0 0 0 0.81456,0.33502 2.5012035,2.4983157 0 0 0 0.46,0 v 0 a 2.3191236,2.3164459 0 0 0 2.29995,-2.24944 l 0.18208,-7.5811 c 0.63249,0 1.2554,-0.067 1.91663,-0.11486 l 0.68999,-0.067 1.37039,-0.13401 0.62291,-0.0766 c 0.65165,-0.0766 1.29372,-0.1723 1.91663,-0.27759 h 0.0767 l 0.48874,-0.0862 v -5.61882 l 0.16292,-0.53604 0.33541,-1.11036 0.58457,-1.91442 1.26498,-0.24887 h 1.38955 l -0.22041,17.69879 a 2.0124626,2.010139 0 0 0 0.16292,0.8232 2.3191236,2.3164459 0 0 0 0.48874,0.72748 l 0.20124,0.18187 a 2.8749466,2.8716272 0 0 0 1.81122,0.64133 h 0.27791 a 2.7216161,2.7184738 0 0 0 0.67082,-0.15315 h 0.13417 l 1.31289,-0.56476 a 8.4427597,8.4330119 0 0 0 5.31865,-6.70046 l 2.47245,-22.01581 c 0.51749,-4.709469 -2.01246,-9.485942 -6.61237,-12.443718 l -0.53666,-0.344595 a 10.848132,10.835607 0 0 1 0.0958,-1.244372 v -0.401888 a 4.6574134,4.6520361 0 0 0 0,-0.516893 v -0.68919 a 0.555823,0.55518126 0 0 0 -0.0479,-0.268019 l -0.0575,-0.210586 a 0.30666097,0.3063069 0 0 0 -0.0671,-0.22973 l -0.0862,-0.22973 -0.0863,-0.09572 -0.115,-0.239302 -0.0863,-0.153154 c 0,-0.08615 -0.0958,-0.172297 -0.15333,-0.258446 l -0.0767,-0.114865 c -0.0671,-0.08615 -0.12459,-0.18187 -0.20125,-0.268019 v 0 a 4.7915776,4.7860453 0 0 0 -3.14328,-1.732548 c 1.29382,-22.973019 -0.18199,-41.112131 -13.41632,-51.986026 -0.32583,-3.378948 -1.28415,-15.851382 -1.28415,-15.851382 0,0 -0.95831,12.443718 -1.23622,15.860954 -13.20559,10.873895 -14.6814,29.032151 -13.41642,51.986025 a 3.1049423,3.1013574 0 0 0 -0.59416,0.114865 h -0.0767 a 4.8394934,4.8339058 0 0 0 -3.11453,2.622753 4.6094976,4.6041756 0 0 0 -0.19166,0.507321 v 0.134009 c 0,0 -0.0671,0.268018 -0.0958,0.402028 v 0.756195 c 0,0.191442 0,0.392455 0,0.583897 0,0 0,0.622186 0.12458,1.665544 l -0.53666,0.344595 c -4.59991,2.976921 -7.12986,7.753394 -6.61237,12.443718 z m 47.26412,-21.728645 -2.36704,21.508495 a 6.4494634,6.442017 0 0 1 -4.10159,5.0732 l -1.31289,0.56476 c 4.31242,-2.87163 5.09824,-10.30914 7.78152,-27.146455 z m -32.01732,17.488215 v -3.67569 a 47.484534,47.429709 0 0 0 5.57739,0.61262 10.809799,10.797318 0 0 1 -5.57739,3.06307 z m 10.09106,-28.534408 c -0.75707,11.649234 -1.71538,22.446558 -2.98994,31.827208 l -0.78582,-32.545115 a 1.916631,1.9144181 0 0 1 1.91663,-1.914418 1.8399658,1.8378414 0 0 1 1.33206,0.564753 1.916631,1.9144181 0 0 1 0.53665,1.349665 z M 143.06308,39.638615 a 32.180235,32.143081 0 0 1 10.36897,-14.903745 32.304816,32.267518 0 0 1 10.3019,14.817596 c 5.0024,14.032685 3.40202,33.234299 1.52372,55.738284 q -0.345,4.135143 -0.68999,8.42344 a 57.652262,57.585698 0 0 1 -7.12987,0.95721 l 0.0767,-1.54111 v -0.22016 l 1.08289,-21.862651 a 4.9832407,4.9774872 0 0 0 -4.84907,-5.121068 h -0.43124 a 5.3953164,5.3890871 0 0 0 -2.52996,0.622186 4.8586597,4.85305 0 0 0 -2.58745,4.48931 l 0.36416,7.303505 h -0.6804 a 16.780105,16.760731 0 0 1 -2.59704,-0.124437 l -2.3287,-0.153153 2.30954,0.344595 c 0.75707,0.134009 1.66746,0.239302 2.63536,0.344595 l 0.68041,0.067 0.70915,14.358138 0.0767,1.55068 a 55.879378,55.814861 0 0 1 -7.12987,-0.95721 Q 141.894,99.483321 141.549,95.329033 c -1.85913,-22.503985 -3.44993,-41.676882 1.51414,-55.690423 z m -8.27985,44.692091 c 0.48875,6.432445 1.54289,20.302404 1.62914,20.599144 h 1.22664 c -0.76665,5.92512 -2.3862,11.30464 -6.24821,13.0659 -0.0479,-0.21058 -0.0862,-0.43074 -0.115,-0.6509 l -2.40537,-21.891374 c -0.45999,-4.21172 1.83038,-8.42344 5.9128,-11.12277 z"
     id="path3825"
     style="stroke-width:0.957762;fill:#d0d0d0;fill-opacity:0.81568629" />
  <path
     class="cls-1"
     d="m 142.80434,102.958 c -0.64208,-22.551851 -3.6991,-45.591873 2.14662,-62.965218 a 38.591366,38.546809 0 0 1 8.28943,-14.300703 31.768159,31.731481 0 0 0 -9.58315,14.051829 c -4.98324,13.898676 -3.39244,33.042857 -1.52373,55.518126 0.24917,2.51746 0.46958,5.092356 0.67083,7.695966 z"
     id="path3827"
     style="stroke-width:0.957762;fill:#d0d0d0;fill-opacity:0.81568629" />
  <path
     class="cls-1"
     d="m 160.8015,60.457912 a 10.186894,10.175132 0 0 1 -3.4116,2.373879 c 0,1.828269 -0.0575,3.656538 -0.115,5.475235 a 0.3641599,0.36373945 0 0 0 -0.14375,0 h -0.0958 a 0.40249252,0.40202781 0 0 1 0.23958,0.114866 v 0.545609 a 0.41207567,0.4115999 0 0 1 -0.26833,0.105293 0.39290936,0.39245572 0 0 1 -0.38333,-0.344596 v 0.09572 a 0.52707354,0.52646499 0 0 0 0.52708,0.526465 h 0.115 v 0.354168 c -1.51414,0.105293 -4.26451,0.268018 -7.01487,0.27759 a 50.503228,50.444918 0 0 1 -5.33782,-0.172297 l -2.40537,-0.143582 2.39579,0.335024 c 1.42789,0.239302 3.37327,0.402027 5.32823,0.593469 2.69287,0.210586 5.43365,0.268019 6.98612,0.287163 q -0.12458,2.766334 -0.31624,5.484808 a 4.9449081,4.9391988 0 0 1 0.87206,0.737051 5.4432321,5.4369475 0 0 1 1.51414,4.020278 l -1.08289,21.833935 h 0.59415 c 1.11165,-15.621648 2.29996,-29.692622 2.00288,-42.500079 z"
     id="path3829"
     style="stroke-width:0.957762;fill:#d0d0d0;fill-opacity:0.81568629" />
  <path
     class="cls-1"
     d="m 160.40859,46.013627 a 10.177311,10.16556 0 0 1 1.37039,13.295634 c 0.64207,13.190341 -0.45041,27.921789 -1.74413,43.610449 h 3.91951 c 0.20124,-2.61318 0.42166,-5.178505 0.63249,-7.657676 1.91663,-22.484841 3.4691,-41.657739 -1.54289,-55.518126 a 31.624412,31.587899 0 0 0 -9.41066,-13.879532 57.230603,57.164526 0 0 1 5.55823,14.358136 c 0.43124,1.856986 0.84332,3.80012 1.21706,5.791115 z"
     id="path3831"
     style="stroke-width:0.957762;fill:#d0d0d0;fill-opacity:0.81568629" />
  <path
     class="cls-1"
     d="m 153.43205,46.683674 a 6.7848739,6.7770402 0 1 0 6.70821,6.853617 v -0.08615 a 6.7752907,6.7674681 0 0 0 -6.70821,-6.767468 z m -5.36656,9.57209 6.04697,-8.835039 a 6.1428025,6.1357101 0 0 1 2.87494,1.091218 l -6.7082,10.108128 a 6.1907183,6.1835706 0 0 1 -2.25205,-2.354735 z m 3.51702,2.938632 a 6.8711223,6.863189 0 0 1 -0.87207,-0.344595 l 6.60279,-10.021979 a 5.9511394,5.9442683 0 0 1 0.68999,0.698763 z"
     id="path3833"
     style="stroke-width:0.957762;fill:#d0d0d0;fill-opacity:0.81568629" />
  <path
     class="cls-1"
     d="m 153.43205,46.425227 a 0.75706926,0.75619516 0 1 0 -0.75707,-0.756195 v 0 a 0.75706926,0.75619516 0 0 0 0.75707,0.756195 z m 0,-1.253944 a 0.4695746,0.46903244 0 0 1 0.35458,0.172298 h -0.14375 a 0.48874091,0.48817662 0 0 0 -0.48874,0.488177 0.48874091,0.48817662 0 0 0 0.12458,0.315879 0.48874091,0.48817662 0 0 1 0.15333,-0.95721 z"
     id="path3835"
     style="stroke-width:0.957762;fill:#d0d0d0;fill-opacity:0.81568629" />
  <path
     class="cls-1"
     d="m 145.60262,52.694947 a 0.75706926,0.75619516 0 1 0 0.75707,0.756195 v 0 a 0.75706926,0.75619516 0 0 0 -0.75707,-0.756195 z m 0.19166,0.402027 a 0.48874091,0.48817662 0 0 0 -0.48874,0.488177 0.59415562,0.59346962 0 0 0 0.12458,0.325451 0.47915776,0.47860453 0 0 1 -0.33541,-0.45946 0.48874091,0.48817662 0 0 1 0.8529,-0.325451 0.60373878,0.60304171 0 0 0 -0.18208,0 z"
     id="path3837"
     style="stroke-width:0.957762;fill:#d0d0d0;fill-opacity:0.81568629" />
  <path
     class="cls-1"
     d="m 158.90404,48.665096 a 0.75706926,0.75619516 0 1 0 -0.75707,-0.756195 v 0 a 0.75706926,0.75619516 0 0 0 0.75707,0.756195 z m 0,-1.244371 a 0.49832407,0.49774872 0 0 1 0.36416,0.162725 h -0.15333 a 0.48874091,0.48817662 0 0 0 -0.48875,0.488177 0.48874091,0.48817662 0 0 0 0.12459,0.315879 0.45999145,0.45946035 0 0 1 -0.33542,-0.449888 0.49832407,0.49774872 0 0 1 0.47916,-0.478605 z"
     id="path3839"
     style="stroke-width:0.957762;fill:#d0d0d0;fill-opacity:0.81568629" />
  <path
     class="cls-1"
     d="m 147.88341,58.237187 a 0.75706926,0.75619516 0 1 0 0.75707,0.756195 v 0 a 0.75706926,0.75619516 0 0 0 -0.75707,-0.756195 z m 0.20124,0.402028 a 0.48874091,0.48817662 0 0 0 -0.36416,0.813628 0.47915776,0.47860453 0 0 1 -0.34499,-0.459461 0.48874091,0.48817662 0 0 1 0.48874,-0.488176 0.44082514,0.44031617 0 0 1 0.36416,0.172297 0.42165883,0.42117199 0 0 0 -0.14375,-0.07658 z"
     id="path3841"
     style="stroke-width:0.957762;fill:#d0d0d0;fill-opacity:0.81568629" />
  <path
     class="cls-1"
     d="m 147.88341,48.665096 a 0.75706926,0.75619516 0 1 0 -0.75707,-0.756195 v 0 a 0.75706926,0.75619516 0 0 0 0.75707,0.756195 z m 0,-1.244371 a 0.47915776,0.47860453 0 0 1 0.36416,0.162725 h -0.14375 a 0.48874091,0.48817662 0 0 0 -0.48874,0.488177 0.48874091,0.48817662 0 0 0 0.12458,0.315879 0.4695746,0.46903244 0 0 1 -0.34499,-0.449888 0.48874091,0.48817662 0 0 1 0.46957,-0.478605 z"
     id="path3843"
     style="stroke-width:0.957762;fill:#d0d0d0;fill-opacity:0.81568629" />
  <path
     class="cls-1"
     d="m 163.21646,53.451142 a 9.8227341,9.811393 0 1 0 -9.82274,9.811393 v 0 a 9.8419004,9.8305371 0 0 0 9.82274,-9.811393 z m -9.58316,7.437514 a 0.48874091,0.48817662 0 0 0 -0.48874,0.488177 0.48874091,0.48817662 0 0 0 0.12458,0.315879 0.48874091,0.48817662 0 0 1 0.15333,-0.957209 0.4695746,0.46903244 0 0 1 0.35458,0.172297 0.39290936,0.39245572 0 0 0 -0.18208,0 z m 5.51031,-2.287729 a 0.48874091,0.48817662 0 0 0 -0.36416,0.813627 0.48874091,0.48817662 0 0 1 -0.33541,-0.603041 0.49832407,0.49774872 0 0 1 0.61333,-0.335024 0.50790722,0.50732081 0 0 1 0.23958,0.162726 0.43124198,0.43074408 0 0 0 -0.19167,0 z m -0.20124,-0.402028 a 0.75706926,0.75619516 0 0 0 -0.29708,1.454958 8.9889996,8.9786211 0 0 1 -3.33494,1.780408 11.346456,11.333355 0 0 1 -1.26497,0.248875 0.71873664,0.7179068 0 0 0 0.14374,-0.440316 0.75707,0.7561959 0 1 0 -1.51414,0 0.7474861,0.74662307 0 0 0 0.20125,0.516892 8.5385913,8.5287328 0 0 1 -1.84955,-0.191441 8.9506669,8.9403327 0 0 1 -2.79828,-1.110363 4.8969923,4.8913383 0 0 1 -0.59415,-0.392456 8.7892659,8.779118 0 0 1 11.5477,-13.238201 v 0 a 4.0057589,4.0011339 0 0 1 0.38332,0.421172 9.7173194,9.7061 0 0 1 1.53331,2.594037 8.7877533,8.7776072 0 0 1 0.57499,3.015208 0.75706926,0.75619516 0 1 0 -0.45041,1.359237 0.80498504,0.80405562 0 0 0 0.39291,-0.105293 8.7302544,8.7201746 0 0 1 -1.98371,4.585031 0.75706926,0.75619516 0 0 0 -0.72832,-0.411599 z m 2.11788,-4.288297 a 0.47915776,0.47860453 0 0 1 -0.33541,-0.45946 0.48874091,0.48817662 0 0 1 0.8529,-0.325451 h -0.15333 a 0.48874091,0.48817662 0 0 0 -0.36416,0.813627 z"
     id="path3845"
     style="stroke-width:0.957762;fill:#d0d0d0;fill-opacity:0.81568629" />
  <path
     class="cls-1"
     d="m 151.78375,40.174652 c -1.57164,0 -3.14327,0.07658 -4.30284,0 l -1.91663,-0.114865 1.91663,0.306307 h 0.0575 c 1.14998,0.22973 2.69287,0.315879 4.26451,0.449888 1.57164,0.134009 3.34452,0.105293 4.6095,0.114865 0.10541,0.957209 0.20124,1.914418 0.29707,2.871627 a 10.273142,10.261281 0 0 1 2.7887,1.493246 q -0.40249,-2.536604 -0.95831,-5.025347 a 67.963737,67.885267 0 0 0 -4.93533,-14.463429 l -0.10541,-0.105293 a 84.034688,83.937663 0 0 1 2.80786,14.166694 c -1.28414,0.08615 -2.87495,0.18187 -4.52325,0.306307 z"
     id="path3847"
     style="stroke-width:0.957762;fill:#d0d0d0;fill-opacity:0.81568629" />
  <path
     class="cls-1"
     d="m 146.72385,39.255731 a 0.3641599,0.36373945 0 0 1 -0.37375,-0.335023 v 0.08615 a 0.52707354,0.52646499 0 0 0 0.51749,0.536037 v 0 a 0.53665669,0.53603708 0 0 0 0,-1.062502 h -0.0958 a 0.39290936,0.39245572 0 0 1 0.34499,0.382884 0.38332621,0.38288363 0 0 1 -0.37374,0.392455 z"
     id="path3849"
     style="stroke-width:0.957762;fill:#d0d0d0;fill-opacity:0.81568629" />
  <path
     class="cls-1"
     d="m 149.92462,39.408885 a 0.39290936,0.39245572 0 0 1 -0.38333,-0.344596 v 0.09572 a 0.53665669,0.53603708 0 1 0 0.54624,-0.526465 h -0.10541 a 0.38332621,0.38288363 0 0 1 0.34499,0.373312 0.39290936,0.39245572 0 0 1 -0.38332,0.402028 z"
     id="path3851"
     style="stroke-width:0.957762;fill:#d0d0d0;fill-opacity:0.81568629" />
  <path
     class="cls-1"
     d="m 153.24997,39.408885 a 0.38332621,0.38288363 0 0 1 -0.37374,-0.344596 v 0.09572 a 0.51749038,0.5168929 0 0 0 0.50791,0.526465 v 0 a 0.52707354,0.52646499 0 0 0 0.52707,-0.526465 v 0 a 0.52707354,0.52646499 0 0 0 -0.52707,-0.526465 h -0.0958 a 0.38332621,0.38288363 0 0 1 0.34499,0.373312 0.39290936,0.39245572 0 0 1 -0.38333,0.402028 z"
     id="path3853"
     style="stroke-width:0.957762;fill:#d0d0d0;fill-opacity:0.81568629" />
  <path
     class="cls-1"
     d="m 146.47468,68.967501 a 0.39290936,0.39245572 0 0 1 -0.38332,-0.344596 v 0.09572 a 0.53665669,0.53603708 0 1 0 0.52707,-0.526465 h -0.0863 a 0.37374305,0.37331154 0 0 1 0.33541,0.373312 0.38332621,0.38288363 0 0 1 -0.36416,0.402028 z"
     id="path3855"
     style="stroke-width:0.957762;fill:#d0d0d0;fill-opacity:0.81568629" />
  <path
     class="cls-1"
     d="m 142.89058,68.766487 a 0.39290936,0.39245572 0 0 1 -0.38332,-0.344595 v 0.09572 a 0.53665669,0.53603708 0 1 0 0.52707,-0.526465 h -0.14375 a 0.37374305,0.37331154 0 0 1 0.33541,0.373312 0.38332621,0.38288363 0 0 1 -0.33541,0.402028 z"
     id="path3857"
     style="stroke-width:0.957762;fill:#d0d0d0;fill-opacity:0.81568629" />
  <path
     class="cls-1"
     d="m 147.32758,86.618436 h -0.0958 a 0.38332621,0.38288363 0 0 1 0.345,0.373312 0.39290936,0.39245572 0 0 1 -0.39291,0.392455 v 0 a 0.38332621,0.38288363 0 0 1 -0.37375,-0.344595 v 0.09572 a 0.52707354,0.52646499 0 0 0 0.52708,0.526465 v 0 a 0.51749038,0.5168929 0 0 0 0.51749,-0.459461 v -0.067 a 0.16291364,0.16272554 0 0 0 0,-0.09572 0.51749038,0.5168929 0 0 0 -0.52708,-0.421172 z"
     id="path3859"
     style="stroke-width:0.957762;fill:#d0d0d0;fill-opacity:0.81568629" />
  <path
     class="cls-1"
     d="m 143.71473,86.45571 h -0.0958 a 0.39290936,0.39245572 0 0 1 0.345,0.382884 0.38333,0.38288742 0 1 1 -0.76666,0 v 0.09572 a 0.49832407,0.49774872 0 1 0 0.52708,-0.526465 z"
     id="path3861"
     style="stroke-width:0.957762;fill:#d0d0d0;fill-opacity:0.81568629" />
  <path
     class="cls-1"
     d="m 147.85466,103.27387 a 0.52707355,0.526465 0 1 0 0,-1.05293 h -0.0958 a 0.37374305,0.37331154 0 0 1 0.33541,0.37332 0.38332621,0.38288363 0 0 1 -0.37375,0.39245 v 0 a 0.39290936,0.39245572 0 0 1 -0.38332,-0.34459 v 0.0957 a 0.52707354,0.52646499 0 0 0 0.51749,0.53603 z"
     id="path3863"
     style="stroke-width:0.957762;fill:#d0d0d0;fill-opacity:0.81568629" />
  <path
     class="cls-1"
     d="m 144.24181,103.08243 a 0.52707354,0.52646499 0 0 0 0.52707,-0.52646 0.52707354,0.52646499 0 0 0 -0.52707,-0.52647 h -0.12458 a 0.38332758,0.382885 0 0 1 0,0.76577 0.39290936,0.39245572 0 0 1 -0.38333,-0.3446 v 0.0957 a 0.52707354,0.52646499 0 0 0 0.50791,0.53604 z"
     id="path3865"
     style="stroke-width:0.957762;fill:#d0d0d0;fill-opacity:0.81568629" />
  <path
     class="cls-1"
     d="m 149.92462,69.05365 a 0.39290936,0.39245572 0 0 1 -0.38333,-0.344596 v 0.09572 a 0.53665669,0.53603708 0 1 0 0.54624,-0.526465 h -0.10541 a 0.38332621,0.38288363 0 0 1 0.34499,0.373312 0.39290936,0.39245572 0 0 1 -0.38332,0.402028 z"
     id="path3867"
     style="stroke-width:0.957762;fill:#d0d0d0;fill-opacity:0.81568629" />
  <path
     class="cls-1"
     d="m 153.43205,69.05365 a 0.37374305,0.37331154 0 0 1 -0.38332,-0.344596 v 0.09572 a 0.53665669,0.53603708 0 1 0 0.52707,-0.526465 H 153.48 a 0.38332621,0.38288363 0 0 1 0,0.765767 z"
     id="path3869"
     style="stroke-width:0.957762;fill:#d0d0d0;fill-opacity:0.81568629" />
  <path
     class="cls-1"
     d="m 131.45788,109.57231 c 0,0 -0.26833,-5.85812 -1.10206,-13.037188 a 13.052257,13.037188 0 0 1 0.10541,-4.910483 10.215643,10.203849 0 0 1 1.71539,-3.627822 l 2.35745,-3.024781 -0.7379,0.727479 c -0.45999,0.478605 -1.14998,1.139079 -1.91663,2.029283 a 9.7748183,9.7635325 0 0 0 -2.07955,3.713972 12.458102,12.443718 0 0 0 -0.25874,5.188073 c 0.80498,7.179067 1.91663,12.941467 1.91663,12.941467 z"
     id="path3871"
     style="stroke-width:0.957762;fill:#d0d0d0;fill-opacity:0.81568629" />
  <path
     class="cls-1"
     d="m 109.68495,135.27338 a 6.0182215,6.0112729 0 0 0 -5.29949,-0.48818 l 0.0671,0.20101 a 6.4302971,6.4228728 0 0 1 6.80405,2.4696 6.5548781,6.54731 0 0 1 1.06373,2.33559 v 0.0862 h 0.23958 v -0.0957 a 6.0182215,6.0112729 0 0 0 -2.87495,-4.47017 z"
     id="path3873"
     style="stroke-width:0.957762;fill:#d0d0d0;fill-opacity:0.81568629" />
  <path
     class="cls-1"
     d="m 86.982458,150.12926 a 2.4820372,2.4791715 0 0 0 -2.597035,0.35417 0.09583155,0.09572091 0 0 0 0.134164,0.13401 2.8749466,2.8716272 0 0 1 1.130812,-0.25845 v 0 a 2.6641171,2.6610412 0 0 1 2.00288,0.89978 2.7599487,2.7567621 0 0 1 0.565406,1.02421 0.11499786,0.11486509 0 0 0 0.105415,0.0766 h 0.06708 a 0.11499786,0.11486509 0 0 0 0.08625,-0.1053 2.4245383,2.4217389 0 0 0 -1.494972,-2.125 z"
     id="path3875"
     style="stroke-width:0.957762;fill:#d0d0d0;fill-opacity:0.81568629" />
  <path
     class="cls-1"
     d="m 93.614001,140.136 a 4.5424156,4.537171 0 0 0 -0.958315,-0.55518 4.0536746,4.0489944 0 0 0 -2.127461,-0.32545 3.9865926,3.9819897 0 0 0 -1.916631,0.78491 0.09583155,0.09572091 0 1 0 0.134165,0.13401 4.446584,4.4414501 0 0 1 1.916631,-0.49775 4.3028367,4.2978687 0 0 1 1.916631,0.35416 4.4849166,4.4797384 0 0 1 1.523721,1.14866 4.5807482,4.5754593 0 0 1 0.881651,1.73254 0.09583155,0.09572091 0 0 0 0.09583,0.0766 h 0.06708 a 0.0862484,0.08614882 0 0 0 0.08625,-0.10529 v 0 a 3.9482599,3.9437014 0 0 0 -0.75707,-1.98142 4.3699188,4.3648734 0 0 0 -0.862484,-0.76577 z"
     id="path3877"
     style="stroke-width:0.957762;fill:#d0d0d0;fill-opacity:0.81568629" />
  <path
     class="cls-1"
     d="m 134.53407,145.56337 a 8.1073493,8.0979887 0 0 0 -5.27073,-3.58953 7.6665241,7.6576725 0 0 0 -1.61956,-0.15315 7.5419431,7.5332354 0 0 0 -1.60997,0.19144 0.10541471,0.105293 0 0 0 -0.0767,0.11486 0.0862484,0.08614882 0 0 0 0.0863,0.0862 v 0 a 8.9219175,8.9116164 0 0 1 3.10494,0.21059 8.6248397,8.6148816 0 0 1 2.80786,1.25394 8.5002587,8.4904444 0 0 1 2.19455,2.14415 9.5831552,9.5720907 0 0 1 1.34164,2.85248 0.11499786,0.11486509 0 0 0 0.10541,0.067 v 0 a 0.09583155,0.09572091 0 0 0 0.0767,-0.11487 v 0 a 8.0785998,8.0692724 0 0 0 -0.41208,-1.56982 8.2319303,8.2224259 0 0 0 -0.72832,-1.49325 z"
     id="path3879"
     style="stroke-width:0.957762;fill:#d0d0d0;fill-opacity:0.81568629" />
  <path
     class="cls-1"
     d="m 127.4042,154.98231 a 3.9099273,3.905413 0 0 0 -0.68998,-0.42117 2.9228623,2.9194877 0 0 0 -1.59081,-0.22016 2.8749466,2.8716272 0 0 0 -1.39914,0.57433 0.11499786,0.11486509 0 0 0 0,0.13401 0.09583155,0.09572091 0 0 0 0.13417,0 3.3828538,3.378948 0 0 1 1.37039,-0.32546 3.1816075,3.1779341 0 0 1 1.33206,0.26802 3.1432749,3.1396457 0 0 1 0.95831,0.88064 3.1816075,3.1779341 0 0 1 0.66124,1.22522 0.09583155,0.09572091 0 0 0 0.0958,0.0766 h 0.0767 a 0.11499786,0.11486509 0 0 0 0.0863,-0.10529 2.9707781,2.9673481 0 0 0 -0.53666,-1.48368 3.2295233,3.2257946 0 0 0 -0.49833,-0.60304 z"
     id="path3881"
     style="stroke-width:0.957762;fill:#d0d0d0;fill-opacity:0.81568629" />
  <path
     class="cls-1"
     d="m 128.3146,141.01663 a 10.340224,10.328286 0 0 1 2.87495,0.74662 9.3435763,9.3327884 0 0 1 2.52037,1.58897 10.05273,10.041123 0 0 1 3.09536,5.07321 0.09583155,0.09572091 0 0 0 0.0958,0.0766 v 0 a 0.11499786,0.11486509 0 0 0 0.0767,-0.12444 9.8706498,9.8592534 0 0 0 -1.04457,-2.87163 9.5831552,9.5720907 0 0 0 -1.91663,-2.45045 9.7939846,9.7826767 0 0 0 -11.71061,-1.14866 9.6502373,9.6390953 0 0 0 -2.37663,2.02929 10.129395,10.1177 0 0 0 -1.5908,2.66104 0.10541471,0.105293 0 0 0 0,0.15315 0.10541471,0.105293 0 0 0 0.14375,0 0.0862484,0.08614882 0 0 0 0,-0.0574 10.05273,10.041123 0 0 1 4.02492,-4.37445 9.7077362,9.6965279 0 0 1 5.80739,-1.3018 z"
     id="path3883"
     style="stroke-width:0.957762;fill:#d0d0d0;fill-opacity:0.81568629" />
  <path
     class="cls-1"
     d="m 171.64005,148.21484 a 5.7498931,5.7432544 0 0 0 -1.83038,0.36374 5.8265584,5.8198311 0 0 0 -1.60997,0.95721 5.4623985,5.4560917 0 0 0 -1.84955,3.18751 0.10541471,0.105293 0 0 0 0.0767,0.11486 v 0 a 0.11499786,0.11486509 0 0 0 0.0958,-0.067 7.3023643,7.2939331 0 0 1 0.82416,-1.55068 6.7082086,6.7004635 0 0 1 2.62578,-2.22073 7.2544485,7.2460726 0 0 1 1.66747,-0.55518 0.09583155,0.09572091 0 0 0 0.0767,-0.10529 v -0.0574 a 0.09583155,0.09572091 0 0 0 -0.0767,-0.067 z"
     id="path3885"
     style="stroke-width:0.957762;fill:#d0d0d0;fill-opacity:0.81568629" />
  <path
     class="cls-1"
     d="m 105.56419,125.62471 a 8.9506669,8.9403327 0 0 1 4.41784,-2.92906 8.7110881,8.7010304 0 0 1 5.2324,0.15315 9.3819089,9.3710768 0 0 1 2.34787,1.25395 8.7973365,8.7871792 0 0 1 3.44994,6.94933 0.10541471,0.105293 0 0 0 0.10541,0.1053 v 0 a 0.11499786,0.11486509 0 0 0 0.10542,-0.0957 8.9889996,8.9786211 0 0 0 -0.27791,-2.76634 8.893168,8.8829002 0 0 0 -1.15956,-2.54617 8.768587,8.758463 0 0 0 -9.93774,-3.49382 8.5577576,8.547877 0 0 0 -4.44658,3.24494 0.0862484,0.08614882 0 0 0 0,0.12444 v 0 a 0.11499786,0.11486509 0 0 0 0.15333,0 z"
     id="path3887"
     style="stroke-width:0.957762;fill:#d0d0d0;fill-opacity:0.81568629" />
  <path
     class="cls-1"
     d="m 116.90107,125.4907 a 7.1202843,7.1120634 0 0 1 1.91663,2.4696 7.0148696,7.0067704 0 0 1 0.52707,1.50282 7.5706926,7.5619516 0 0 1 0.22041,1.59854 0.10541471,0.105293 0 0 0 0.10542,0.0957 0.11499786,0.11486509 0 0 0 0.10541,-0.0957 7.0436191,7.0354867 0 0 0 -0.53665,-3.2928 7.1777832,7.1694959 0 0 0 -5.06949,-4.16386 6.7752907,6.7674681 0 0 0 -3.33494,0.11486 0.11499786,0.11486509 0 0 0 -0.0671,0.12444 0.09583155,0.09572091 0 0 0 0.115,0.0766 v 0 a 7.9156862,7.9065469 0 0 1 3.1816,0.13401 7.1777832,7.1694959 0 0 1 2.83662,1.43581 z"
     id="path3889"
     style="stroke-width:0.957762;fill:#d0d0d0;fill-opacity:0.81568629" />
  <path
     class="cls-1"
     d="m 119.95809,138.33644 a 6.7657076,6.757896 0 0 1 0.95832,0.88064 h 0.20124 a 0.11499786,0.11486509 0 0 0 0,-0.13401 4.3795019,4.3744454 0 0 0 -3.5841,-2.17287 4.1878388,4.1830036 0 0 0 -1.4183,0.18187 0.10541471,0.105293 0 0 0 -0.0767,0.11487 0.11499786,0.11486509 0 0 0 0.10542,0.0861 5.7498931,5.7432544 0 0 1 1.34164,0.0766 5.7498931,5.7432544 0 0 1 1.26498,0.35417 5.5103142,5.5039521 0 0 1 1.20747,0.61261 z"
     id="path3891"
     style="stroke-width:0.957762;fill:#d0d0d0;fill-opacity:0.81568629" />
  <path
     class="cls-1"
     d="m 120.84933,136.72833 a 5.7498931,5.7432544 0 0 0 -4.71492,-0.88063 0.12458102,0.12443718 0 0 0 -0.0767,0.11487 0.09583155,0.09572091 0 0 0 0.115,0.0862 6.6411265,6.6334588 0 0 1 2.29995,0.17229 6.3727982,6.3654403 0 0 1 2.06997,0.95721 6.2003014,6.1931427 0 0 1 1.58122,1.61769 6.5165455,6.5090217 0 0 1 0.95831,2.09628 0.11499786,0.11486509 0 0 0 0.0958,0.0862 h 0.0767 a 0.11499786,0.11486509 0 0 0 0.0863,-0.10529 6.0469709,6.0399892 0 0 0 -0.77624,-2.31645 5.7498931,5.7432544 0 0 0 -1.71538,-1.82827 z"
     id="path3893"
     style="stroke-width:0.957762;fill:#d0d0d0;fill-opacity:0.81568629" />
  <path
     class="cls-1"
     d="m 124.44301,140.63375 h 0.0767 a 0.11499786,0.11486509 0 0 0 0.0862,-0.11487 7.0627854,7.0546308 0 0 0 -2.60661,-4.58503 7.6090252,7.60024 0 0 0 -1.55248,-0.95721 7.0052864,6.9971983 0 0 0 -6.86154,0.67005 0.09583155,0.09572091 0 0 0 0.13417,0.13401 7.225699,7.2173564 0 0 1 3.25827,-0.95721 7.0340359,7.0259146 0 0 1 3.27744,0.60304 7.2352822,7.2269285 0 0 1 4.12076,5.06364 0.10541471,0.105293 0 0 0 0,0.134 z"
     id="path3895"
     style="stroke-width:0.957762;fill:#d0d0d0;fill-opacity:0.81568629" />
  <path
     class="cls-1"
     d="m 101.04094,135.64669 a 9.3723258,9.3615047 0 0 1 1.67706,-1.19651 8.088183,8.0788445 0 0 1 1.91663,-0.70834 8.3277619,8.3181468 0 0 1 2.01246,-0.18187 8.8644185,8.8541839 0 0 1 1.9933,0.3446 7.7623557,7.7533935 0 0 1 3.36368,2.16329 7.6665241,7.6576725 0 0 1 1.83997,3.59911 0.09583155,0.09572091 0 0 0 0.0958,0.0766 h 0.0767 a 0.09583155,0.09572091 0 0 0 0.0767,-0.11486 v 0 a 7.53236,7.5236633 0 0 0 -1.72497,-3.82884 8.2415135,8.231998 0 0 0 -3.53618,-2.39302 8.9602501,8.9499048 0 0 0 -2.13704,-0.3446 v 0 a 7.6090252,7.60024 0 0 0 -4.08243,1.10079 7.9444356,7.9352632 0 0 0 -1.63872,1.34967 0.10541471,0.105293 0 0 0 0,0.14358 z"
     id="path3897"
     style="stroke-width:0.957762;fill:#d0d0d0;fill-opacity:0.81568629" />
  <path
     class="cls-1"
     d="m 112.91447,149.63151 a 5.2132364,5.2072173 0 0 0 -4.51366,-0.48817 0.11499786,0.11486509 0 0 0 -0.0671,0.12443 0.12458102,0.12443718 0 0 0 0.11499,0.0766 5.9798888,5.9729846 0 0 1 2.18496,0 5.6348952,5.6283893 0 0 1 3.55535,2.23987 5.7498931,5.7432544 0 0 1 0.90082,1.97185 0.10541471,0.105293 0 0 0 0.10541,0.0766 h 0.0671 a 0.11499786,0.11486509 0 0 0 0.10541,-0.1723 5.3761501,5.3699429 0 0 0 -2.43412,-3.89584 z"
     id="path3899"
     style="stroke-width:0.957762;fill:#d0d0d0;fill-opacity:0.81568629" />
  <path
     class="cls-1"
     d="m 113.76737,148.55944 a 6.8136233,6.8057565 0 0 0 -3.5841,-1.11994 7.1873664,7.179068 0 0 0 -1.91663,0.22973 8.0977661,8.0884166 0 0 0 -1.72496,0.74663 7.0819517,7.073775 0 0 0 -1.42789,1.21565 0.10541471,0.105293 0 0 0 0,0.14358 0.10541471,0.105293 0 0 0 0.10541,0 7.8102715,7.8012539 0 0 1 1.45664,-1.02421 7.3406969,7.3322215 0 0 1 1.65789,-0.61261 7.6665241,7.6576725 0 0 1 1.75371,-0.15316 7.0052864,6.9971983 0 0 1 1.72497,0.30631 6.7082086,6.7004635 0 0 1 4.52325,4.98706 0.10541471,0.105293 0 0 0 0.10542,0.0766 h 0.0671 a 0.0862484,0.08614882 0 0 0 0.0863,-0.1053 v 0 a 6.7082086,6.7004635 0 0 0 -1.50456,-3.38852 6.8232065,6.8153286 0 0 0 -1.32248,-1.3018 z"
     id="path3901"
     style="stroke-width:0.957762;fill:#d0d0d0;fill-opacity:0.81568629" />
  <path
     class="cls-1"
     d="m 102.44008,147.5448 a 4.6478303,4.642464 0 0 0 -1.25539,-0.20102 5.0694891,5.063636 0 0 0 -1.255386,0.16273 4.2836704,4.2787245 0 0 0 -1.14998,0.51689 4.5903313,4.5850314 0 0 0 -0.958317,0.81363 0.11499786,0.11486509 0 0 0 0,0.13401 0.09583155,0.09572091 0 0 0 0.134164,0 5.8265584,5.8198311 0 0 1 0.958313,-0.6509 5.3857332,5.379515 0 0 1 1.0829,-0.38289 4.4274177,4.4223059 0 0 1 5.213236,3.32152 0.09583155,0.09572091 0 0 0 0.0958,0.0766 h 0.0767 a 0.09583155,0.09572091 0 0 0 0.0767,-0.11486 v 0 a 4.3795019,4.3744454 0 0 0 -3.05703,-3.67568 z"
     id="path3903"
     style="stroke-width:0.957762;fill:#d0d0d0;fill-opacity:0.81568629" />
  <path
     class="cls-1"
     d="m 181.2232,142.09828 a 0.09583155,0.09572091 0 0 0 0.0767,-0.11487 v 0 a 12.716847,12.702164 0 0 1 1.26498,-8.7106 12.515601,12.50115 0 0 1 2.80786,-3.44595 12.256855,12.242704 0 0 1 3.83326,-2.23987 12.39102,12.376713 0 0 1 4.3795,-0.7562 12.54435,12.529867 0 0 1 10.94397,6.70047 0.09583155,0.09572091 0 0 0 0.13416,0 0.0862484,0.08614882 0 0 0 0,-0.12444 v 0 a 12.563516,12.549011 0 0 0 -20.60378,-3.0535 12.621015,12.606443 0 0 0 -3.29661,7.11206 10.100646,10.088984 0 0 0 -0.0767,1.08165 7.1969495,7.1886401 0 0 0 -8.72067,-2.5366 7.2065327,7.1982122 0 0 0 -3.68952,3.47467 7.2448653,7.2365006 0 0 0 -0.47916,4.98706 0.11499786,0.11486509 0 0 0 0.10542,0.0766 v 0 a 0.09583155,0.09572091 0 0 0 0.0767,-0.11486 v 0 a 7.0436191,7.0354867 0 0 1 10.1869,-7.65768 6.919038,6.9110495 0 0 1 2.5012,2.2303 12.75518,12.740453 0 0 0 0.38333,3.00564 0.0862484,0.08614882 0 0 0 0.115,0.067 z"
     id="path3905"
     style="stroke-width:0.957762;fill:#d0d0d0;fill-opacity:0.81568629" />
  <path
     class="cls-1"
     d="m 170.18341,139.50424 a 6.1044699,6.0974218 0 0 1 1.8208,-1.6464 l 0.0958,-0.0574 a 3.9865926,3.9819897 0 0 1 0.45041,-0.22973 3.8332621,3.8288363 0 0 1 0.57499,-0.24888 6.7082086,6.7004635 0 0 1 1.22664,-0.28716 0.0862484,0.08614882 0 0 0 0.0863,-0.10529 v 0 a 0.10541471,0.105293 0 0 0 -0.10541,-0.0957 5.8744741,5.8676916 0 0 0 -2.56829,0.66047 6.1523856,6.1452822 0 0 0 -1.11165,0.7562 6.6123771,6.6047426 0 0 0 -0.9104,0.95721 5.8457247,5.8389753 0 0 0 -0.87206,5.10192 0.09583155,0.09572091 0 0 0 0.0958,0.067 v 0 a 0.09583155,0.09572091 0 0 0 0.0863,-0.11486 6.4686298,6.4611612 0 0 1 0.0767,-2.49832 6.1523856,6.1452822 0 0 1 1.05415,-2.25901 z"
     id="path3907"
     style="stroke-width:0.957762;fill:#d0d0d0;fill-opacity:0.81568629" />
  <path
     class="cls-1"
     d="m 197.15041,145.17092 a 0.10541471,0.105293 0 0 0 0.13416,0.0574 0.11499786,0.11486509 0 0 0 0.0671,-0.12444 8.3660945,8.3564352 0 0 0 -1.40872,-2.73761 8.4810923,8.4713003 0 0 0 -14.89222,3.03435 8.1360988,8.126705 0 0 0 -0.22042,3.07264 0.10541471,0.105293 0 0 0 0.0958,0.0862 0.09583155,0.09572091 0 0 0 0.10541,-0.0862 v 0 a 8.5577576,8.547877 0 0 1 1.72497,-5.58053 8.2606798,8.2511422 0 0 1 10.61813,-2.16329 8.519425,8.5095886 0 0 1 3.77577,4.44145 z"
     id="path3909"
     style="stroke-width:0.957762;fill:#d0d0d0;fill-opacity:0.81568629" />
  <path
     class="cls-1"
     d="m 189.91513,128.64949 a 0.09583155,0.09572091 0 0 0 -0.12459,-0.0574 v 0 a 10.541471,10.5293 0 0 0 -3.62243,1.97185 11.365622,11.3525 0 0 0 -2.62578,3.21622 11.154793,11.141914 0 0 0 -1.24581,3.96285 10.819382,10.80689 0 0 0 0.33541,4.10642 0.11499786,0.11486509 0 0 0 0.10541,0.0766 v 0 a 0.10541471,0.105293 0 0 0 0.0767,-0.12444 12.218523,12.204416 0 0 1 -0.0767,-4.00113 11.710616,11.697095 0 0 1 3.71827,-6.88234 12.151441,12.137411 0 0 1 3.39243,-2.13457 0.10541471,0.105293 0 0 0 0.0671,-0.13401 z"
     id="path3911"
     style="stroke-width:0.957762;fill:#d0d0d0;fill-opacity:0.81568629" />
  <path
     class="cls-1"
     d="m 186.49394,141.28465 a 6.0948867,6.0878497 0 0 0 -4.16867,5.01577 0.09583155,0.09572091 0 0 0 0.0862,0.11487 v 0 a 0.11499786,0.11486509 0 0 0 0.0958,-0.067 8.8644185,8.8541839 0 0 1 1.57163,-2.81419 9.2956605,9.284928 0 0 1 2.47246,-2.058 0.10541471,0.105293 0 0 0 0,-0.14358 0.09583155,0.09572091 0 0 0 -0.10542,-0.0479 z"
     id="path3913"
     style="stroke-width:0.957762;fill:#d0d0d0;fill-opacity:0.81568629" />
  <path
     class="cls-1"
     d="m 190.11637,120.14947 a 6.3248824,6.3175799 0 0 0 -2.69286,2.98649 0.10541471,0.105293 0 0 0 0.0479,0.13401 h 0.0479 a 0.13416417,0.13400927 0 0 0 0.0863,0 8.4427597,8.4330119 0 0 1 2.77911,-2.61318 8.6248397,8.6148816 0 0 1 3.66077,-1.09121 0.10541471,0.105293 0 0 0 0.0958,-0.0957 0.10541471,0.105293 0 0 0 -0.0958,-0.10529 6.3152993,6.3080078 0 0 0 -3.9291,0.78491 z"
     id="path3915"
     style="stroke-width:0.957762;fill:#d0d0d0;fill-opacity:0.81568629" />
  <path
     class="cls-1"
     d="m 186.28311,122.15961 a 8.1744314,8.1649934 0 0 0 -0.89123,2.87163 0.11499786,0.11486509 0 0 0 0.0862,0.11486 0.09583155,0.09572091 0 0 0 0.11499,-0.0766 v 0 a 8.2894292,8.2798584 0 0 1 2.87495,-4.92963 8.088183,8.0788445 0 0 1 10.60855,0.28716 8.2702629,8.2607143 0 0 1 2.60662,5.08278 0.11499786,0.11486509 0 0 0 0.10542,0.0862 0.09583155,0.09572091 0 0 0 0.10541,-0.0862 v 0 a 8.2031808,8.1937096 0 0 0 -2.5012,-5.40823 8.4715092,8.4617282 0 0 0 -5.55823,-2.32602 h -0.19167 a 8.3948439,8.3851514 0 0 0 -5.48156,2.02929 8.2510966,8.2415701 0 0 0 -1.8783,2.35473 z"
     id="path3917"
     style="stroke-width:0.957762;fill:#d0d0d0;fill-opacity:0.81568629" />
  <path
     class="cls-1"
     d="m 188.7939,130.98508 a 8.030684,8.021412 0 0 0 -1.91663,1.38795 9.0560817,9.0456257 0 0 0 -1.49498,1.91442 8.8356691,8.8254676 0 0 0 -0.95831,2.20158 8.2031808,8.1937096 0 0 0 -0.31625,2.36431 0.10541471,0.105293 0 0 0 0.13417,0.067 0.11499786,0.11486509 0 0 0 0.0671,-0.067 12.783929,12.769169 0 0 1 0.55582,-2.23987 11.911862,11.898109 0 0 1 0.95832,-2.06757 11.499786,11.486509 0 0 1 1.36081,-1.82827 12.400603,12.386285 0 0 1 1.7058,-1.54111 0.11499786,0.11486509 0 0 0 0,-0.13401 0.10541471,0.105293 0 0 0 -0.0958,-0.0574 z"
     id="path3919"
     style="stroke-width:0.957762;fill:#d0d0d0;fill-opacity:0.81568629" />
  <path
     class="cls-1"
     d="m 219.30666,138.32687 a 4.1495062,4.1447153 0 0 0 -2.29037,-0.20101 4.5136661,4.5084547 0 0 0 -2.08913,1.02421 4.4082514,4.4031617 0 0 0 -1.28414,1.91442 4.1782557,4.1734315 0 0 0 -0.10542,2.2973 0.10541471,0.105293 0 0 0 0.10542,0.0766 0.09583155,0.09572091 0 0 0 0.0958,-0.10529 4.9640744,4.958343 0 0 1 0.34499,-2.10586 4.4561672,4.4510222 0 0 1 3.03786,-2.66104 4.7915776,4.7860453 0 0 1 2.12746,-0.067 0.09583155,0.09572091 0 0 0 0.115,-0.067 0.09583155,0.09572091 0 0 0 -0.0575,-0.1053 z"
     id="path3921"
     style="stroke-width:0.957762;fill:#d0d0d0;fill-opacity:0.81568629" />
  <path
     class="cls-1"
     d="m 222.6991,140.55717 a 0.10541471,0.105293 0 0 0 0.13416,0.0574 0.11499786,0.11486509 0 0 0 0.0575,-0.13401 5.4240658,5.4178033 0 0 0 -1.02539,-1.76126 5.6253121,5.6188172 0 0 0 -7.92527,-0.48818 5.864891,5.8581195 0 0 0 -1.04457,1.2348 5.3761501,5.3699429 0 0 0 -0.72832,3.95328 0.10541471,0.105293 0 0 0 0.0958,0.0861 0.10541471,0.105293 0 0 0 0.10542,-0.10529 v 0 a 5.5678132,5.5613847 0 0 1 0.95831,-3.67568 5.4240658,5.4178033 0 0 1 3.03786,-2.17287 5.309068,5.3029382 0 0 1 3.71827,0.32545 5.5007311,5.4943801 0 0 1 2.6162,2.68019 z"
     id="path3923"
     style="stroke-width:0.957762;fill:#d0d0d0;fill-opacity:0.81568629" />
  <path
     class="cls-1"
     d="m 198.00331,147.58308 a 6.1811351,6.1739985 0 0 0 -1.6483,-0.49774 5.2132364,5.2072173 0 0 0 -1.72497,0 5.9798888,5.9729846 0 0 0 -1.66747,0.49774 6.1236362,6.1165659 0 0 0 -1.44706,0.95721 5.6732279,5.6666777 0 0 0 -1.10206,1.33052 6.4494634,6.442017 0 0 0 -0.67082,1.58897 6.7082086,6.7004635 0 0 0 -0.15333,1.69426 0.10541471,0.105293 0 0 0 0.10541,0.10529 v 0 a 0.10541471,0.105293 0 0 0 0.10542,-0.10529 6.0948867,6.0878497 0 0 1 1.00623,-3.02478 5.8457247,5.8389753 0 0 1 2.3862,-2.058 5.5773963,5.5709568 0 0 1 1.51414,-0.4786 5.9032236,5.8964079 0 0 1 1.59081,-0.0479 6.0373878,6.0304171 0 0 1 2.98994,1.14865 0.10541471,0.105293 0 0 0 0.14375,0 0.11499786,0.11486509 0 0 0 0,-0.13401 6.2865498,6.2792915 0 0 0 -1.42789,-0.97636 z"
     id="path3925"
     style="stroke-width:0.957762;fill:#d0d0d0;fill-opacity:0.81568629" />
  <path
     class="cls-1"
     d="m 195.09961,148.52115 a 4.2165883,4.2117199 0 0 0 -3.83326,3.07264 0.09583155,0.09572091 0 0 0 0.0575,0.12444 h 0.0863 a 6.7561244,6.7483239 0 0 1 3.70868,-2.95778 0.10541471,0.105293 0 0 0 0.0671,-0.13401 0.11499786,0.11486509 0 0 0 -0.0671,-0.067 z"
     id="path3927"
     style="stroke-width:0.957762;fill:#d0d0d0;fill-opacity:0.81568629" />
  <path
     class="cls-1"
     d="m 208.32437,146.75988 a 4.446584,4.4414501 0 0 0 -6.91904,4.13515 0.11499786,0.11486509 0 0 0 0.10541,0.0862 0.0862484,0.08614882 0 0 0 0.0958,-0.0957 v 0 a 4.3890851,4.3840175 0 0 1 1.04456,-2.8142 4.2165883,4.2117199 0 0 1 2.54912,-1.45496 4.3028367,4.2978687 0 0 1 2.87495,0.53604 4.5232492,4.5180268 0 0 1 1.91663,2.31645 0.0862484,0.08614882 0 0 0 0.11499,0.067 v 0 a 0.11499786,0.11486509 0 0 0 0.0671,-0.12444 4.1111736,4.1064269 0 0 0 -0.66124,-1.49324 4.446584,4.4414501 0 0 0 -1.18831,-1.15823 z"
     id="path3929"
     style="stroke-width:0.957762;fill:#d0d0d0;fill-opacity:0.81568629" />
  <path
     class="cls-1"
     d="m 225.57405,149.17205 a 2.6257845,2.6227528 0 0 0 -3.5841,0.61262 2.4149551,2.4121669 0 0 0 -0.46958,1.84741 0.11499786,0.11486509 0 0 0 0.10542,0.0861 0.0862484,0.08614882 0 0 0 0.0958,-0.0957 v 0 a 2.5874519,2.5844645 0 0 1 0.6804,-1.49325 2.3574562,2.3547343 0 0 1 1.39914,-0.77534 2.3191236,2.3164459 0 0 1 1.57164,0.27759 2.6066182,2.6036087 0 0 1 1.10206,1.25395 0.09583155,0.09572091 0 0 0 0.12458,0.0574 v 0 a 0.10541471,0.105293 0 0 0 0.0767,-0.11487 2.4916203,2.4887436 0 0 0 -1.10206,-1.65597 z"
     id="path3931"
     style="stroke-width:0.957762;fill:#d0d0d0;fill-opacity:0.81568629" />
  <path
     class="cls-1"
     d="m 144.89346,148.6073 a 8.9602501,8.9499048 0 0 0 -2.57787,-0.20102 8.7781702,8.7680351 0 0 0 -2.52037,0.5839 8.5577576,8.547877 0 0 0 -3.91951,3.17794 0.11499786,0.11486509 0 0 0 0.0575,0.14358 0.10541471,0.105293 0 0 0 0.10542,0 8.6248397,8.6148816 0 0 1 3.91951,-2.87163 8.4235934,8.4138677 0 0 1 4.79158,-0.27759 8.5385913,8.5287328 0 0 1 4.15908,2.38345 8.6823386,8.6723142 0 0 1 2.2233,4.31701 0.10541471,0.105293 0 0 0 0.0958,0.0862 h 0.0671 a 0.09583155,0.09572091 0 0 0 0.0863,-0.11486 8.4810923,8.4713003 0 0 0 -6.51655,-7.18864 z"
     id="path3933"
     style="stroke-width:0.957762;fill:#d0d0d0;fill-opacity:0.81568629" />
  <path
     class="cls-1"
     d="m 174.43833,147.03748 a 7.2352822,7.2269285 0 0 0 -8.74942,3.68525 c -0.0958,0.21059 -0.18208,0.43074 -0.27791,0.68919 a 11.039795,11.027048 0 0 0 -3.0187,-1.65597 10.713967,10.701597 0 0 0 -10.49355,1.91442 0.09583155,0.09572091 0 0 0 0,0.13401 v 0 a 0.10541471,0.105293 0 0 0 0.14375,0 11.758531,11.744955 0 0 1 3.20077,-1.58897 12.084359,12.070406 0 0 1 3.50744,-0.55518 v 0 a 11.796864,11.783244 0 0 1 3.4691,0.52646 11.499786,11.486509 0 0 1 3.07619,1.47411 7.101118,7.0929192 0 0 0 -0.10541,4.02027 0.11499786,0.11486509 0 0 0 0.10541,0.0766 v 0 a 0.09583155,0.09572091 0 0 0 0.0767,-0.11487 v 0 a 7.0532022,7.0450587 0 0 1 0.68998,-4.72861 6.9669538,6.9589099 0 0 1 3.47869,-3.1875 7.0436191,7.0354867 0 0 1 8.55776,2.57489 0.10541471,0.105293 0 0 0 0.14374,0 v 0 a 0.10541471,0.105293 0 0 0 0,-0.14358 7.2544485,7.2460726 0 0 0 -3.80451,-3.1205 z"
     id="path3935"
     style="stroke-width:0.957762;fill:#d0d0d0;fill-opacity:0.81568629" />
  <path
     class="cls-1"
     d="m 160.89733,150.63658 a 6.1044699,6.0974218 0 0 0 -2.19454,-0.32545 5.3186511,5.3125103 0 0 0 -1.10206,0.12444 5.2419859,5.2359336 0 0 0 -1.06373,0.32545 0.09583155,0.09572091 0 0 0 0,0.19144 h 4.27408 a 0.09583155,0.09572091 0 0 0 0.10542,-0.0766 v -0.0574 a 0.10541471,0.105293 0 0 0 0,-0.14358 z"
     id="path3937"
     style="stroke-width:0.957762;fill:#d0d0d0;fill-opacity:0.81568629" />
  <path
     class="cls-1"
     d="m 147.56716,151.27791 a 8.2702629,8.2607143 0 0 0 -0.95831,-0.67962 7.4844442,7.4758028 0 0 0 -3.44036,-0.95721 7.3023643,7.2939331 0 0 0 -2.35745,0.32546 0.11499786,0.11486509 0 0 0 -0.0671,0.12443 0.09583155,0.09572091 0 0 0 0.11499,0.0766 v 0 a 8.6248397,8.6148816 0 0 1 6.45905,1.48367 9.7748183,9.7635325 0 0 1 1.67705,1.53154 h 0.18208 a 0.11499786,0.11486509 0 0 0 0,-0.13401 7.0915348,7.0833471 0 0 0 -1.60997,-1.77084 z"
     id="path3939"
     style="stroke-width:0.957762;fill:#d0d0d0;fill-opacity:0.81568629" />
</svg>
