<?xml version="1.0" encoding="UTF-8" standalone="no"?>
<svg
   xmlns:dc="http://purl.org/dc/elements/1.1/"
   xmlns:cc="http://creativecommons.org/ns#"
   xmlns:rdf="http://www.w3.org/1999/02/22-rdf-syntax-ns#"
   xmlns:svg="http://www.w3.org/2000/svg"
   xmlns="http://www.w3.org/2000/svg"
   xmlns:sodipodi="http://sodipodi.sourceforge.net/DTD/sodipodi-0.dtd"
   xmlns:inkscape="http://www.inkscape.org/namespaces/inkscape"
   viewBox="0 0 307.67 201.98"
   version="1.1"
   id="svg4284"
   sodipodi:docname="overview-3.svg"
   inkscape:version="1.0.1 (c497b03c, 2020-09-10)">
  <metadata
     id="metadata4288">
    <rdf:RDF>
      <cc:Work
         rdf:about="">
        <dc:format>image/svg+xml</dc:format>
        <dc:type
           rdf:resource="http://purl.org/dc/dcmitype/StillImage" />
      </cc:Work>
    </rdf:RDF>
  </metadata>
  <sodipodi:namedview
     pagecolor="#ffffff"
     bordercolor="#666666"
     borderopacity="1"
     objecttolerance="10"
     gridtolerance="10"
     guidetolerance="10"
     inkscape:pageopacity="0"
     inkscape:pageshadow="2"
     inkscape:window-width="1637"
     inkscape:window-height="845"
     id="namedview4286"
     showgrid="false"
     inkscape:zoom="2.0433423"
     inkscape:cx="153.83501"
     inkscape:cy="100.99"
     inkscape:window-x="558"
     inkscape:window-y="1465"
     inkscape:window-maximized="0"
     inkscape:current-layer="svg4284" />
  <defs
     id="defs4248">
    <style
       id="style4246">.cls-1{fill:#2d4150;}.cls-2,.cls-3,.cls-4,.cls-5{isolation:isolate;}.cls-3,.cls-4,.cls-5{font-size:14px;fill:#fbb03b;font-family:HiraKakuStd-W8-83pv-RKSJ-H, Hiragino Kaku Gothic Std;}.cls-4{letter-spacing:-0.06em;}.cls-5{letter-spacing:-0.11em;}</style>
  </defs>
  <path
     class="cls-1"
     d="m 237.49489,151.815 a 6.284823,5.7868506 0 0 0 -6.13193,4.44571 H 74.942493 a 6.2928701,5.7942602 0 1 0 0,2.57112 H 231.36296 a 6.2928701,5.7942602 0 1 0 6.13193,-7.08352 z"
     id="path4250"
     style="stroke-width:0.772177;fill:#000000" />
  <path
     class="cls-1"
     d="m 42.069892,147.94721 -6.131927,19.26481 h 6.437719 l 0.804715,-3.70477 h 4.989231 l 0.804715,3.70477 h 6.558426 l -6.075597,-19.26481 z m 2.011787,11.53666 1.60943,-7.55033 1.60943,7.55033 z"
     id="path4252"
     style="stroke-width:0.772177;fill:#000000" />
  <path
     class="cls-1"
     d="m 267.69584,161.50667 c 0,-3.01567 -2.41414,-4.06784 -4.6593,-4.51242 1.86693,-0.44455 3.7902,-1.57822 3.7902,-4.06783 0,-3.76403 -3.70168,-4.97921 -9.56,-4.97921 h -6.46991 v 19.26481 h 7.33095 c 5.4801,-0.007 9.56806,-1.14107 9.56806,-5.70535 z m -10.75904,-9.6324 h 0.90128 c 1.98765,0 2.70384,0.52608 2.70384,1.66715 0,1.34853 -0.65987,1.87461 -2.55095,1.87461 h -1.05417 z m 0,7.1428 h 1.44043 c 1.92327,0 2.94527,0.63722 2.94527,2.12654 0,1.719 -1.28754,2.07467 -3.17863,2.07467 h -1.20707 z"
     id="path4254"
     style="stroke-width:0.772177;fill:#000000" />
  <path
     class="cls-1"
     d="m 235.76521,74.561823 a 6.2928701,5.7942602 0 0 0 -6.10778,4.445724 68.585847,63.151509 0 0 0 -10.35667,0.518668 c -5.78591,0.740953 -10.99241,2.771168 -16.34377,4.8162 a 60.892773,56.067988 0 0 1 -10.99241,3.223149 C 186.573,83.164298 179.41104,81.637933 172.29736,81.571248 l -0.0482,-0.06669 a 24.32653,22.39904 0 0 1 -3.02573,-7.409539 124.67447,114.796 0 0 1 15.28958,-1.207755 c 6.56647,-0.140782 17.82443,2.104309 22.37912,-3.875189 5.04556,-6.668587 -2.59923,-13.22603 -8.44146,-16.219483 -7.39534,-3.778866 -16.56103,-6.12769 -24.46333,-2.222862 -7.9023,3.904827 -8.77139,12.270198 -7.95863,19.724194 0.0644,0.585354 0.14485,1.170708 0.23336,1.756062 a 122.13961,112.46199 0 0 0 -12.69035,2.556291 38.626313,35.56579 0 0 0 -5.34331,-4.149342 c 3.06596,-2.163586 6.16412,-4.290124 9.13352,-6.564852 a 19.313156,17.782896 0 0 0 6.68718,-14.707937 c -0.32188,-6.275877 -4.60296,-11.381051 -11.60398,-12.040499 -7.55627,-0.740955 -13.68015,3.771456 -15.93335,10.225164 a 33.44395,30.794047 0 0 0 0,18.183012 28.16502,25.93339 0 0 0 -3.26714,-0.48903 c -0.64377,-4.964392 -3.79021,-9.750954 -7.49995,-13.300123 -4.43398,-4.245667 -13.95376,-7.528093 -17.70373,-0.629812 -1.65771,3.008273 -0.61962,6.550033 0.80472,9.439754 a 74.484407,68.5827 0 0 0 5.34331,8.558019 36.477725,33.587444 0 0 0 -12.23166,10.788289 99.969732,92.048709 0 0 0 -12.875442,-1.007697 c -5.295021,0.05186 -10.590047,0.133372 -15.885071,0.192648 a 6.3089644,5.8090792 0 1 0 0,2.408101 q 7.604552,-0.06668 15.193022,-0.17783 a 93.169884,85.787653 0 0 1 12.070711,0.80764 c -0.523058,0.896554 -1.013938,1.807928 -1.440428,2.74894 -5.34332,11.714479 -2.60728,28.348908 11.829288,33.254018 a 19.224638,17.701391 0 0 0 17.00364,-1.85239 25.976195,23.917994 0 0 0 17.70372,1.32631 l 0.87714,-0.25933 c 3.37175,6.04618 9.27032,10.17329 17.74397,9.08409 10.93607,-1.393 15.88506,-11.37364 13.84914,-20.17617 a 34.136004,31.431268 0 0 0 13.04443,-1.48191 c 8.04714,-2.66003 7.70916,-9.86951 3.16252,-15.093236 a 70.090664,64.537092 0 0 0 9.43931,-3.030502 c 4.72367,-1.815338 9.38297,-3.70477 14.48487,-4.556868 a 60.240954,55.467815 0 0 1 11.47523,-0.740953 6.2928701,5.7942602 0 1 0 6.18825,-6.816777 z m -52.70077,10.973529 a 25.227811,23.228907 0 0 1 5.39964,2.519243 c -5.24674,0.459391 -10.30839,-0.422344 -14.08251,-4.038199 a 30.160713,27.770955 0 0 1 8.68287,1.518956 z m -14.60557,-17.5532 c -0.28969,-5.290411 0.2897,-11.025396 5.34331,-14.367098 4.76391,-3.163874 10.93606,-3.163874 16.3518,-1.556003 4.82829,1.415222 11.26601,4.082656 14.12275,8.150494 1.8267,2.593338 2.22101,6.186965 -0.49892,8.365369 -1.94741,1.548595 -4.73173,1.882024 -7.24243,1.985758 -5.31113,0.229695 -10.6303,-0.192649 -15.94946,0.06668 q -5.91465,0.303791 -11.78907,1.096612 c -0.16899,-1.267031 -0.26556,-2.497015 -0.33798,-3.741816 z m -1.74623,6.512984 a 29.911251,27.54126 0 0 0 2.67165,7.113159 c -1.11856,0 -2.22101,0.111143 -3.31543,0.207468 a 46.601038,42.908645 0 0 0 -5.96294,0.844687 17.188709,15.826777 0 0 0 -0.89322,-1.400403 45.064032,41.493424 0 0 0 -3.65342,-4.571686 c 3.69365,-0.889145 7.43558,-1.61528 11.15336,-2.193225 z M 147.7777,114.29177 a 31.383879,28.897205 0 0 1 -1.30364,-17.656923 55.259769,50.88131 0 0 0 13.06052,6.098053 22.218177,20.45774 0 0 1 -11.75688,11.55887 z m 5.44792,-16.878932 a 62.582674,57.623991 0 0 1 -5.802,-3.245373 15.241299,14.033668 0 0 1 5.91466,-6.579671 l 0.0805,-0.04446 c 2.41415,1.822747 4.88463,3.519532 7.43557,5.142221 a 23.529863,21.665495 0 0 1 -0.50697,7.750395 55.026402,50.666433 0 0 1 -7.09758,-3.023107 z m -7.9345,-4.779147 a 22.435451,20.657797 0 0 1 -3.88676,-3.70477 c -3.65341,-4.623553 -0.53917,-7.328035 3.55683,-9.061867 0.90933,1.022516 1.85085,2.007985 2.84066,2.963815 1.15073,1.089203 2.34975,2.126538 3.58098,3.134235 a 15.86093,14.604203 0 0 0 -5.63301,5.757213 c -0.14486,0.266743 -0.3058,0.585354 -0.4587,0.911374 z m 18.22681,1.644917 c 2.59922,1.481907 5.34329,2.963822 7.48384,4.912529 a 16.432277,15.130281 0 0 1 3.2591,4.230843 55.525325,51.125825 0 0 1 -11.62009,-2.22285 28.22135,25.985256 0 0 0 0.80471,-6.927932 z m -7.55628,-7.943027 a 22.395214,20.620749 0 0 1 2.75213,-0.903964 29.355998,27.030001 0 0 1 1.44848,3.838143 c -1.42435,-0.941012 -2.83259,-1.919072 -4.20061,-2.963817 z m -2.18077,-1.674556 a 63.065503,58.068564 0 0 1 -6.27678,-5.757212 c 1.18293,-0.385297 2.34976,-0.740954 3.3798,-0.992878 0.72423,-0.207468 1.45653,-0.385297 2.18882,-0.577944 a 34.168193,31.460906 0 0 1 4.51445,5.927632 27.199362,25.044245 0 0 0 -3.83849,1.392994 z m -2.78432,-9.306382 q -1.97155,0.533487 -3.91897,1.133661 l -1.35192,0.422343 q -1.20707,-1.481907 -2.26125,-2.963816 l 0.12072,-0.09632 c 0.88518,-0.65945 1.78646,-1.30408 2.68773,-1.95612 a 34.216476,31.505363 0 0 1 4.6915,3.452845 z m -8.85187,-3.519531 c -0.51501,-0.874326 -0.99784,-1.76347 -1.42434,-2.674844 a 30.780343,28.341489 0 0 1 3.16253,1.392994 z m -4.22474,-12.840733 c -0.67597,-8.721028 2.74407,-21.332064 15.11253,-19.361126 10.53372,1.674554 10.4613,14.996907 4.4018,20.954177 -3.2752,3.252789 -7.6448,5.749803 -11.49134,8.446876 a 32.244924,29.690026 0 0 0 -6.43771,-2.748939 32.470245,29.897493 0 0 1 -1.60943,-7.290988 z m -0.39432,9.18783 a 43.221235,39.796638 0 0 0 2.58314,5.134811 118.36551,108.98693 0 0 0 -12.07073,10.373356 c -0.9576,-1.318898 -1.94741,-2.615568 -2.92916,-3.912237 a 17.607161,16.212073 0 0 0 7.24243,-7.705921 14.879177,13.700239 0 0 0 1.05418,-4.630962 c 0.53111,0.05928 1.06223,0.118552 1.60943,0.207467 0.853,0.14078 1.706,0.318609 2.51071,0.533486 z m -10.24402,45.368621 c -3.55684,-1.65233 -6.43772,-4.11971 -7.13782,-7.40955 -1.36802,-6.668586 2.91307,-13.196388 7.24243,-18.086685 0.11267,-0.133372 0.23337,-0.251924 0.34603,-0.377886 a 34.498125,31.764697 0 0 1 4.82829,11.447735 c 0.94152,5.749806 -1.09441,11.166186 -5.26283,14.463426 z M 123.6282,77.873887 q -2.92111,-3.85296 -5.68129,-7.831883 a 29.203102,26.889219 0 0 1 12.81106,-2.697073 12.650118,11.647796 0 0 1 -1.43238,5.090355 15.506854,14.278183 0 0 1 -5.69739,5.431192 z m -9.28641,-13.218619 c -2.5107,-3.830733 -8.48168,-12.900009 -0.43454,-14.945041 5.79395,-1.481909 10.78318,3.852959 13.55945,7.824473 a 20.504134,18.879507 0 0 1 3.15448,7.357673 28.494953,26.237181 0 0 0 -4.8283,0.32602 32.333442,29.771531 0 0 0 -9.25422,2.704482 q -1.11854,-1.60046 -2.19687,-3.267607 z m 1.24732,6.542624 1.85084,2.585929 c 1.23121,1.719013 2.56704,3.438027 3.92701,5.186679 a 19.828174,18.257107 0 0 1 -3.88678,1.126248 43.060292,39.648448 0 0 1 -12.61792,0.177829 33.967015,31.275668 0 0 1 10.72685,-9.076685 z m 0.36211,45.568668 C 105.9969,116.02561 99.760372,107.17862 99.156832,98.642827 a 31.166606,28.697148 0 0 1 4.192568,-16.182435 59.17873,54.489756 0 0 0 12.28798,0.288972 22.652723,20.857855 0 0 0 7.24244,-1.830156 c 1.17488,1.481907 2.33368,3.030502 3.42004,4.586506 -3.74997,4.00115 -7.19415,8.609884 -8.36904,13.796563 -1.32778,5.846123 -0.34602,11.069853 5.2226,14.596793 0.62768,0.40011 1.2795,0.74095 1.94741,1.12625 a 15.611468,14.374507 0 0 1 -9.14961,1.72642 z m 23.40916,-0.65203 a 26.61192,24.503348 0 0 1 -9.21398,-1.42264 16.641503,15.322929 0 0 0 1.45653,-1.43744 c 5.5123,-6.34999 4.41788,-15.24143 0.99785,-22.191582 a 49.272691,45.368612 0 0 0 -3.12229,-5.275593 113.83496,104.81535 0 0 1 11.95805,-10.373355 c 0.55526,0.815049 1.1427,1.60787 1.74624,2.378461 -2.19687,0.896555 -4.2328,2.126538 -5.3594,4.097476 -1.78647,3.112007 -0.34603,6.475939 1.86694,9.02482 a 31.247077,28.771243 0 0 0 4.56273,4.18639 34.868295,32.105536 0 0 0 1.03807,20.042813 22.845855,21.035684 0 0 1 -5.93074,0.9336 z m 31.06199,5.41636 c -2.93721,2.30438 -7.1861,3.07498 -10.93607,2.54888 -4.95704,-0.69649 -8.28856,-3.70477 -10.5659,-7.55772 a 24.181681,22.265667 0 0 0 12.96395,-13.01115 c 0.74838,0.21488 1.48871,0.42975 2.22101,0.62241 a 66.155608,60.913827 0 0 0 11.26601,1.99316 16.182815,14.900585 0 0 1 -4.949,15.40442 z m 24.50357,-25.140564 c 0.72425,6.312934 -7.83792,7.031654 -12.75474,7.231714 q -2.5107,0.10374 -5.02142,0 a 18.25898,16.812245 0 0 0 -4.91679,-6.668582 c -2.6958,-2.222866 -5.97904,-3.919653 -9.03696,-5.757219 a 27.43273,25.259121 0 0 0 -1.93936,-6.364794 49.176125,45.279698 0 0 1 6.03536,-0.740954 c 1.21512,-0.08151 2.41414,-0.140781 3.67755,-0.163009 a 16.609314,15.293291 0 0 0 6.26068,4.897705 c 4.55468,2.059852 9.38297,2.222862 14.15494,1.415222 a 11.153349,10.269623 0 0 1 3.54074,6.149917 z"
     id="path4266"
     style="stroke-width:0.772177;fill:#000000" />
  <path
     class="cls-1"
     d="m 40.340223,70.723681 -6.099738,19.264804 h 6.437718 l 0.804716,-3.70477 h 4.957043 l 0.804716,3.70477 h 6.590614 L 47.759695,70.723681 Z m 2.011788,11.536654 1.609429,-7.550322 1.60943,7.550322 z"
     id="path4268"
     style="stroke-width:0.772177;fill:#000000" />
  <path
     class="cls-1"
     d="m 261.33906,79.770729 c 1.86694,-0.444572 3.7902,-1.578232 3.7902,-4.067837 0,-3.764047 -3.70168,-4.979211 -9.56001,-4.979211 h -6.51819 v 19.264804 h 7.33095 c 5.49621,0 9.61634,-1.13366 9.61634,-5.697936 0,-3.023092 -2.3739,-4.075247 -4.65929,-4.51982 z m -6.09974,-5.142221 h 0.90128 c 1.9796,0 2.70384,0.526078 2.70384,1.659737 0,1.355946 -0.65986,1.882023 -2.55095,1.882023 h -1.05417 z m 1.19903,11.336596 h -1.19903 v -4.201209 h 1.44044 c 1.92326,0 2.94526,0.63722 2.94526,2.133948 0,1.711603 -1.28755,2.067261 -3.18667,2.067261 z"
     id="path4270"
     style="stroke-width:0.772177;fill:#000000" />
  <text
     xml:space="preserve"
     style="font-style:normal;font-weight:normal;font-size:36.1084px;line-height:1.25;font-family:sans-serif;fill:#000000;fill-opacity:1;stroke:none;stroke-width:0.902711"
     x="212.17097"
     y="109.1163"
     id="text4325"
     transform="scale(1.0104143,0.98969304)"><tspan
       sodipodi:role="line"
       id="tspan4323"
       x="212.17097"
       y="109.1163"
       style="font-style:normal;font-variant:normal;font-weight:normal;font-stretch:normal;font-size:12.0361px;font-family:'Apple SD Gothic Neo';-inkscape-font-specification:'Apple SD Gothic Neo, Normal';font-variant-ligatures:normal;font-variant-caps:normal;font-variant-numeric:normal;font-variant-east-asian:normal;fill:#808080;stroke-width:0.902711">other way</tspan></text>
  <text
     xml:space="preserve"
     style="font-style:normal;font-weight:normal;font-size:36.1084px;line-height:1.25;font-family:sans-serif;fill:#000000;fill-opacity:1;stroke:none;stroke-width:0.902711"
     x="224.06284"
     y="185.39594"
     id="text4325-2"
     transform="scale(1.0104143,0.98969304)"><tspan
       sodipodi:role="line"
       id="tspan4323-7"
       x="224.06284"
       y="185.39594"
       style="font-style:normal;font-variant:normal;font-weight:normal;font-stretch:normal;font-size:12.0361px;font-family:'Apple SD Gothic Neo';-inkscape-font-specification:'Apple SD Gothic Neo, Normal';font-variant-ligatures:normal;font-variant-caps:normal;font-variant-numeric:normal;font-variant-east-asian:normal;fill:#808080;stroke-width:0.902711">our way</tspan></text>
</svg>
