<svg xmlns="http://www.w3.org/2000/svg" xmlns:xlink="http://www.w3.org/1999/xlink" viewBox="0 0 70.75 46.25"><defs><style>.cls-1{fill:#fff;}.cls-1,.cls-2{fill-rule:evenodd;}.cls-2{fill:url(#Dégradé_sans_nom_6);}</style><linearGradient id="Dégradé_sans_nom_6" x1="22.18" y1="25.92" x2="47.82" y2="56.48" gradientUnits="userSpaceOnUse"><stop offset="0" stop-color="aqua"/><stop offset="0.37" stop-color="aqua" stop-opacity="0.99"/><stop offset="0.51" stop-color="aqua" stop-opacity="0.97"/><stop offset="0.6" stop-color="aqua" stop-opacity="0.92"/><stop offset="0.68" stop-color="aqua" stop-opacity="0.85"/><stop offset="0.75" stop-color="aqua" stop-opacity="0.77"/><stop offset="0.8" stop-color="aqua" stop-opacity="0.66"/><stop offset="0.86" stop-color="aqua" stop-opacity="0.53"/><stop offset="0.91" stop-color="aqua" stop-opacity="0.39"/><stop offset="0.95" stop-color="aqua" stop-opacity="0.22"/><stop offset="0.99" stop-color="aqua" stop-opacity="0.04"/><stop offset="1" stop-color="aqua" stop-opacity="0"/></linearGradient></defs><g id="Calque_2" data-name="Calque 2"><g id="Calque_1-2" data-name="Calque 1"><path class="cls-1" d="M69.46,25.23h0a13.37,13.37,0,0,0-6.2-6.14c-.46-.23-.95-.44-1.45-.68A17.19,17.19,0,0,0,58.64,7.57,17.65,17.65,0,0,0,38.94.81a17.74,17.74,0,0,0-10.11,8.1c-.62,0-1.14,0-1.66,0a20.19,20.19,0,0,0-3.12.18,13,13,0,0,0-9.64,7.51l-.48,1c-1.22.14-2.32.19-3.39.4A13.11,13.11,0,0,0,1.82,37.54a11.79,11.79,0,0,0,5.65,5.34V37.74a8.81,8.81,0,0,1,6.14-15.58c.78,0,1.56.14,2.35.18A9.55,9.55,0,0,0,17,22.28c.39-1.11.73-2.15,1.13-3.17a8.76,8.76,0,0,1,6.29-5.61,9.27,9.27,0,0,1,3.89,0,11.64,11.64,0,0,0,2.77.39c.6-1,1.13-2.07,1.75-3A12.93,12.93,0,0,1,43.74,4.45,13.16,13.16,0,0,1,57.37,18.09c-.06.83-.06,1.67-.06,2.51a8.94,8.94,0,0,0,.12,1c1.16.41,2.27.73,3.32,1.19a8.5,8.5,0,0,1,5.46,7.43,8.39,8.39,0,0,1-3.58,7.83v5a12.84,12.84,0,0,0,4.79-3.48,11.76,11.76,0,0,0,3-5.37h0C71.57,28.22,69.46,25.23,69.46,25.23Z"/><path class="cls-2" d="M58.94,36.25h-48a2.6,2.6,0,0,0-2.61,1.86l0,5.11h0v0a2.71,2.71,0,0,0,2.63,3h48a3,3,0,0,0,3-2.81l-.05-4.83A3,3,0,0,0,58.94,36.25Zm-44.63,8h-1v-6h1Zm2,0h-1v-6h1Zm2,0h-1v-6h1Zm2,0h-1v-6h1Zm2,0h-1v-6h1Zm2,0h-1v-6h1Zm2,0h-1v-6h1Zm2,0h-1v-6h1Zm2,0h-1v-6h1ZM46.38,42.4a1.22,1.22,0,1,1,1.22-1.22A1.22,1.22,0,0,1,46.38,42.4Zm4,0a1.22,1.22,0,1,1,1.22-1.22A1.22,1.22,0,0,1,50.38,42.4Zm4,0a1.22,1.22,0,1,1,1.22-1.22A1.22,1.22,0,0,1,54.38,42.4Z"/></g></g></svg>