<svg xmlns="http://www.w3.org/2000/svg" xmlns:xlink="http://www.w3.org/1999/xlink" viewBox="0 0 49.02 50.95"><defs><style>.cls-1,.cls-2{fill-rule:evenodd;}.cls-1{fill:url(#DÈgradÈ_sans_nom_18);}.cls-2{fill:url(#DÈgradÈ_sans_nom_18-2);}.cls-3{fill:url(#DÈgradÈ_sans_nom_18-3);}.cls-4{fill:url(#Orange);}.cls-5{fill:url(#Orange-2);}.cls-6{fill:url(#Orange-3);}</style><linearGradient id="DÈgradÈ_sans_nom_18" x1="31.5" y1="33.83" x2="31.63" y2="33.99" gradientUnits="userSpaceOnUse"><stop offset="0" stop-color="#4d4d4d"/><stop offset="1" stop-color="#1a1a1a"/></linearGradient><linearGradient id="DÈgradÈ_sans_nom_18-2" x1="31.5" y1="9.83" x2="31.63" y2="9.99" xlink:href="#DÈgradÈ_sans_nom_18"/><linearGradient id="DÈgradÈ_sans_nom_18-3" x1="14.55" y1="18.29" x2="28.63" y2="35.07" xlink:href="#DÈgradÈ_sans_nom_18"/><linearGradient id="Orange" x1="21.84" y1="21.28" x2="24" y2="23.85" gradientTransform="translate(22.64 -9.6) rotate(44.95)" gradientUnits="userSpaceOnUse"><stop offset="0" stop-color="#f69453"/><stop offset="0.5" stop-color="#f37521"/><stop offset="1" stop-color="#d4622a"/></linearGradient><linearGradient id="Orange-2" x1="25.38" y1="24.82" x2="27.54" y2="27.39" gradientTransform="translate(26.21 -11.06) rotate(45)" xlink:href="#Orange"/><linearGradient id="Orange-3" x1="14.1" y1="40.26" x2="30.02" y2="59.23" gradientTransform="matrix(1, 0, 0, 1, 0, 0)" xlink:href="#Orange"/></defs><g id="Calque_2" data-name="Calque 2"><g id="Calque_1-2" data-name="Calque 1"><path class="cls-1" d="M31.55,34.06h0c0-.1,0-.2,0-.3C31.57,33.86,31.55,34,31.55,34.06Z"/><path class="cls-2" d="M31.55,10.06h0c0-.1,0-.2,0-.3C31.57,9.86,31.55,10,31.55,10.06Z"/><path class="cls-3" d="M48.73,11.61,37.42.29A1,1,0,0,0,36,.29L35.29,1,30.34,6,3.83,32.47a1,1,0,0,0-.27.47L0,47.79a1,1,0,0,0,.26.94,1,1,0,0,0,.94.27l14.85-3.54a.93.93,0,0,0,.48-.27L48.73,13A1,1,0,0,0,48.73,11.61Zm-37.53,33c-.85-4.67-4.8-6.52-6.65-7.14l.88-3.68,3.81.34.4,4.62a.51.51,0,0,0,.15.31.5.5,0,0,0,.31.14l4.62.4.35,4.08ZM16,42.91l-.33-3.85a.51.51,0,0,0-.46-.46l-4.62-.4-.4-4.62a.49.49,0,0,0-.45-.45l-3.45-.3L31.76,7.36l9.9,9.9Z"/><rect class="cls-4" x="8.92" y="22.07" width="28" height="1" rx="0.46" transform="translate(-9.24 22.79) rotate(-44.95)"/><rect class="cls-5" x="12.46" y="25.6" width="28" height="1" rx="0.46" transform="translate(-10.71 26.35) rotate(-45)"/><path class="cls-6" d="M23,49.89l-.55,0c.17-.26.36-.53.54-.78.62-.85,1.29-1.68,1.94-2.51h0a.49.49,0,0,0,.09-.39.48.48,0,0,0-.57-.39l-5.63,1.07c-1.88.36-3.76.71-5.63,1.11L7.54,49.21c-1.87.42-3.75.81-5.61,1.25,1.9-.23,3.79-.53,5.69-.8l5.67-.9c1.89-.29,3.77-.62,5.66-.95l4.37-.76c-.4.5-.78,1-1.16,1.54a8.41,8.41,0,0,0-.89,1.47.83.83,0,0,0-.06.45.56.56,0,0,0,.53.44l.16,0h0l.4,0,.79-.08c1.06-.1,2.12-.24,3.18-.3s2.11-.16,3.16-.26l6.35-.57c2.13-.22,4.25-.41,6.37-.66-4.27,0-8.51.22-12.81.44C27.23,49.56,25.08,49.7,23,49.89ZM21.68,50h0Z"/></g></g></svg>