<svg xmlns="http://www.w3.org/2000/svg" xmlns:xlink="http://www.w3.org/1999/xlink" viewBox="0 0 79.01 74.8"><defs><style>.cls-1{fill:url(#Orange);}</style><linearGradient id="Orange" x1="19.08" y1="15.91" x2="54.9" y2="58.59" gradientUnits="userSpaceOnUse"><stop offset="0" stop-color="#f69453"/><stop offset="0.5" stop-color="#f37521"/><stop offset="1" stop-color="#d4622a"/></linearGradient></defs><g id="Calque_2" data-name="Calque 2"><g id="Calque_1-2" data-name="Calque 1"><path class="cls-1" d="M60.25,10.83,41.49,0V12.77c-1.64,0-3.24.08-4.78.21a57.69,57.69,0,0,0-9.59,1.68,47.86,47.86,0,0,0-9.44,3.62A37.7,37.7,0,0,0,13.16,21,34.54,34.54,0,0,0,9,24.53a29.89,29.89,0,0,0-6.33,9.11A32.33,32.33,0,0,0,.1,44,38,38,0,0,0,.69,54a29.18,29.18,0,0,0,3.65,9.67,23,23,0,0,0,7.36,7.43,24.92,24.92,0,0,0,9.13,3.34,28.39,28.39,0,0,0,4.56.4,32.75,32.75,0,0,0,4.45-.23,33.62,33.62,0,0,0,8.42-2A44.32,44.32,0,0,1,22.7,68.39a19.84,19.84,0,0,1-5.62-4.19A14.15,14.15,0,0,1,14,58.81a19.44,19.44,0,0,1-.86-6.28c0-1.11.09-2.25.19-3.39a30.11,30.11,0,0,1,.56-3.27,17.17,17.17,0,0,1,2.21-5.52,15.75,15.75,0,0,1,3.65-4.11,23.4,23.4,0,0,1,5.13-3,32.47,32.47,0,0,1,6.27-1.86A46.8,46.8,0,0,1,38,30.58c1.17-.06,2.28-.07,3.34,0h.15V43.32L60.25,32.49,79,21.66Z"/></g></g></svg>