<svg xmlns="http://www.w3.org/2000/svg" xmlns:xlink="http://www.w3.org/1999/xlink" viewBox="0 0 60.48 61.59"><defs><style>.cls-1{fill:url(#Dégradé_sans_nom_6);}.cls-2{fill:url(#Dégradé_sans_nom_6-2);}.cls-3{fill:#fff;}</style><linearGradient id="Dégradé_sans_nom_6" x1="31.14" y1="0.96" x2="38.81" y2="10.1" gradientUnits="userSpaceOnUse"><stop offset="0" stop-color="aqua"/><stop offset="0.37" stop-color="aqua" stop-opacity="0.99"/><stop offset="0.51" stop-color="aqua" stop-opacity="0.97"/><stop offset="0.6" stop-color="aqua" stop-opacity="0.92"/><stop offset="0.68" stop-color="aqua" stop-opacity="0.85"/><stop offset="0.75" stop-color="aqua" stop-opacity="0.77"/><stop offset="0.8" stop-color="aqua" stop-opacity="0.66"/><stop offset="0.86" stop-color="aqua" stop-opacity="0.53"/><stop offset="0.91" stop-color="aqua" stop-opacity="0.39"/><stop offset="0.95" stop-color="aqua" stop-opacity="0.22"/><stop offset="0.99" stop-color="aqua" stop-opacity="0.04"/><stop offset="1" stop-color="aqua" stop-opacity="0"/></linearGradient><linearGradient id="Dégradé_sans_nom_6-2" x1="8.11" y1="0.96" x2="15.78" y2="10.1" xlink:href="#Dégradé_sans_nom_6"/></defs><g id="Calque_2" data-name="Calque 2"><g id="Calque_1-2" data-name="Calque 1"><path class="cls-1" d="M38.4,1.07A1.07,1.07,0,0,0,37.33,0H32.67A1.08,1.08,0,0,0,31.6,1.07v9.38h6.8Z"/><path class="cls-2" d="M15.37,1.07A1.07,1.07,0,0,0,14.3,0H9.64A1.07,1.07,0,0,0,8.57,1.07v9.38h6.8Z"/><path class="cls-3" d="M57.48,38.69a3,3,0,0,0-3,3A13.9,13.9,0,0,1,26.75,43h9.33a6.44,6.44,0,0,0,6.43-6.42V18.82H45.9A1.07,1.07,0,0,0,47,17.75v-5a1.07,1.07,0,0,0-1.07-1.07H1.07A1.07,1.07,0,0,0,0,12.78v5a1.07,1.07,0,0,0,1.07,1.07h3.4v17.8A6.44,6.44,0,0,0,10.89,43h9.86a19.89,19.89,0,0,0,39.73-1.35A3,3,0,0,0,57.48,38.69Z"/></g></g></svg>