<svg xmlns="http://www.w3.org/2000/svg" xmlns:xlink="http://www.w3.org/1999/xlink" viewBox="0 0 60.48 61.59"><defs><style>.cls-1{fill:url(#Orange);}.cls-2{fill:url(#Orange-2);}.cls-3{fill:#333;}</style><linearGradient id="Orange" x1="31.14" y1="0.96" x2="38.81" y2="10.1" gradientUnits="userSpaceOnUse"><stop offset="0" stop-color="#f69453"/><stop offset="0.5" stop-color="#f37521"/><stop offset="1" stop-color="#d4622a"/></linearGradient><linearGradient id="Orange-2" x1="8.11" y1="0.96" x2="15.78" y2="10.1" xlink:href="#Orange"/></defs><g id="Calque_2" data-name="Calque 2"><g id="Calque_1-2" data-name="Calque 1"><path class="cls-1" d="M38.4,1.07A1.07,1.07,0,0,0,37.33,0H32.67A1.08,1.08,0,0,0,31.6,1.07v9.38h6.8Z"/><path class="cls-2" d="M15.37,1.07A1.07,1.07,0,0,0,14.3,0H9.64A1.07,1.07,0,0,0,8.57,1.07v9.38h6.8Z"/><path class="cls-3" d="M57.48,38.69a3,3,0,0,0-3,3A13.9,13.9,0,0,1,26.75,43h9.33a6.44,6.44,0,0,0,6.43-6.42V18.82H45.9A1.07,1.07,0,0,0,47,17.75v-5a1.07,1.07,0,0,0-1.07-1.07H1.07A1.07,1.07,0,0,0,0,12.78v5a1.07,1.07,0,0,0,1.07,1.07h3.4v17.8A6.44,6.44,0,0,0,10.89,43h9.86a19.89,19.89,0,0,0,39.73-1.35A3,3,0,0,0,57.48,38.69Z"/></g></g></svg>