<svg xmlns="http://www.w3.org/2000/svg" xmlns:xlink="http://www.w3.org/1999/xlink" viewBox="0 0 77.28 85.52"><defs><style>.cls-1{fill:url(#Orange);}</style><linearGradient id="Orange" y1="42.76" x2="77.28" y2="42.76" gradientUnits="userSpaceOnUse"><stop offset="0" stop-color="#f69453"/><stop offset="0.5" stop-color="#f37521"/><stop offset="1" stop-color="#d4622a"/></linearGradient></defs><g id="Calque_2" data-name="Calque 2"><g id="Calque_1-2" data-name="Calque 1"><path class="cls-1" d="M72.77,42.76a33.46,33.46,0,0,0-.37-4.93c4.63-6.72,6.44-13.2,3.32-17.91a10.55,10.55,0,0,0-7.21-4.35,26.9,26.9,0,0,0-9.33.19A33.54,33.54,0,0,0,46.41,9.92a25.69,25.69,0,0,0-5.08-6.78A10.53,10.53,0,0,0,33.51,0c-5.88.37-10,6.17-12.58,14.45a33.18,33.18,0,0,0-4.17,3.17,25.94,25.94,0,0,0-8.52.4h0a10.54,10.54,0,0,0-7,4.74C-1.58,27.65.57,34,5.55,40.47c0,.76-.08,1.52-.08,2.29a33.69,33.69,0,0,0,1,8.21c-3.78,6.11-5.05,11.9-2.2,16.22a10.59,10.59,0,0,0,7.21,4.35h0a27.49,27.49,0,0,0,9.78-.27,33.62,33.62,0,0,0,3.64,2,29.07,29.07,0,0,0,6.25,9.13h0A10.57,10.57,0,0,0,39,85.51c5-.33,8.8-4.62,11.38-11A33.61,33.61,0,0,0,57.45,71a28.63,28.63,0,0,0,10.77-.13,10.56,10.56,0,0,0,7-4.73c2.63-4.5,1-10.26-3.18-16.2A33.59,33.59,0,0,0,72.77,42.76Zm-25,29.77c.23-.18.46-.38.69-.57,0,.13-.09.26-.14.39ZM8.28,39.66A30.9,30.9,0,0,1,12.44,27h8.67a43.9,43.9,0,0,0-1.58,5.9A4.2,4.2,0,0,0,15.87,37a4.11,4.11,0,0,0,.59,2.11c-.94.89-1.84,1.78-2.7,2.69H10.12C9.47,41.09,8.86,40.37,8.28,39.66ZM30.45,13c-3.57,2.66-6.59,6.92-8.68,12.2h-8.2A31.06,31.06,0,0,1,30.45,13ZM64.67,25.2h-8.2a35.37,35.37,0,0,0-2.71-5.44c1.64-.49,3.22-.89,4.73-1.19A31.14,31.14,0,0,1,64.67,25.2Zm-21.4,39A4.18,4.18,0,0,0,40,60.52V60.2H51.18c-.3,2.24-.68,4.37-1.14,6.36C47.86,65.91,45.59,65.11,43.27,64.17ZM30.39,57.81a100.87,100.87,0,0,1-9.25-6.12,49.22,49.22,0,0,1-.79-8.11H38.23V58.43H31.48Zm-4.07.62H22.91c-.33-.92-.62-1.88-.89-2.85C23.42,56.56,24.86,57.51,26.32,58.43ZM15.71,43.58h2.87a53.29,53.29,0,0,0,.52,6.55c-1.89-1.49-3.65-3-5.26-4.52C14.44,44.94,15.06,44.26,15.71,43.58Zm41.23-1.76a4.18,4.18,0,0,0-2.8-3A98.46,98.46,0,0,0,52.37,27h2.91a46.84,46.84,0,0,1,2.61,14.85Zm-8.2,1.76a4.2,4.2,0,0,0,3.17,3.27,93.45,93.45,0,0,1-.51,11.58H40V43.58Zm2.74-4.77a4.18,4.18,0,0,0-2.71,3H40V27h9.67A96.13,96.13,0,0,1,51.48,38.81ZM40.67,25.2c2.61-1.35,5.17-2.52,7.64-3.51.34,1.13.65,2.31.94,3.51ZM38.23,27V41.82H20.35c0-.21,0-.42,0-.63A4.18,4.18,0,0,0,24.27,37,4.11,4.11,0,0,0,24.12,36q3.42-2.74,7.33-5.33c2-1.32,4-2.53,6-3.66ZM30,28.42c-2.51,1.66-5,3.45-7.32,5.32A4.33,4.33,0,0,0,21.29,33,43.88,43.88,0,0,1,23,27h9.3C31.49,27.44,30.74,27.92,30,28.42ZM18.43,40.89l.19.06c0,.29,0,.58,0,.87H17.46ZM38.23,60.2v.31a4.1,4.1,0,0,0-1.55.69c-.66-.32-1.31-.66-2-1Zm15.6,0h.83c-.38.9-.78,1.77-1.2,2.6C53.59,62,53.72,61.08,53.83,60.2ZM54,58.43a96,96,0,0,0,.51-11.83,4.2,4.2,0,0,0,2.43-3h.91a47.14,47.14,0,0,1-2.56,14.85ZM57.13,27h8.66A30.83,30.83,0,0,1,70.1,41.82H59.65A48.5,48.5,0,0,0,57.13,27ZM54.6,25.2H52c-.36-1.53-.75-3-1.18-4.45l1.28-.46A32.78,32.78,0,0,1,54.6,25.2Zm-4.61-7c-.15-.44-.3-.88-.46-1.31.33.36.64.74,1,1.14Zm-2.47.93Q43.83,20.62,40,22.57V11.78l.63,0a12.57,12.57,0,0,1,4.59,1.59A53.75,53.75,0,0,1,47.52,19.16Zm-9.29,4.33c-1,.54-2,1.12-3.06,1.71H23.63c3.12-7.5,8.18-12.63,14-13.4l.63,0ZM12.12,43.58l-.16.19-.18-.19Zm0,4A89.54,89.54,0,0,0,19.82,54a45.78,45.78,0,0,0,1.24,4.44H12.37a30.8,30.8,0,0,1-3-7Q10.58,49.56,12.14,47.62ZM21.72,60.2c2.1,5.33,5.13,9.64,8.73,12.33a31.15,31.15,0,0,1-17-12.33Zm1.86,0h5.65q2.94,1.71,5.88,3.18a4.29,4.29,0,0,0-.2,1.24,4.2,4.2,0,0,0,3.32,4.11v5H37.6C31.78,73,26.69,67.77,23.58,60.2ZM40,68.72a4.17,4.17,0,0,0,2.69-1.93Q46,68.1,49.11,69a14.55,14.55,0,0,1-8.48,4.69H40ZM56.52,60.2h8.23a31.17,31.17,0,0,1-7.92,8c-1.31-.22-2.68-.52-4.09-.88A33.7,33.7,0,0,0,56.52,60.2Zm.65-1.77a48.51,48.51,0,0,0,2.48-14.85H70.1a30.83,30.83,0,0,1-4.23,14.85ZM68,18.17a8,8,0,0,1,5.49,3.21c2,3,1.15,7.56-1.88,12.72a33.65,33.65,0,0,0-9.7-16A21.34,21.34,0,0,1,68,18.17ZM55.6,16.52c-1.11.28-2.24.6-3.4,1A22.71,22.71,0,0,0,48,13.2L48,13.05A30.83,30.83,0,0,1,55.6,16.52ZM33.68,2.66A8.06,8.06,0,0,1,39.55,5.1,20.35,20.35,0,0,1,43,9.34,33.45,33.45,0,0,0,24.42,12.5C26.73,6.58,29.93,2.9,33.68,2.66ZM3.56,24.12a8.09,8.09,0,0,1,5.31-3.51,20.63,20.63,0,0,1,5.36-.48A33.63,33.63,0,0,0,6,36.58C2.81,31.64,1.75,27.21,3.56,24.12ZM8.14,43.58h0c.66.73,1.36,1.46,2.08,2.19q-.88,1.08-1.68,2.16A31.12,31.12,0,0,1,8.14,43.58ZM12,68.94a8.1,8.1,0,0,1-5.5-3.21C4.69,63,5.21,59,7.57,54.46A33.83,33.83,0,0,0,18.14,69.05,21.78,21.78,0,0,1,12,68.94ZM38.82,82.86a8.06,8.06,0,0,1-5.88-2.44,22.94,22.94,0,0,1-4.31-5.69A33.62,33.62,0,0,0,47,75.47C44.83,79.94,42,82.66,38.82,82.86Zm12.72-11.7c.14-.43.27-.88.39-1.33l1.57.39C52.86,70.55,52.21,70.87,51.54,71.16Zm21.35-6.4a8.06,8.06,0,0,1-5.31,3.5,22.25,22.25,0,0,1-7,.41A33.79,33.79,0,0,0,71.06,53.33C73.78,57.85,74.58,61.89,72.89,64.76Z"/></g></g></svg>