<svg xmlns="http://www.w3.org/2000/svg" xmlns:xlink="http://www.w3.org/1999/xlink" viewBox="0 0 57.29 68.48"><defs><style>.cls-1{fill:url(#DÈgradÈ_sans_nom_18);}.cls-2{fill:url(#Orange);}.cls-3{fill:url(#DÈgradÈ_sans_nom_18-2);}.cls-4{fill:url(#Orange-2);}.cls-5{fill:url(#DÈgradÈ_sans_nom_18-3);}</style><linearGradient id="DÈgradÈ_sans_nom_18" x1="7.94" y1="30.86" x2="23.76" y2="49.72" gradientUnits="userSpaceOnUse"><stop offset="0" stop-color="#4d4d4d"/><stop offset="1" stop-color="#1a1a1a"/></linearGradient><linearGradient id="Orange" x1="3.15" y1="32.55" x2="16.42" y2="48.37" gradientUnits="userSpaceOnUse"><stop offset="0" stop-color="#f69453"/><stop offset="0.5" stop-color="#f37521"/><stop offset="1" stop-color="#d4622a"/></linearGradient><linearGradient id="DÈgradÈ_sans_nom_18-2" x1="27.37" y1="36.38" x2="45.96" y2="58.53" xlink:href="#DÈgradÈ_sans_nom_18"/><linearGradient id="Orange-2" x1="41.37" y1="33.09" x2="54.72" y2="48.99" xlink:href="#Orange"/><linearGradient id="DÈgradÈ_sans_nom_18-3" x1="12.09" y1="4.1" x2="44.59" y2="42.83" xlink:href="#DÈgradÈ_sans_nom_18"/></defs><g id="Calque_2" data-name="Calque 2"><g id="Calque_1-2" data-name="Calque 1"><rect class="cls-1" x="13.35" y="25.79" width="5" height="29" rx="1"/><path class="cls-2" d="M11.36,28.25h-.12c-5.35,0-9.68,5.37-9.68,12s4.33,12,9.68,12h.12c.56,0,1-.32,1-.78V29.08A.91.91,0,0,0,11.36,28.25Z"/><path class="cls-3" d="M43.35,25.79h-3a1,1,0,0,0-1,1v27a1,1,0,0,0,1,1h.51c-.08,1.9-.54,5.26-2.64,7.55a7.91,7.91,0,0,1-5.32,2.43,2.77,2.77,0,1,0,0,2,9.87,9.87,0,0,0,6.84-3.08c2.57-2.8,3.1-6.73,3.18-8.91h.48a1,1,0,0,0,1-1v-27A1,1,0,0,0,43.35,25.79Z"/><path class="cls-4" d="M46.69,29.25h-.24c-.55,0-1.1.32-1.1.78V52.42c0,.46.55.83,1.1.83h.22c5.35,0,9.7-5.37,9.7-12S52,29.25,46.69,29.25Z"/><path class="cls-5" d="M50.26,7.4C45.45,2.49,38.3,0,29,0S12.5,2.77,7.48,8.23C-1,17.5,0,31.05.07,31.63a1.5,1.5,0,1,0,3-.26c0-.12-1-12.84,6.65-21.13C14.13,5.44,20.62,3,29,3S43.89,5.19,48.11,9.5c6.45,6.59,6.24,16.37,6.15,20.55,0,.68,0,1.2,0,1.53A1.49,1.49,0,0,0,55.75,33h.09a1.5,1.5,0,0,0,1.41-1.58c0-.29,0-.73,0-1.31C57.35,26,57.59,14.89,50.26,7.4Z"/></g></g></svg>