<svg xmlns="http://www.w3.org/2000/svg" xmlns:xlink="http://www.w3.org/1999/xlink" viewBox="0 0 69.7 63.23"><defs><style>.cls-1,.cls-2,.cls-3{fill-rule:evenodd;}.cls-1{fill:url(#DÈgradÈ_sans_nom_18);}.cls-2{fill:url(#Orange);}.cls-3{fill:url(#DÈgradÈ_sans_nom_18-2);}</style><linearGradient id="DÈgradÈ_sans_nom_18" x1="45.81" y1="49.77" x2="45.95" y2="49.93" gradientUnits="userSpaceOnUse"><stop offset="0" stop-color="#4d4d4d"/><stop offset="1" stop-color="#1a1a1a"/></linearGradient><linearGradient id="Orange" x1="8.32" y1="2.35" x2="57.35" y2="60.78" gradientUnits="userSpaceOnUse"><stop offset="0" stop-color="#f69453"/><stop offset="0.5" stop-color="#f37521"/><stop offset="1" stop-color="#d4622a"/></linearGradient><linearGradient id="DÈgradÈ_sans_nom_18-2" x1="45.81" y1="25.77" x2="45.95" y2="25.93" xlink:href="#DÈgradÈ_sans_nom_18"/></defs><g id="Calque_2" data-name="Calque 2"><g id="Calque_1-2" data-name="Calque 1"><path class="cls-1" d="M45.87,50h0a1.53,1.53,0,0,1,0-.3A1.53,1.53,0,0,0,45.87,50Z"/><path class="cls-2" d="M69.68,38.17c0-.06,0-.11,0-.17,0-1.43-1.47-2.76-4-3.92l0-1.92h0C65.33,36.51,51.51,40,34.5,40c-12.88,0-23.93-2-28.69-4.86C11.27,37.45,21.18,39,32.5,39c17.23,0,31.2-3.58,31.2-8a2.58,2.58,0,0,0,0-.39V28.84C59.21,31.85,47.84,34,34.5,34,17.28,34,3.31,30.42,3.31,26a2.22,2.22,0,0,1,.06-.51C4.36,29.68,17.92,33,34.5,33c17.23,0,31.2-3.58,31.2-8a2.58,2.58,0,0,0,0-.39l0-2.17c1.93-1,3-2.21,3-3.44a2.58,2.58,0,0,0,0-.39l0-4.45h0c0-.06,0-.11,0-.17,0-1.23-1.09-2.4-3-3.44l0-2.4h0c0-.06,0-.11,0-.17,0-4.42-14.12-8-31.35-8S3,3.58,3,8l.16,5.47c0,4,14,7.76,31.27,7.76,16.57,0,30.15-3.43,31.16-7.61a1.64,1.64,0,0,1,.09.44c0,4.42-14.11,8-31.34,8C21.89,22,11,20.13,6,17.42l.16,2c0,4,14,7.76,31.27,7.76A89.72,89.72,0,0,0,60.56,24.5C55,26.67,45.25,28.06,34.33,28.06,17.1,28.06,3,24.42,3,20v3.18C2,24.06,1,25,1,26v5H1c0,1,1,1.94,2,2.82l.16,3.65c0,4,14,7.76,31.27,7.76,16.54,0,30.11-3.42,31.15-7.6a1.67,1.67,0,0,1,.1.43c0,4.42-14.11,8-31.34,8C22.66,46,13,44.35,7,41.92l.16,1.55c0,4,14,7.76,31.27,7.76a98.92,98.92,0,0,0,19.69-1.9C52.4,51,43.79,52.06,34.33,52.06,17.1,52.06,3,48.42,3,44v2.58c-2,1-3,2.19-3,3.42l.16,5.47c0,4,14,7.76,31.27,7.76s31.23-3.69,31.23-8.11a3.62,3.62,0,0,0,0-.46l0-1.19C57.64,56.17,46.92,58,34.5,58,17.27,58,3.31,54.43,3.31,50a2.08,2.08,0,0,1,.07-.5C4.39,53.69,17.94,57,34.5,57c17.23,0,31.2-3.58,31.2-8a2.58,2.58,0,0,0,0-.39V46.93c2.56-1.16,4-2.5,4-3.93a2.58,2.58,0,0,0,0-.39l0-4.45Z"/><path class="cls-3" d="M45.87,26h0a1.53,1.53,0,0,1,0-.3A1.53,1.53,0,0,0,45.87,26Z"/></g></g></svg>