<svg xmlns="http://www.w3.org/2000/svg" xmlns:xlink="http://www.w3.org/1999/xlink" viewBox="0 0 97.25 44.73"><defs><style>.cls-1{fill:url(#Orange);}</style><linearGradient id="Orange" y1="22.37" x2="97.25" y2="22.37" gradientUnits="userSpaceOnUse"><stop offset="0" stop-color="#f69453"/><stop offset="0.5" stop-color="#f37521"/><stop offset="1" stop-color="#d4622a"/></linearGradient></defs><g id="Calque_2" data-name="Calque 2"><g id="Calque_1-2" data-name="Calque 1"><path class="cls-1" d="M88.75,29.81h-.13a7.21,7.21,0,0,0-.14-1.44c-.12-.92-.29-2.12-.55-3.39a26.76,26.76,0,0,0-1.22-4.26A14.81,14.81,0,0,0,84,16.11a8.81,8.81,0,0,0-5.35-3,10.8,10.8,0,0,0-2.84,0l-.38-.31a20.21,20.21,0,0,0-3.84-2.18,11.54,11.54,0,0,0-4.25-1,10.3,10.3,0,0,0-4,.63,11.4,11.4,0,0,0-3.11,1.8,12.75,12.75,0,0,0-2.12,2.09A14.63,14.63,0,0,0,56.8,16l-.14.25H56c0-.32.05-.69.08-1.1.11-1.66.24-4,.24-6.88a45.38,45.38,0,0,0-.21-4.65A9.22,9.22,0,0,0,55.52.9a2.36,2.36,0,0,0-.29-.44,1.31,1.31,0,0,0-.7-.42,1.22,1.22,0,0,0-.9.13,2,2,0,0,0-.46.36,5.23,5.23,0,0,0-.86,1.33,27.94,27.94,0,0,0-1.49,3.9,10.86,10.86,0,0,0-1.38-1.21A11,11,0,0,0,47,3.18a11.82,11.82,0,0,0-2.86-.68,15.85,15.85,0,0,0-6,.63,29.32,29.32,0,0,0-5.6,2.37,48.51,48.51,0,0,0-5.07,3.23c-1.41,1-2.72,2.09-4,3.17a8.87,8.87,0,0,0-5.17-1.44,6.1,6.1,0,0,0-2.87,1,8.78,8.78,0,0,0-2,2,16.16,16.16,0,0,0-2.16,4.32,29.33,29.33,0,0,0-1,3.84c-.24,1.16-.39,2.17-.5,3,0,.14,0,.26,0,.38H9.5C4.25,25,0,26,0,27.23s4.25,2.25,9.5,2.25,9.5-1,9.5-2.25c0-1.06-3.11-1.95-7.29-2.18.92-.86,2.12-1.9,3.57-3,.93-.68,2-1.41,3.07-2.1A28.16,28.16,0,0,1,22,18c.64-.31,1.33-.53,2-.78s1.39-.43,2.11-.56l.19,0c.28.27.55.56.82.84a52.62,52.62,0,0,1,3.63,4.28c1.13,1.48,2.23,3,3.24,4.43,2,2.93,3.82,5.75,5.34,8.18s2.83,4.65,3.7,6.1c-5.08.13-9,1-9,2.11s4.59,2.12,10.25,2.12,10.25-.95,10.25-2.12-3.69-1.93-8.53-2.1l.13-.15c1.16-1.43,2.89-3.42,5-5.79,1-1.14,2.12-2.37,3.3-3.65,3.32-.31,5.63-1,5.63-1.75,0-.52-1-1-2.67-1.33l1.1-1.12c1.38-1.39,2.87-2.76,4.4-4.12a54.29,54.29,0,0,1,4.85-3.82,27.72,27.72,0,0,1,5.28-3,15.39,15.39,0,0,1,2.21-.72l.7.55L77.37,17l1.41,1.43c.47.47.89,1,1.33,1.45.88.95,1.64,2,2.42,2.87l2.07,2.67c.61.86,1.19,1.63,1.7,2.31s.91,1.28,1.27,1.77c-4.14.11-7.32.79-7.32,1.61s3.81,1.62,8.5,1.62,8.5-.56,8.5-1.46S93.44,29.81,88.75,29.81ZM50.93,13.11c.31-1.36.64-2.72,1-4a21.79,21.79,0,0,1,1.91,3.26c.26.54.48,1,.68,1.52s.38.92.52,1.33.28.75.39,1.07a40.38,40.38,0,0,0-5.27.36C50.4,15.44,50.65,14.27,50.93,13.11ZM54,1.62l0,0S54,1.61,54,1.62Zm-.13,1A6,6,0,0,1,54.21,2a10.64,10.64,0,0,1,.46,1.81c.26,1.56.41,3.09.54,4.49.24,2.81.4,5,.51,6.62a8.78,8.78,0,0,0,.08.89h-.15a4.66,4.66,0,0,1-.25-1c-.09-.43-.21-.79-.36-1.29A16,16,0,0,0,54.52,12a18.9,18.9,0,0,0-1.75-3.72c-.15-.24-.31-.46-.48-.7A39.22,39.22,0,0,1,53.89,2.62Zm-25.3,7.69a46.69,46.69,0,0,1,4.9-3.06A27.8,27.8,0,0,1,38.7,5,15,15,0,0,1,44,4.25a9.6,9.6,0,0,1,4.61,1.52,10.74,10.74,0,0,1,1.79,1.46c-.5,1.79-1,3.6-1.4,5.43-.33,1.47-.64,2.93-.94,4.39-.61.21-1,.44-1,.68s.25.41.7.59c-.37,1.79-.67,3.56-1,5.27,0,.07,0,.13,0,.2-.29-.37-.62-.74-1-1.13a29.85,29.85,0,0,0-2.67-2.8L41.5,18.49c-.57-.45-1.22-.83-1.84-1.27s-1.35-.75-2-1.13a23,23,0,0,0-2.23-.89A17.27,17.27,0,0,0,33,14.6c-.41-.06-.81-.16-1.22-.2l-1.24-.08a18.89,18.89,0,0,0-3.61.24C26.33,14,25.7,13.46,25,13,26.18,12.06,27.37,11.18,28.59,10.31ZM48.11,26.67l.49.59-.83,0c.06-.27.11-.53.17-.8A1.37,1.37,0,0,0,48.11,26.67Zm-37.94-2c.21-.81.51-1.78.85-2.89s.79-2.34,1.36-3.62a17,17,0,0,1,2.26-3.81,5.29,5.29,0,0,1,3.79-2.14,6.82,6.82,0,0,1,3.54,1c-2.39,2.17-4.51,4.33-6.26,6.27-1.24,1.38-2.31,2.65-3.2,3.74-.58.65-1.06,1.24-1.47,1.76l-.95,0C10.11,24.89,10.14,24.79,10.17,24.68Zm11.07-8.24c-.34.16-.67.33-1,.51,1-.89,2.1-1.81,3.23-2.73.38.28.75.57,1.12.89A21.06,21.06,0,0,0,21.24,16.44ZM40.3,33.84c-1.3-2.58-2.93-5.54-4.87-8.59-1-1.53-2-3.1-3.16-4.62S30,17.72,28.73,16.34a16.84,16.84,0,0,1,1.74,0l1.11.07c.36,0,.72.11,1.09.16a15.33,15.33,0,0,1,2.13.5c.7.22,1.37.49,2.05.74s1.3.61,1.91,1,1.21.71,1.77,1.09L42.17,21c1,.86,2,1.62,2.8,2.45l1.2,1.15.38.41c-.14.82-.28,1.62-.4,2.4-3.33.31-5.65,1-5.65,1.76s2.07,1.38,5.12,1.71c-.12.79-.22,1.57-.32,2.3-.43,3.11-.7,5.64-.86,7.3h-1C42.74,38.93,41.71,36.61,40.3,33.84Zm9.89,0c-1.93,2.54-3.38,4.76-4.41,6.29l-.23.37h-.78c.39-1.62,1-4.08,1.65-7.1.17-.77.35-1.57.53-2.4,1,.07,2.14.12,3.3.12.73,0,1.43,0,2.11-.05C51.59,32,50.85,33,50.19,33.84ZM72.25,14a28.52,28.52,0,0,0-5.71,3.13,54.78,54.78,0,0,0-5,4c-1.57,1.41-3,2.89-4.39,4.34-.63.67-1.24,1.35-1.83,2a42.77,42.77,0,0,0-5.08-.29l-1.13,0-.55-.93-.45-.63c.13-.58.26-1.16.39-1.77.37-1.66.75-3.38,1.13-5.13a39.72,39.72,0,0,0,6.27.44c4.88,0,8.84-.67,8.84-1.5s-3.33-1.38-7.65-1.48l0,0A17.48,17.48,0,0,1,60.88,13a12.18,12.18,0,0,1,2.92-1.32,9.91,9.91,0,0,1,3.46-.29,10.62,10.62,0,0,1,1.81.33,16.73,16.73,0,0,1,1.79.66,14.34,14.34,0,0,1,2.36,1.3A10.13,10.13,0,0,0,72.25,14ZM87.94,29.34c-.27-.56-.57-1.25-1-2s-.88-1.62-1.4-2.54-1.16-1.9-1.82-2.93-1.41-2.09-2.28-3.11a39.17,39.17,0,0,0-2.73-3.13l-.89-.83c.2,0,.4,0,.6,0a7.43,7.43,0,0,1,4.5,2.28,15.1,15.1,0,0,1,2.72,4,36,36,0,0,1,1.55,4c.39,1.21.68,2.29.89,3.19.11.45.2.85.29,1.21H88Z"/></g></g></svg>