<svg xmlns="http://www.w3.org/2000/svg" xmlns:xlink="http://www.w3.org/1999/xlink" viewBox="0 0 369.38 259.76"><defs><style>.cls-1{fill:#fff;stroke:#000;stroke-miterlimit:10;stroke-width:4px;}.cls-2{fill:#2d4150;}.cls-3{font-size:14px;fill:#fbb03b;font-family:HiraKakuStd-W8-83pv-RKSJ-H, Hiragino Kaku Gothic Std;}.cls-4{letter-spacing:-0.06em;}.cls-5{letter-spacing:-0.11em;}.cls-6{letter-spacing:0em;}.cls-7{letter-spacing:-0.06em;}.cls-8{letter-spacing:-0.11em;}.cls-9{fill-rule:evenodd;fill:url(#Eté);}.cls-10{fill:url(#Eté-2);}</style><radialGradient id="Eté" cx="120.77" cy="225.95" r="15.93" gradientUnits="userSpaceOnUse"><stop offset="0" stop-color="#fff"/><stop offset="0.09" stop-color="#ffedd8"/><stop offset="0.21" stop-color="#ffd5a7"/><stop offset="0.33" stop-color="#ffc17d"/><stop offset="0.46" stop-color="#ffb05b"/><stop offset="0.59" stop-color="#ffa340"/><stop offset="0.72" stop-color="#ff9a2d"/><stop offset="0.86" stop-color="#ff9522"/><stop offset="1" stop-color="#ff931e"/></radialGradient><radialGradient id="Eté-2" cx="168.92" cy="228.84" r="2.95" xlink:href="#Eté"/></defs><g id="Calque_2" data-name="Calque 2"><g id="Calque_1-2" data-name="Calque 1"><rect class="cls-1" x="56.81" y="-52.81" width="255.76" height="365.38" rx="12" transform="translate(54.81 314.57) rotate(-90)"/><path class="cls-2" d="M286.12,159A7.82,7.82,0,0,0,278.5,165H84.12a7.82,7.82,0,1,0,0,3.47H278.5a7.82,7.82,0,1,0,7.62-9.56Z"/><path class="cls-2" d="M43.27,153.78l-7.58,26h8l1-5h6.16l1,5H60l-7.55-26Zm2.5,15.57,2-10.19,2,10.19Z"/><path class="cls-2" d="M323.69,172.08c0-4.07-2.95-5.49-5.79-6.09,2.32-.6,4.71-2.13,4.71-5.49,0-5.08-4.6-6.72-11.88-6.72h-8.1v26h9.11C318.57,179.77,323.69,178.24,323.69,172.08Zm-13.37-13h1.12c2.47,0,3.36.71,3.36,2.25,0,1.82-.82,2.53-3.17,2.53h-1.31Zm0,9.64h1.79c2.39,0,3.66.86,3.66,2.87,0,2.32-1.6,2.8-3.95,2.8h-1.5Z"/><text class="cls-3" transform="translate(264.35 210.24)">OUR <tspan class="cls-4" x="40.94" y="0">W</tspan><tspan class="cls-5" x="55.64" y="0">A</tspan><tspan class="cls-6" x="66.28" y="0">Y</tspan></text><path class="cls-2" d="M285.08,66.54a7.83,7.83,0,0,0-7.59,5.95,86.63,86.63,0,0,0-12.87.7c-7.19,1-13.66,3.74-20.31,6.5a75.4,75.4,0,0,1-13.62,4.4c-6.7-5.94-15.6-8-24.44-8.09l-.06-.09a30.29,30.29,0,0,1-3.76-10,156.61,156.61,0,0,1,19-1.63c8.16-.19,22.15,2.84,27.81-5.23,6.27-9-3.23-17.85-10.49-21.89-9.19-5.1-20.58-8.27-30.4-3s-10.9,16.56-9.89,26.62c.08.79.18,1.58.29,2.37-5.31.89-10.58,2-15.77,3.45A48.86,48.86,0,0,0,176.34,61c3.81-2.92,7.66-5.79,11.35-8.86A24,24,0,0,0,196,32.29c-.44-8.47-5.76-15.35-14.46-16.25-9.39-1-17.05,5.09-19.8,13.8a41.55,41.55,0,0,0,0,24.54,36.16,36.16,0,0,0-4.06-.66c-.8-6.7-4.71-13.16-9.32-17.95-5.51-5.73-17.34-10.16-22-.85-2.06,4.06-.77,8.84,1,12.74A93.08,93.08,0,0,0,134,59.21,45.46,45.46,0,0,0,118.8,73.77a125,125,0,0,0-16-1.36c-6.58.07-13.16.18-19.74.26a7.84,7.84,0,1,0,0,3.25q9.45-.09,18.88-.24a117.3,117.3,0,0,1,15,1.09c-.65,1.21-1.26,2.44-1.79,3.71-6.64,15.81-3.24,38.26,14.7,44.88a23.88,23.88,0,0,0,21.13-2.5A32.27,32.27,0,0,0,173,124.65l1.09-.35c4.19,8.16,11.52,13.73,22.05,12.26,13.59-1.88,19.74-15.35,17.21-27.23a42.15,42.15,0,0,0,16.21-2c10-3.59,9.58-13.32,3.93-20.37a86.84,86.84,0,0,0,11.73-4.09c5.87-2.45,11.66-5,18-6.15a75.59,75.59,0,0,1,14.26-1,7.82,7.82,0,1,0,7.69-9.2ZM219.59,81.35a31.88,31.88,0,0,1,6.71,3.4c-6.52.62-12.81-.57-17.5-5.45A37.75,37.75,0,0,1,219.59,81.35ZM201.44,57.66c-.36-7.14.36-14.88,6.64-19.39C214,34,221.67,34,228.4,36.17c6,1.91,14,5.51,17.55,11,2.27,3.5,2.76,8.35-.62,11.29-2.42,2.09-5.88,2.54-9,2.68-6.6.31-13.21-.26-19.82.09q-7.35.41-14.65,1.48C201.67,61,201.53,59.34,201.44,57.66Zm-2.17,8.79a37,37,0,0,0,3.32,9.6c-1.39,0-2.76.15-4.12.28a59.87,59.87,0,0,0-7.41,1.14q-.52-1-1.11-1.89a57.63,57.63,0,0,0-4.54-6.17C190,68.21,194.61,67.23,199.27,66.45Zm-23.53,53.71a38.91,38.91,0,0,1-1.62-23.83,68.5,68.5,0,0,0,16.23,8.23A27.61,27.61,0,0,1,175.74,120.16Zm6.77-22.78A76.63,76.63,0,0,1,175.3,93a18.92,18.92,0,0,1,7.32-8.88l.1-.06c3,2.46,6.07,4.75,9.24,6.94a29.35,29.35,0,0,1-.63,10.46A68.2,68.2,0,0,1,182.51,97.38Zm-9.9-6.46a27.63,27.63,0,0,1-4.83-5c-4.54-6.24-.67-9.89,4.42-12.23,1.13,1.38,2.3,2.71,3.53,4,1.43,1.47,2.92,2.87,4.45,4.23a19.79,19.79,0,0,0-7,7.77C173,90.05,172.8,90.48,172.61,90.92Zm22.65,2.22c3.23,2,6.64,4,9.3,6.63a20.65,20.65,0,0,1,4.11,5.72,68.63,68.63,0,0,1-14.44-3A34.93,34.93,0,0,0,195.26,93.14Zm-9.39-10.72a28.94,28.94,0,0,1,3.42-1.22,37.37,37.37,0,0,1,1.8,5.18C189.32,85.11,187.57,83.79,185.87,82.42Zm-2.71-2.26a78.37,78.37,0,0,1-7.8-7.77c1.47-.52,2.92-1,4.2-1.34.9-.28,1.81-.52,2.72-.78a42.51,42.51,0,0,1,5.61,8A34.63,34.63,0,0,0,183.16,80.16ZM179.7,67.6q-2.44.72-4.87,1.53l-1.68.57q-1.5-2-2.81-4l.15-.13c1.1-.89,2.22-1.76,3.34-2.64A43.27,43.27,0,0,1,179.7,67.6Zm-11-4.75c-.64-1.18-1.24-2.38-1.77-3.61a39.27,39.27,0,0,1,3.93,1.88Zm-5.21-17.32c-.82-11.77,3.41-28.79,18.78-26.13,13.09,2.26,13,20.24,5.47,28.28-4.07,4.39-9.5,7.76-14.28,11.4a40.15,40.15,0,0,0-8-3.71A40.23,40.23,0,0,1,163.48,45.53ZM163,57.92a53.71,53.71,0,0,0,3.21,6.93,147.56,147.56,0,0,0-15,14c-1.19-1.78-2.42-3.53-3.64-5.28a21.81,21.81,0,0,0,9-10.4,18.5,18.5,0,0,0,1.31-6.26c.66.08,1.32.16,2,.28C160.94,57.4,162,57.64,163,57.92Zm-12.73,61.23c-4.42-2.23-8-5.56-8.87-10.05-1.7-8.95,3.62-17.81,9-24.41.14-.18.29-.34.43-.51a42.84,42.84,0,0,1,6,15.45C158,107.39,155.47,114.7,150.29,119.15ZM145.73,71q-3.63-5.2-7.06-10.57a36.29,36.29,0,0,1,15.92-3.64,15.57,15.57,0,0,1-1.78,6.87A19.2,19.2,0,0,1,145.73,71ZM134.19,53.17C131.07,48,123.63,35.76,133.64,33c7.2-1.95,13.4,5.2,16.85,10.56a25.56,25.56,0,0,1,3.92,9.93,36.1,36.1,0,0,0-6,.44,40.61,40.61,0,0,0-11.5,3.65Q135.53,55.42,134.19,53.17ZM135.74,62l2.3,3.49c1.53,2.32,3.19,4.64,4.88,7a23.75,23.75,0,0,1-4.83,1.52,53.08,53.08,0,0,1-15.68.24A42.26,42.26,0,0,1,135.74,62Zm.45,61.5c-12.37-1-20.12-12.94-20.87-24.46a38.77,38.77,0,0,1,5.21-21.84,73.68,73.68,0,0,0,15.27.39,28.14,28.14,0,0,0,9-2.47c1.46,2,2.9,4.09,4.25,6.19-4.66,5.4-8.94,11.57-10.4,18.59-1.65,7.89-.43,14.94,6.49,19.7.78.54,1.59,1,2.42,1.52A19.41,19.41,0,0,1,136.19,123.45Zm29.09-.88a32.82,32.82,0,0,1-11.45-1.92,19.52,19.52,0,0,0,1.81-1.94c6.85-8.57,5.49-20.57,1.24-29.95A62.65,62.65,0,0,0,153,81.69a141.67,141.67,0,0,1,14.86-14c.69,1.1,1.42,2.17,2.17,3.21-2.73,1.21-5.26,2.87-6.66,5.53-2.22,4.2-.43,8.74,2.32,12.18a38.35,38.35,0,0,0,5.67,5.65,43.34,43.34,0,0,0,1.29,27.05A28,28,0,0,1,165.28,122.57Zm38.6,7.31c-3.65,3.11-8.93,4.15-13.59,3.44-6.16-.94-10.3-5-13.13-10.2a30,30,0,0,0,16.11-17.56c.93.29,1.85.58,2.76.84a81.91,81.91,0,0,0,14,2.69A20.1,20.1,0,0,1,203.88,129.88ZM234.33,96c.9,8.52-9.74,9.49-15.85,9.76q-3.12.14-6.24,0a22.71,22.71,0,0,0-6.11-9c-3.35-3-7.43-5.29-11.23-7.77a34.2,34.2,0,0,0-2.41-8.59,62.89,62.89,0,0,1,7.5-1c1.51-.11,3-.19,4.57-.22a20.52,20.52,0,0,0,7.78,6.61C218,88.57,224,88.76,229.93,87.7A13.9,13.9,0,0,1,234.33,96Z"/><path class="cls-2" d="M42.23,61.36l-7.58,26h8l1-5h6.16l1,5H59l-7.55-26Zm2.5,15.57,2-10.19,2,10.19Z"/><path class="cls-2" d="M316.86,73.57c2.32-.6,4.71-2.13,4.71-5.49,0-5.08-4.6-6.72-11.88-6.72h-8.1v26h9.11c6.83,0,11.95-1.53,11.95-7.69C322.65,75.59,319.7,74.17,316.86,73.57Zm-7.58-6.94h1.12c2.46,0,3.36.71,3.36,2.24,0,1.83-.82,2.54-3.17,2.54h-1.31Zm1.49,15.31h-1.49V76.26h1.79c2.39,0,3.66.86,3.66,2.88C314.73,81.45,313.13,81.94,310.77,81.94Z"/><text class="cls-3" transform="translate(242.44 124.59)">OTHER <tspan class="cls-7" x="61.81" y="0">W</tspan><tspan class="cls-8" x="76.51" y="0">A</tspan><tspan x="87.15" y="0">Y</tspan></text><path class="cls-9" d="M125.47,225.54c7.65,6.67,2.92,16.43-4.73,17.68l-.1-9.53a3.86,3.86,0,0,0,1.27-1.41l3.56-6.74ZM116.11,243v-8.57a4,4,0,0,1-1.24-5.33l5.81-10.06c2.25-3.89-1-8.45-4.33-10.39a7.61,7.61,0,0,1-1.34,4.16c-2.36,4.09-4.74,8.18-7.1,12.27a12.09,12.09,0,0,0,4.41,16.46,12.81,12.81,0,0,0,3.79,1.46Zm12.63-30.67-1.51-.87.87-1.51,1.51.87-.87,1.51Zm-.1,2-1.72,3-3-1.72,1.72-3,3,1.72Zm3.67,3.69-3-1.71,1.72-3,3,1.72-1.72,3Zm.31,2.13-4.42-2.55-2.55,4.42,4.42,2.55,2.55-4.42Zm1.33,6,1.29-2.23-2.24-1.3-1.29,2.24Z"/><path class="cls-2" d="M200.72,219.14l5.51-2.88h2.35v26.38h-7.86Z"/><path class="cls-2" d="M212,220v-1.84l4.16-1.39v-5.25l5.48-2.88h2.35v8.13h6.34V220h-6.34v16.64a2.3,2.3,0,0,0,.4,1.36,1.24,1.24,0,0,0,1.06.58,1.91,1.91,0,0,0,.9-.27,6,6,0,0,0,.93-.65,7.09,7.09,0,0,0,.79-.74c.22-.26.39-.45.49-.58l2.68,2.12a15.83,15.83,0,0,1-1.44,1.88,8.4,8.4,0,0,1-1.8,1.5,8.93,8.93,0,0,1-2.32,1,11.45,11.45,0,0,1-3,.36,8,8,0,0,1-2.85-.46,5.59,5.59,0,0,1-2-1.3,5.34,5.34,0,0,1-1.21-2,7.74,7.74,0,0,1-.41-2.57V220Z"/><path class="cls-2" d="M247.17,243.78a13.05,13.05,0,0,1-5.18-1,13.46,13.46,0,0,1-4.21-2.75,13.09,13.09,0,0,1-2.85-4,11.6,11.6,0,0,1-1-4.84,16.29,16.29,0,0,1,1-5.66,13.38,13.38,0,0,1,2.72-4.54,12.51,12.51,0,0,1,4.23-3,13.68,13.68,0,0,1,5.49-1.07,13.83,13.83,0,0,1,5,.86,11.58,11.58,0,0,1,3.85,2.35,10.46,10.46,0,0,1,2.49,3.5,10.67,10.67,0,0,1,.88,4.32h-17.9a18,18,0,0,0,.65,4.09,13,13,0,0,0,1.45,3.42,7.72,7.72,0,0,0,2.13,2.35,4.59,4.59,0,0,0,2.72.87,7.66,7.66,0,0,0,2.53-.44,8.77,8.77,0,0,0,2.31-1.21,9,9,0,0,0,1.85-1.79,6.82,6.82,0,0,0,1.13-2.21l4,.63a12.78,12.78,0,0,1-1.93,3.94,15.62,15.62,0,0,1-3.11,3.23,14.77,14.77,0,0,1-3.87,2.18A11.89,11.89,0,0,1,247.17,243.78Zm3.3-18.53a6.88,6.88,0,0,0-.49-2.09,5.87,5.87,0,0,0-1-1.63,4.24,4.24,0,0,0-1.42-1,4.09,4.09,0,0,0-1.74-.37,3,3,0,0,0-1.44.37,4.12,4.12,0,0,0-1.27,1,6.09,6.09,0,0,0-1,1.62,7.18,7.18,0,0,0-.52,2.11Z"/><path class="cls-2" d="M155.85,241.26a10.44,10.44,0,0,1-2.74,1.35,9.4,9.4,0,0,1-2.91.49,8.69,8.69,0,0,1-4-.95A11,11,0,0,1,143,239.6a12.3,12.3,0,0,1-3-8.06,10.67,10.67,0,0,1,1-4.43,13,13,0,0,1,2.66-3.83,13.15,13.15,0,0,1,4-2.69,11.65,11.65,0,0,1,4.85-1,11,11,0,0,1,1.86.15,10.33,10.33,0,0,1,1.58.42V211l4.77-2.51h2.06v34.15h-6.83Zm0-14a5.58,5.58,0,0,0-.34-2,5,5,0,0,0-.91-1.55,3.94,3.94,0,0,0-1.27-1,3.19,3.19,0,0,0-1.41-.35,2.94,2.94,0,0,0-1.77.61,5.3,5.3,0,0,0-1.47,1.68,9.68,9.68,0,0,0-1,2.54,12.86,12.86,0,0,0-.38,3.19,14.94,14.94,0,0,0,.43,3.58,12.51,12.51,0,0,0,1.16,3,7.26,7.26,0,0,0,1.7,2.07,3.31,3.31,0,0,0,2.08.77,3.19,3.19,0,0,0,.82-.12,4.52,4.52,0,0,0,.87-.35,5.34,5.34,0,0,0,.82-.51,3.59,3.59,0,0,0,.67-.68Z"/><rect class="cls-2" x="175.2" y="236.85" width="19.02" height="5.59"/><path class="cls-2" d="M182,242.37h-6.83V210.73l4.77-2.52H182Z"/><circle class="cls-10" cx="168.92" cy="228.84" r="2.95"/></g></g></svg>